%
M48
M72
T01C0.01378
T02C0.04000
%
T01
X30828Y35959
X30828Y61550
X38702Y61550
X38702Y67456
X38702Y71393
X22954Y79267
X20565Y83204
X58387Y67456
X58387Y63519
X60355Y79267
X72166Y93046
X72166Y96983
X89883Y65487
X97757Y55644
X97757Y51707
X85946Y45802
X82009Y45802
X101694Y75330
X99725Y102889
T02
X12639Y35881
X12639Y45881
X12639Y55881
X12639Y65881
X12639Y75881
X12639Y85881
X12639Y95881
X12639Y105881
X12639Y115881
X12639Y125881
X116615Y126589
X116615Y116589
X116615Y106589
X116615Y96589
X116615Y86589
X116615Y76589
X116615Y66589
X116615Y56589
X116615Y46589
X116615Y36589
M30
