G75*
%MOIN*%
%OFA0B0*%
%FSLAX25Y25*%
%IPPOS*%
%LPD*%
%AMOC8*
5,1,8,0,0,1.08239X$1,22.5*
%
%ADD10R,0.03256X0.04043*%
%ADD11R,0.04043X0.03256*%
%ADD12C,0.01331*%
%ADD13C,0.07900*%
%ADD14R,0.10343X0.09161*%
%ADD15R,0.02469X0.08374*%
%ADD16R,0.04831X0.04437*%
%ADD17R,0.03500X0.06500*%
%ADD18R,0.07000X0.02200*%
%ADD19R,0.07980X0.04831*%
%ADD20C,0.02878*%
D10*
X0029056Y0111589D03*
X0034174Y0111589D03*
X0044056Y0111589D03*
X0049174Y0111589D03*
X0089528Y0071196D03*
X0094646Y0071196D03*
D11*
X0030631Y0073558D03*
X0030631Y0078676D03*
D12*
X0060062Y0121584D02*
X0063168Y0121584D01*
X0060062Y0121584D02*
X0060062Y0124690D01*
X0063168Y0124690D01*
X0063168Y0121584D01*
X0063168Y0122914D02*
X0060062Y0122914D01*
X0060062Y0124244D02*
X0063168Y0124244D01*
X0063168Y0128489D02*
X0060062Y0128489D01*
X0060062Y0131595D01*
X0063168Y0131595D01*
X0063168Y0128489D01*
X0063168Y0129819D02*
X0060062Y0129819D01*
X0060062Y0131149D02*
X0063168Y0131149D01*
X0070062Y0128489D02*
X0073168Y0128489D01*
X0070062Y0128489D02*
X0070062Y0131595D01*
X0073168Y0131595D01*
X0073168Y0128489D01*
X0073168Y0129819D02*
X0070062Y0129819D01*
X0070062Y0131149D02*
X0073168Y0131149D01*
X0073168Y0121584D02*
X0070062Y0121584D01*
X0070062Y0124690D01*
X0073168Y0124690D01*
X0073168Y0121584D01*
X0073168Y0122914D02*
X0070062Y0122914D01*
X0070062Y0124244D02*
X0073168Y0124244D01*
D13*
X0012639Y0035881D03*
X0012639Y0045881D03*
X0012639Y0055881D03*
X0012639Y0065881D03*
X0012639Y0075881D03*
X0012639Y0085881D03*
X0012639Y0095881D03*
X0012639Y0105881D03*
X0012639Y0115881D03*
X0012639Y0125881D03*
X0116615Y0126589D03*
X0116615Y0116589D03*
X0116615Y0106589D03*
X0116615Y0096589D03*
X0116615Y0086589D03*
X0116615Y0076589D03*
X0116615Y0066589D03*
X0116615Y0056589D03*
X0116615Y0046589D03*
X0116615Y0036589D03*
D14*
X0101272Y0034078D03*
X0101272Y0013211D03*
X0068202Y0013211D03*
X0068202Y0034078D03*
D15*
X0078438Y0035062D03*
X0081587Y0035062D03*
X0084737Y0035062D03*
X0087887Y0035062D03*
X0091036Y0035062D03*
D16*
X0072717Y0103715D03*
X0072717Y0110408D03*
X0061615Y0109936D03*
X0061615Y0103243D03*
X0031615Y0104936D03*
X0031615Y0098243D03*
D17*
X0084115Y0115589D03*
X0099115Y0115589D03*
X0099115Y0137589D03*
X0084115Y0137589D03*
D18*
X0075915Y0078105D03*
X0075915Y0075546D03*
X0075915Y0072987D03*
X0075915Y0070428D03*
X0075915Y0067869D03*
X0075915Y0065310D03*
X0075915Y0062751D03*
X0075915Y0060192D03*
X0075915Y0057633D03*
X0075915Y0055074D03*
X0047315Y0055074D03*
X0047315Y0057633D03*
X0047315Y0060192D03*
X0047315Y0062751D03*
X0047315Y0065310D03*
X0047315Y0067869D03*
X0047315Y0070428D03*
X0047315Y0072987D03*
X0047315Y0075546D03*
X0047315Y0078105D03*
D19*
X0043898Y0122062D03*
X0043898Y0131117D03*
X0029331Y0131117D03*
X0029331Y0122062D03*
D20*
X0020565Y0083204D03*
X0022954Y0079267D03*
X0030828Y0061550D03*
X0038702Y0061550D03*
X0038702Y0067456D03*
X0038702Y0071393D03*
X0058387Y0067456D03*
X0058387Y0063519D03*
X0060355Y0079267D03*
X0072166Y0093046D03*
X0072166Y0096983D03*
X0089883Y0065487D03*
X0097757Y0055644D03*
X0097757Y0051707D03*
X0085946Y0045802D03*
X0082009Y0045802D03*
X0101694Y0075330D03*
X0099725Y0102889D03*
X0030828Y0035959D03*
M02*
