G75*
%MOIN*%
%OFA0B0*%
%FSLAX25Y25*%
%IPPOS*%
%LPD*%
%AMOC8*
5,1,8,0,0,1.08239X$1,22.5*
%
%ADD10C,0.07400*%
%ADD11C,0.02378*%
%ADD12C,0.00600*%
D10*
X0012639Y0035881D03*
X0012639Y0045881D03*
X0012639Y0055881D03*
X0012639Y0065881D03*
X0012639Y0075881D03*
X0012639Y0085881D03*
X0012639Y0095881D03*
X0012639Y0105881D03*
X0012639Y0115881D03*
X0012639Y0125881D03*
X0116615Y0126589D03*
X0116615Y0116589D03*
X0116615Y0106589D03*
X0116615Y0096589D03*
X0116615Y0086589D03*
X0116615Y0076589D03*
X0116615Y0066589D03*
X0116615Y0056589D03*
X0116615Y0046589D03*
X0116615Y0036589D03*
D11*
X0097757Y0051707D03*
X0097757Y0055644D03*
X0089883Y0065487D03*
X0101694Y0075330D03*
X0099725Y0102889D03*
X0072166Y0096983D03*
X0072166Y0093046D03*
X0060355Y0079267D03*
X0058387Y0067456D03*
X0058387Y0063519D03*
X0038702Y0061550D03*
X0038702Y0067456D03*
X0038702Y0071393D03*
X0030828Y0061550D03*
X0022954Y0079267D03*
X0020565Y0083204D03*
X0030828Y0035959D03*
X0082009Y0045802D03*
X0085946Y0045802D03*
D12*
X0003715Y0008689D02*
X0003715Y0144489D01*
X0124515Y0144489D01*
X0124515Y0008689D01*
X0003715Y0008689D01*
X0003715Y0009158D02*
X0124515Y0009158D01*
X0124515Y0009757D02*
X0003715Y0009757D01*
X0003715Y0010355D02*
X0124515Y0010355D01*
X0124515Y0010954D02*
X0003715Y0010954D01*
X0003715Y0011552D02*
X0124515Y0011552D01*
X0124515Y0012151D02*
X0003715Y0012151D01*
X0003715Y0012749D02*
X0124515Y0012749D01*
X0124515Y0013348D02*
X0003715Y0013348D01*
X0003715Y0013946D02*
X0124515Y0013946D01*
X0124515Y0014545D02*
X0003715Y0014545D01*
X0003715Y0015143D02*
X0124515Y0015143D01*
X0124515Y0015742D02*
X0003715Y0015742D01*
X0003715Y0016340D02*
X0124515Y0016340D01*
X0124515Y0016939D02*
X0003715Y0016939D01*
X0003715Y0017537D02*
X0124515Y0017537D01*
X0124515Y0018136D02*
X0003715Y0018136D01*
X0003715Y0018734D02*
X0124515Y0018734D01*
X0124515Y0019333D02*
X0003715Y0019333D01*
X0003715Y0019931D02*
X0124515Y0019931D01*
X0124515Y0020530D02*
X0003715Y0020530D01*
X0003715Y0021128D02*
X0124515Y0021128D01*
X0124515Y0021727D02*
X0003715Y0021727D01*
X0003715Y0022325D02*
X0124515Y0022325D01*
X0124515Y0022924D02*
X0003715Y0022924D01*
X0003715Y0023522D02*
X0124515Y0023522D01*
X0124515Y0024121D02*
X0003715Y0024121D01*
X0003715Y0024719D02*
X0124515Y0024719D01*
X0124515Y0025318D02*
X0003715Y0025318D01*
X0003715Y0025916D02*
X0124515Y0025916D01*
X0124515Y0026515D02*
X0003715Y0026515D01*
X0003715Y0027113D02*
X0124515Y0027113D01*
X0124515Y0027712D02*
X0003715Y0027712D01*
X0003715Y0028310D02*
X0124515Y0028310D01*
X0124515Y0028909D02*
X0003715Y0028909D01*
X0003715Y0029507D02*
X0124515Y0029507D01*
X0124515Y0030106D02*
X0003715Y0030106D01*
X0003715Y0030705D02*
X0011547Y0030705D01*
X0011604Y0030681D02*
X0013673Y0030681D01*
X0015584Y0031472D01*
X0017047Y0032935D01*
X0017839Y0034846D01*
X0017839Y0036915D01*
X0017047Y0038826D01*
X0015584Y0040289D01*
X0014156Y0040881D01*
X0015584Y0041472D01*
X0017047Y0042935D01*
X0017839Y0044846D01*
X0017839Y0046915D01*
X0017047Y0048826D01*
X0015584Y0050289D01*
X0014156Y0050881D01*
X0015584Y0051472D01*
X0017047Y0052935D01*
X0017839Y0054846D01*
X0017839Y0056915D01*
X0017047Y0058826D01*
X0015584Y0060289D01*
X0014156Y0060881D01*
X0015584Y0061472D01*
X0017047Y0062935D01*
X0017839Y0064846D01*
X0017839Y0066915D01*
X0017047Y0068826D01*
X0015584Y0070289D01*
X0014156Y0070881D01*
X0015584Y0071472D01*
X0017047Y0072935D01*
X0017839Y0074846D01*
X0017839Y0076915D01*
X0017047Y0078826D01*
X0015584Y0080289D01*
X0014156Y0080881D01*
X0015584Y0081472D01*
X0017047Y0082935D01*
X0017839Y0084846D01*
X0017839Y0086915D01*
X0017047Y0088826D01*
X0015584Y0090289D01*
X0014156Y0090881D01*
X0015584Y0091472D01*
X0017047Y0092935D01*
X0017839Y0094846D01*
X0017839Y0096915D01*
X0017047Y0098826D01*
X0015584Y0100289D01*
X0014156Y0100881D01*
X0015584Y0101472D01*
X0017047Y0102935D01*
X0017839Y0104846D01*
X0017839Y0106915D01*
X0017047Y0108826D01*
X0015584Y0110289D01*
X0014156Y0110881D01*
X0015584Y0111472D01*
X0017047Y0112935D01*
X0017839Y0114846D01*
X0017839Y0116915D01*
X0017047Y0118826D01*
X0015584Y0120289D01*
X0013837Y0121013D01*
X0014558Y0121247D01*
X0015259Y0121604D01*
X0015896Y0122067D01*
X0016452Y0122623D01*
X0016915Y0123260D01*
X0017272Y0123961D01*
X0017515Y0124710D01*
X0017639Y0125487D01*
X0017639Y0125581D01*
X0012939Y0125581D01*
X0012939Y0126181D01*
X0017639Y0126181D01*
X0017639Y0126274D01*
X0017515Y0127052D01*
X0017272Y0127800D01*
X0016915Y0128501D01*
X0016452Y0129138D01*
X0015896Y0129694D01*
X0015259Y0130157D01*
X0014558Y0130514D01*
X0013809Y0130758D01*
X0013032Y0130881D01*
X0012939Y0130881D01*
X0012939Y0126181D01*
X0012339Y0126181D01*
X0012339Y0130881D01*
X0012245Y0130881D01*
X0011468Y0130758D01*
X0010719Y0130514D01*
X0010018Y0130157D01*
X0009381Y0129694D01*
X0008825Y0129138D01*
X0008362Y0128501D01*
X0008005Y0127800D01*
X0007762Y0127052D01*
X0007639Y0126274D01*
X0007639Y0126181D01*
X0012339Y0126181D01*
X0012339Y0125581D01*
X0007639Y0125581D01*
X0007639Y0125487D01*
X0007762Y0124710D01*
X0008005Y0123961D01*
X0008362Y0123260D01*
X0008825Y0122623D01*
X0009381Y0122067D01*
X0010018Y0121604D01*
X0010719Y0121247D01*
X0011440Y0121013D01*
X0009693Y0120289D01*
X0008230Y0118826D01*
X0007439Y0116915D01*
X0007439Y0114846D01*
X0008230Y0112935D01*
X0009693Y0111472D01*
X0011121Y0110881D01*
X0009693Y0110289D01*
X0008230Y0108826D01*
X0007439Y0106915D01*
X0007439Y0104846D01*
X0008230Y0102935D01*
X0009693Y0101472D01*
X0011121Y0100881D01*
X0009693Y0100289D01*
X0008230Y0098826D01*
X0007439Y0096915D01*
X0007439Y0094846D01*
X0008230Y0092935D01*
X0009693Y0091472D01*
X0011121Y0090881D01*
X0009693Y0090289D01*
X0008230Y0088826D01*
X0007439Y0086915D01*
X0007439Y0084846D01*
X0008230Y0082935D01*
X0009693Y0081472D01*
X0011121Y0080881D01*
X0009693Y0080289D01*
X0008230Y0078826D01*
X0007439Y0076915D01*
X0007439Y0074846D01*
X0008230Y0072935D01*
X0009693Y0071472D01*
X0011121Y0070881D01*
X0009693Y0070289D01*
X0008230Y0068826D01*
X0007439Y0066915D01*
X0007439Y0064846D01*
X0008230Y0062935D01*
X0009693Y0061472D01*
X0011121Y0060881D01*
X0009693Y0060289D01*
X0008230Y0058826D01*
X0007439Y0056915D01*
X0007439Y0054846D01*
X0008230Y0052935D01*
X0009693Y0051472D01*
X0011121Y0050881D01*
X0009693Y0050289D01*
X0008230Y0048826D01*
X0007439Y0046915D01*
X0007439Y0044846D01*
X0008230Y0042935D01*
X0009693Y0041472D01*
X0011121Y0040881D01*
X0009693Y0040289D01*
X0008230Y0038826D01*
X0007439Y0036915D01*
X0007439Y0034846D01*
X0008230Y0032935D01*
X0009693Y0031472D01*
X0011604Y0030681D01*
X0013730Y0030705D02*
X0124515Y0030705D01*
X0124515Y0031303D02*
X0015175Y0031303D01*
X0016013Y0031902D02*
X0114862Y0031902D01*
X0114696Y0031956D02*
X0115444Y0031712D01*
X0116221Y0031589D01*
X0116315Y0031589D01*
X0116315Y0036289D01*
X0116915Y0036289D01*
X0116915Y0031589D01*
X0117008Y0031589D01*
X0117786Y0031712D01*
X0118534Y0031956D01*
X0119236Y0032313D01*
X0119872Y0032776D01*
X0120429Y0033332D01*
X0120891Y0033969D01*
X0121249Y0034670D01*
X0121492Y0035419D01*
X0121615Y0036196D01*
X0121615Y0036289D01*
X0116915Y0036289D01*
X0116915Y0036889D01*
X0121615Y0036889D01*
X0121615Y0036983D01*
X0121492Y0037760D01*
X0121249Y0038509D01*
X0120891Y0039210D01*
X0120429Y0039847D01*
X0119872Y0040403D01*
X0119236Y0040866D01*
X0118534Y0041223D01*
X0117813Y0041457D01*
X0119561Y0042181D01*
X0121023Y0043644D01*
X0121815Y0045555D01*
X0121815Y0047624D01*
X0121023Y0049535D01*
X0119561Y0050998D01*
X0118132Y0051589D01*
X0119561Y0052181D01*
X0121023Y0053644D01*
X0121815Y0055555D01*
X0121815Y0057624D01*
X0121023Y0059535D01*
X0119561Y0060998D01*
X0118132Y0061589D01*
X0119561Y0062181D01*
X0121023Y0063644D01*
X0121815Y0065555D01*
X0121815Y0067624D01*
X0121023Y0069535D01*
X0119561Y0070998D01*
X0118132Y0071589D01*
X0119561Y0072181D01*
X0121023Y0073644D01*
X0121815Y0075555D01*
X0121815Y0077624D01*
X0121023Y0079535D01*
X0119561Y0080998D01*
X0118132Y0081589D01*
X0119561Y0082181D01*
X0121023Y0083644D01*
X0121815Y0085555D01*
X0121815Y0087624D01*
X0121023Y0089535D01*
X0119561Y0090998D01*
X0118132Y0091589D01*
X0119561Y0092181D01*
X0121023Y0093644D01*
X0121815Y0095555D01*
X0121815Y0097624D01*
X0121023Y0099535D01*
X0119561Y0100998D01*
X0118132Y0101589D01*
X0119561Y0102181D01*
X0121023Y0103644D01*
X0121815Y0105555D01*
X0121815Y0107624D01*
X0121023Y0109535D01*
X0119561Y0110998D01*
X0118132Y0111589D01*
X0119561Y0112181D01*
X0121023Y0113644D01*
X0121815Y0115555D01*
X0121815Y0117624D01*
X0121023Y0119535D01*
X0119561Y0120998D01*
X0118132Y0121589D01*
X0119561Y0122181D01*
X0121023Y0123644D01*
X0121815Y0125555D01*
X0121815Y0127624D01*
X0121023Y0129535D01*
X0119561Y0130998D01*
X0117649Y0131789D01*
X0115581Y0131789D01*
X0113669Y0130998D01*
X0112207Y0129535D01*
X0111415Y0127624D01*
X0111415Y0125555D01*
X0112207Y0123644D01*
X0113669Y0122181D01*
X0115098Y0121589D01*
X0113669Y0120998D01*
X0112207Y0119535D01*
X0111415Y0117624D01*
X0111415Y0115555D01*
X0112207Y0113644D01*
X0113669Y0112181D01*
X0115098Y0111589D01*
X0113669Y0110998D01*
X0112207Y0109535D01*
X0111415Y0107624D01*
X0111415Y0105555D01*
X0112207Y0103644D01*
X0113669Y0102181D01*
X0115098Y0101589D01*
X0113669Y0100998D01*
X0112207Y0099535D01*
X0111415Y0097624D01*
X0111415Y0095555D01*
X0112207Y0093644D01*
X0113669Y0092181D01*
X0115098Y0091589D01*
X0113669Y0090998D01*
X0112207Y0089535D01*
X0111415Y0087624D01*
X0111415Y0085555D01*
X0112207Y0083644D01*
X0113669Y0082181D01*
X0115098Y0081589D01*
X0113669Y0080998D01*
X0112207Y0079535D01*
X0111415Y0077624D01*
X0111415Y0075555D01*
X0112207Y0073644D01*
X0113669Y0072181D01*
X0115098Y0071589D01*
X0113669Y0070998D01*
X0112207Y0069535D01*
X0111415Y0067624D01*
X0111415Y0065555D01*
X0112207Y0063644D01*
X0113669Y0062181D01*
X0115098Y0061589D01*
X0113669Y0060998D01*
X0112207Y0059535D01*
X0111415Y0057624D01*
X0111415Y0055555D01*
X0112207Y0053644D01*
X0113669Y0052181D01*
X0115098Y0051589D01*
X0113669Y0050998D01*
X0112207Y0049535D01*
X0111415Y0047624D01*
X0111415Y0045555D01*
X0112207Y0043644D01*
X0113669Y0042181D01*
X0115417Y0041457D01*
X0114696Y0041223D01*
X0113994Y0040866D01*
X0113358Y0040403D01*
X0112801Y0039847D01*
X0112339Y0039210D01*
X0111981Y0038509D01*
X0111738Y0037760D01*
X0111615Y0036983D01*
X0111615Y0036889D01*
X0116315Y0036889D01*
X0116315Y0036289D01*
X0111615Y0036289D01*
X0111615Y0036196D01*
X0111738Y0035419D01*
X0111981Y0034670D01*
X0112339Y0033969D01*
X0112801Y0033332D01*
X0113358Y0032776D01*
X0113994Y0032313D01*
X0114696Y0031956D01*
X0113737Y0032500D02*
X0016612Y0032500D01*
X0017115Y0033099D02*
X0113035Y0033099D01*
X0112536Y0033697D02*
X0032368Y0033697D01*
X0032351Y0033680D02*
X0033107Y0034436D01*
X0033517Y0035425D01*
X0033517Y0036494D01*
X0033107Y0037483D01*
X0032628Y0037962D01*
X0032628Y0059547D01*
X0033107Y0060027D01*
X0033517Y0061015D01*
X0033517Y0062085D01*
X0033107Y0063073D01*
X0032351Y0063830D01*
X0031362Y0064239D01*
X0030293Y0064239D01*
X0029304Y0063830D01*
X0028548Y0063073D01*
X0028139Y0062085D01*
X0028139Y0061015D01*
X0028548Y0060027D01*
X0029028Y0059547D01*
X0029028Y0037962D01*
X0028548Y0037483D01*
X0028139Y0036494D01*
X0028139Y0035425D01*
X0028548Y0034436D01*
X0029304Y0033680D01*
X0030293Y0033270D01*
X0031362Y0033270D01*
X0032351Y0033680D01*
X0032966Y0034296D02*
X0112172Y0034296D01*
X0111908Y0034894D02*
X0033297Y0034894D01*
X0033517Y0035493D02*
X0111726Y0035493D01*
X0111632Y0036091D02*
X0033517Y0036091D01*
X0033436Y0036690D02*
X0116315Y0036690D01*
X0116315Y0036091D02*
X0116915Y0036091D01*
X0116915Y0035493D02*
X0116315Y0035493D01*
X0116315Y0034894D02*
X0116915Y0034894D01*
X0116915Y0034296D02*
X0116315Y0034296D01*
X0116315Y0033697D02*
X0116915Y0033697D01*
X0116915Y0033099D02*
X0116315Y0033099D01*
X0116315Y0032500D02*
X0116915Y0032500D01*
X0116915Y0031902D02*
X0116315Y0031902D01*
X0118368Y0031902D02*
X0124515Y0031902D01*
X0124515Y0032500D02*
X0119493Y0032500D01*
X0120195Y0033099D02*
X0124515Y0033099D01*
X0124515Y0033697D02*
X0120694Y0033697D01*
X0121058Y0034296D02*
X0124515Y0034296D01*
X0124515Y0034894D02*
X0121321Y0034894D01*
X0121504Y0035493D02*
X0124515Y0035493D01*
X0124515Y0036091D02*
X0121598Y0036091D01*
X0121567Y0037288D02*
X0124515Y0037288D01*
X0124515Y0036690D02*
X0116915Y0036690D01*
X0119209Y0040879D02*
X0124515Y0040879D01*
X0124515Y0040281D02*
X0119995Y0040281D01*
X0120548Y0039682D02*
X0124515Y0039682D01*
X0124515Y0039084D02*
X0120956Y0039084D01*
X0121256Y0038485D02*
X0124515Y0038485D01*
X0124515Y0037887D02*
X0121451Y0037887D01*
X0119308Y0042076D02*
X0124515Y0042076D01*
X0124515Y0041478D02*
X0117863Y0041478D01*
X0115367Y0041478D02*
X0032628Y0041478D01*
X0032628Y0042076D02*
X0113922Y0042076D01*
X0113176Y0042675D02*
X0032628Y0042675D01*
X0032628Y0043273D02*
X0081087Y0043273D01*
X0081474Y0043113D02*
X0082544Y0043113D01*
X0083532Y0043522D01*
X0083977Y0043968D01*
X0084422Y0043522D01*
X0085411Y0043113D01*
X0086481Y0043113D01*
X0087469Y0043522D01*
X0088225Y0044279D01*
X0088635Y0045267D01*
X0088635Y0046337D01*
X0088225Y0047325D01*
X0087469Y0048082D01*
X0086481Y0048491D01*
X0085411Y0048491D01*
X0085378Y0048477D01*
X0063506Y0064882D01*
X0061076Y0067312D01*
X0061076Y0067990D01*
X0060666Y0068979D01*
X0059910Y0069735D01*
X0058921Y0070144D01*
X0057852Y0070144D01*
X0056863Y0069735D01*
X0056107Y0068979D01*
X0055698Y0067990D01*
X0055698Y0066921D01*
X0056107Y0065932D01*
X0056552Y0065487D01*
X0056107Y0065042D01*
X0055698Y0064053D01*
X0055698Y0062984D01*
X0056107Y0061995D01*
X0056863Y0061239D01*
X0057852Y0060830D01*
X0058921Y0060830D01*
X0058954Y0060843D01*
X0079320Y0045569D01*
X0079320Y0045267D01*
X0079729Y0044279D01*
X0080485Y0043522D01*
X0081474Y0043113D01*
X0082930Y0043273D02*
X0085024Y0043273D01*
X0084073Y0043872D02*
X0083881Y0043872D01*
X0085946Y0045802D02*
X0062324Y0063519D01*
X0058387Y0067456D01*
X0060037Y0069608D02*
X0112279Y0069608D01*
X0111989Y0069009D02*
X0060636Y0069009D01*
X0060901Y0068411D02*
X0111741Y0068411D01*
X0111493Y0067812D02*
X0091296Y0067812D01*
X0091406Y0067767D02*
X0090418Y0068176D01*
X0089348Y0068176D01*
X0088359Y0067767D01*
X0087603Y0067010D01*
X0087194Y0066022D01*
X0087194Y0064952D01*
X0087603Y0063964D01*
X0088083Y0063484D01*
X0088083Y0062773D01*
X0095068Y0055788D01*
X0095068Y0055110D01*
X0095477Y0054121D01*
X0096234Y0053365D01*
X0097222Y0052956D01*
X0098292Y0052956D01*
X0099280Y0053365D01*
X0100036Y0054121D01*
X0100446Y0055110D01*
X0100446Y0056179D01*
X0100036Y0057168D01*
X0099280Y0057924D01*
X0098292Y0058333D01*
X0097613Y0058333D01*
X0092073Y0063874D01*
X0092162Y0063964D01*
X0092572Y0064952D01*
X0092572Y0066022D01*
X0092162Y0067010D01*
X0091406Y0067767D01*
X0091959Y0067214D02*
X0111415Y0067214D01*
X0111415Y0066615D02*
X0092326Y0066615D01*
X0092572Y0066017D02*
X0111415Y0066017D01*
X0111472Y0065418D02*
X0092572Y0065418D01*
X0092517Y0064820D02*
X0111720Y0064820D01*
X0111967Y0064221D02*
X0092269Y0064221D01*
X0092324Y0063623D02*
X0112228Y0063623D01*
X0112826Y0063024D02*
X0092923Y0063024D01*
X0093521Y0062426D02*
X0113425Y0062426D01*
X0114524Y0061827D02*
X0094120Y0061827D01*
X0094718Y0061229D02*
X0114227Y0061229D01*
X0113302Y0060630D02*
X0095317Y0060630D01*
X0095915Y0060032D02*
X0112703Y0060032D01*
X0112164Y0059433D02*
X0096514Y0059433D01*
X0097112Y0058835D02*
X0111917Y0058835D01*
X0111669Y0058236D02*
X0098527Y0058236D01*
X0099566Y0057638D02*
X0111421Y0057638D01*
X0111415Y0057039D02*
X0100090Y0057039D01*
X0100337Y0056441D02*
X0111415Y0056441D01*
X0111415Y0055842D02*
X0100446Y0055842D01*
X0100446Y0055243D02*
X0111544Y0055243D01*
X0111792Y0054645D02*
X0100253Y0054645D01*
X0099961Y0054046D02*
X0112040Y0054046D01*
X0112402Y0053448D02*
X0099363Y0053448D01*
X0097757Y0051707D02*
X0101694Y0055644D01*
X0101694Y0074954D01*
X0099725Y0076923D01*
X0099725Y0102889D01*
X0111430Y0105518D02*
X0017839Y0105518D01*
X0017839Y0104920D02*
X0111678Y0104920D01*
X0111926Y0104321D02*
X0017621Y0104321D01*
X0017373Y0103723D02*
X0112174Y0103723D01*
X0112726Y0103124D02*
X0017125Y0103124D01*
X0016638Y0102526D02*
X0113325Y0102526D01*
X0114282Y0101927D02*
X0016039Y0101927D01*
X0015238Y0101329D02*
X0114469Y0101329D01*
X0113402Y0100730D02*
X0014519Y0100730D01*
X0015741Y0100132D02*
X0112804Y0100132D01*
X0112206Y0099533D02*
X0073036Y0099533D01*
X0072701Y0099672D02*
X0071631Y0099672D01*
X0070643Y0099263D01*
X0070163Y0098783D01*
X0063547Y0098783D01*
X0038845Y0074081D01*
X0038167Y0074081D01*
X0037178Y0073672D01*
X0036422Y0072916D01*
X0036072Y0072072D01*
X0024689Y0083455D01*
X0023254Y0083455D01*
X0023254Y0083738D01*
X0022844Y0084727D01*
X0022088Y0085483D01*
X0021099Y0085893D01*
X0020030Y0085893D01*
X0019041Y0085483D01*
X0018285Y0084727D01*
X0017876Y0083738D01*
X0017876Y0082669D01*
X0018285Y0081680D01*
X0019041Y0080924D01*
X0020030Y0080515D01*
X0020560Y0080515D01*
X0020265Y0079801D01*
X0020265Y0078732D01*
X0020674Y0077743D01*
X0021430Y0076987D01*
X0022419Y0076578D01*
X0023097Y0076578D01*
X0036512Y0063163D01*
X0036422Y0063073D01*
X0036013Y0062085D01*
X0036013Y0061015D01*
X0036422Y0060027D01*
X0037178Y0059270D01*
X0038167Y0058861D01*
X0039236Y0058861D01*
X0040225Y0059270D01*
X0040981Y0060027D01*
X0041391Y0061015D01*
X0041391Y0062085D01*
X0040981Y0063073D01*
X0040502Y0063553D01*
X0040502Y0064264D01*
X0039776Y0064990D01*
X0040225Y0065176D01*
X0040981Y0065932D01*
X0041391Y0066921D01*
X0041391Y0067990D01*
X0040981Y0068979D01*
X0040536Y0069424D01*
X0040981Y0069869D01*
X0041391Y0070858D01*
X0041391Y0071536D01*
X0065038Y0095183D01*
X0070163Y0095183D01*
X0070332Y0095015D01*
X0069887Y0094569D01*
X0069477Y0093581D01*
X0069477Y0092903D01*
X0058555Y0081981D01*
X0058555Y0081269D01*
X0058076Y0080790D01*
X0057666Y0079801D01*
X0057666Y0078732D01*
X0058076Y0077743D01*
X0058832Y0076987D01*
X0059820Y0076578D01*
X0060890Y0076578D01*
X0061878Y0076987D01*
X0062635Y0077743D01*
X0063044Y0078732D01*
X0063044Y0079801D01*
X0062635Y0080790D01*
X0062545Y0080879D01*
X0072023Y0090357D01*
X0072701Y0090357D01*
X0073689Y0090766D01*
X0074446Y0091523D01*
X0074855Y0092511D01*
X0074855Y0093581D01*
X0074446Y0094569D01*
X0074000Y0095015D01*
X0074446Y0095460D01*
X0074855Y0096448D01*
X0074855Y0097518D01*
X0074446Y0098506D01*
X0073689Y0099263D01*
X0072701Y0099672D01*
X0071296Y0099533D02*
X0016340Y0099533D01*
X0016938Y0098935D02*
X0070315Y0098935D01*
X0072166Y0096983D02*
X0064292Y0096983D01*
X0038702Y0071393D01*
X0040720Y0069608D02*
X0056736Y0069608D01*
X0056138Y0069009D02*
X0040951Y0069009D01*
X0041216Y0068411D02*
X0055872Y0068411D01*
X0055698Y0067812D02*
X0041391Y0067812D01*
X0041391Y0067214D02*
X0055698Y0067214D01*
X0055824Y0066615D02*
X0041264Y0066615D01*
X0041016Y0066017D02*
X0056072Y0066017D01*
X0056484Y0065418D02*
X0040467Y0065418D01*
X0039946Y0064820D02*
X0056015Y0064820D01*
X0055767Y0064221D02*
X0040502Y0064221D01*
X0040502Y0063623D02*
X0055698Y0063623D01*
X0055698Y0063024D02*
X0041001Y0063024D01*
X0041249Y0062426D02*
X0055929Y0062426D01*
X0056275Y0061827D02*
X0041391Y0061827D01*
X0041391Y0061229D02*
X0056888Y0061229D01*
X0059238Y0060630D02*
X0041231Y0060630D01*
X0040983Y0060032D02*
X0060036Y0060032D01*
X0060834Y0059433D02*
X0040387Y0059433D01*
X0038702Y0061550D02*
X0038702Y0063519D01*
X0022954Y0079267D01*
X0022113Y0081656D02*
X0020565Y0083204D01*
X0018079Y0082176D02*
X0016288Y0082176D01*
X0015690Y0081578D02*
X0018387Y0081578D01*
X0018986Y0080979D02*
X0014394Y0080979D01*
X0015362Y0080381D02*
X0020505Y0080381D01*
X0020265Y0079782D02*
X0016091Y0079782D01*
X0016689Y0079184D02*
X0020265Y0079184D01*
X0020325Y0078585D02*
X0017147Y0078585D01*
X0017395Y0077987D02*
X0020573Y0077987D01*
X0021029Y0077388D02*
X0017643Y0077388D01*
X0017839Y0076790D02*
X0021906Y0076790D01*
X0023483Y0076191D02*
X0017839Y0076191D01*
X0017839Y0075593D02*
X0024082Y0075593D01*
X0024680Y0074994D02*
X0017839Y0074994D01*
X0017652Y0074396D02*
X0025279Y0074396D01*
X0025877Y0073797D02*
X0017404Y0073797D01*
X0017156Y0073199D02*
X0026476Y0073199D01*
X0027074Y0072600D02*
X0016712Y0072600D01*
X0016114Y0072002D02*
X0027673Y0072002D01*
X0028271Y0071403D02*
X0015417Y0071403D01*
X0015667Y0070206D02*
X0029468Y0070206D01*
X0030067Y0069608D02*
X0016265Y0069608D01*
X0016864Y0069009D02*
X0030665Y0069009D01*
X0031264Y0068411D02*
X0017219Y0068411D01*
X0017467Y0067812D02*
X0031862Y0067812D01*
X0032461Y0067214D02*
X0017715Y0067214D01*
X0017839Y0066615D02*
X0033059Y0066615D01*
X0033658Y0066017D02*
X0017839Y0066017D01*
X0017839Y0065418D02*
X0034256Y0065418D01*
X0034855Y0064820D02*
X0017828Y0064820D01*
X0017580Y0064221D02*
X0030250Y0064221D01*
X0031405Y0064221D02*
X0035453Y0064221D01*
X0036052Y0063623D02*
X0032558Y0063623D01*
X0033127Y0063024D02*
X0036402Y0063024D01*
X0036154Y0062426D02*
X0033375Y0062426D01*
X0033517Y0061827D02*
X0036013Y0061827D01*
X0036013Y0061229D02*
X0033517Y0061229D01*
X0033357Y0060630D02*
X0036172Y0060630D01*
X0036420Y0060032D02*
X0033109Y0060032D01*
X0032628Y0059433D02*
X0037016Y0059433D01*
X0032628Y0058835D02*
X0061632Y0058835D01*
X0062430Y0058236D02*
X0032628Y0058236D01*
X0032628Y0057638D02*
X0063228Y0057638D01*
X0064026Y0057039D02*
X0032628Y0057039D01*
X0032628Y0056441D02*
X0064824Y0056441D01*
X0065622Y0055842D02*
X0032628Y0055842D01*
X0032628Y0055243D02*
X0066420Y0055243D01*
X0067218Y0054645D02*
X0032628Y0054645D01*
X0032628Y0054046D02*
X0068016Y0054046D01*
X0068814Y0053448D02*
X0032628Y0053448D01*
X0032628Y0052849D02*
X0069612Y0052849D01*
X0070410Y0052251D02*
X0032628Y0052251D01*
X0032628Y0051652D02*
X0071208Y0051652D01*
X0072006Y0051054D02*
X0032628Y0051054D01*
X0032628Y0050455D02*
X0072804Y0050455D01*
X0073602Y0049857D02*
X0032628Y0049857D01*
X0032628Y0049258D02*
X0074400Y0049258D01*
X0075198Y0048660D02*
X0032628Y0048660D01*
X0032628Y0048061D02*
X0075996Y0048061D01*
X0076794Y0047463D02*
X0032628Y0047463D01*
X0032628Y0046864D02*
X0077592Y0046864D01*
X0078390Y0046266D02*
X0032628Y0046266D01*
X0032628Y0045667D02*
X0079188Y0045667D01*
X0079402Y0045069D02*
X0032628Y0045069D01*
X0032628Y0044470D02*
X0079650Y0044470D01*
X0080136Y0043872D02*
X0032628Y0043872D01*
X0032628Y0040879D02*
X0114021Y0040879D01*
X0113235Y0040281D02*
X0032628Y0040281D01*
X0032628Y0039682D02*
X0112682Y0039682D01*
X0112274Y0039084D02*
X0032628Y0039084D01*
X0032628Y0038485D02*
X0111974Y0038485D01*
X0111779Y0037887D02*
X0032703Y0037887D01*
X0033188Y0037288D02*
X0111663Y0037288D01*
X0112577Y0043273D02*
X0086867Y0043273D01*
X0087818Y0043872D02*
X0112112Y0043872D01*
X0111864Y0044470D02*
X0088305Y0044470D01*
X0088552Y0045069D02*
X0111616Y0045069D01*
X0111415Y0045667D02*
X0088635Y0045667D01*
X0088635Y0046266D02*
X0111415Y0046266D01*
X0111415Y0046864D02*
X0088416Y0046864D01*
X0088088Y0047463D02*
X0111415Y0047463D01*
X0111596Y0048061D02*
X0087489Y0048061D01*
X0085135Y0048660D02*
X0111844Y0048660D01*
X0112092Y0049258D02*
X0084337Y0049258D01*
X0083539Y0049857D02*
X0112529Y0049857D01*
X0113127Y0050455D02*
X0082741Y0050455D01*
X0081943Y0051054D02*
X0113805Y0051054D01*
X0113599Y0052251D02*
X0080347Y0052251D01*
X0079549Y0052849D02*
X0113001Y0052849D01*
X0114946Y0051652D02*
X0081145Y0051652D01*
X0078751Y0053448D02*
X0096150Y0053448D01*
X0095552Y0054046D02*
X0077953Y0054046D01*
X0077155Y0054645D02*
X0095260Y0054645D01*
X0095068Y0055243D02*
X0076357Y0055243D01*
X0075559Y0055842D02*
X0095014Y0055842D01*
X0094415Y0056441D02*
X0074761Y0056441D01*
X0073963Y0057039D02*
X0093817Y0057039D01*
X0093218Y0057638D02*
X0073165Y0057638D01*
X0072367Y0058236D02*
X0092620Y0058236D01*
X0092021Y0058835D02*
X0071569Y0058835D01*
X0070771Y0059433D02*
X0091423Y0059433D01*
X0090824Y0060032D02*
X0069973Y0060032D01*
X0069175Y0060630D02*
X0090226Y0060630D01*
X0089627Y0061229D02*
X0068377Y0061229D01*
X0067579Y0061827D02*
X0089028Y0061827D01*
X0088430Y0062426D02*
X0066781Y0062426D01*
X0065983Y0063024D02*
X0088083Y0063024D01*
X0087944Y0063623D02*
X0065185Y0063623D01*
X0064387Y0064221D02*
X0087496Y0064221D01*
X0087249Y0064820D02*
X0063589Y0064820D01*
X0062970Y0065418D02*
X0087194Y0065418D01*
X0087194Y0066017D02*
X0062371Y0066017D01*
X0061772Y0066615D02*
X0087439Y0066615D01*
X0087807Y0067214D02*
X0061174Y0067214D01*
X0061076Y0067812D02*
X0088470Y0067812D01*
X0089883Y0065487D02*
X0089883Y0063519D01*
X0097757Y0055644D01*
X0101694Y0074954D02*
X0101694Y0075330D01*
X0111415Y0075593D02*
X0045448Y0075593D01*
X0046046Y0076191D02*
X0111415Y0076191D01*
X0111415Y0076790D02*
X0061403Y0076790D01*
X0062280Y0077388D02*
X0111415Y0077388D01*
X0111565Y0077987D02*
X0062736Y0077987D01*
X0062984Y0078585D02*
X0111813Y0078585D01*
X0112061Y0079184D02*
X0063044Y0079184D01*
X0063044Y0079782D02*
X0112454Y0079782D01*
X0113053Y0080381D02*
X0062804Y0080381D01*
X0062645Y0080979D02*
X0113651Y0080979D01*
X0113680Y0082176D02*
X0063842Y0082176D01*
X0063244Y0081578D02*
X0115070Y0081578D01*
X0113075Y0082775D02*
X0064441Y0082775D01*
X0065039Y0083374D02*
X0112477Y0083374D01*
X0112071Y0083972D02*
X0065638Y0083972D01*
X0066236Y0084571D02*
X0111823Y0084571D01*
X0111575Y0085169D02*
X0066835Y0085169D01*
X0067433Y0085768D02*
X0111415Y0085768D01*
X0111415Y0086366D02*
X0068032Y0086366D01*
X0068630Y0086965D02*
X0111415Y0086965D01*
X0111415Y0087563D02*
X0069229Y0087563D01*
X0069827Y0088162D02*
X0111638Y0088162D01*
X0111886Y0088760D02*
X0070426Y0088760D01*
X0071024Y0089359D02*
X0112134Y0089359D01*
X0112629Y0089957D02*
X0071623Y0089957D01*
X0073180Y0090556D02*
X0113227Y0090556D01*
X0114047Y0091154D02*
X0074077Y0091154D01*
X0074541Y0091753D02*
X0114704Y0091753D01*
X0113499Y0092351D02*
X0074789Y0092351D01*
X0074855Y0092950D02*
X0112901Y0092950D01*
X0112302Y0093548D02*
X0074855Y0093548D01*
X0074621Y0094147D02*
X0111998Y0094147D01*
X0111750Y0094745D02*
X0074270Y0094745D01*
X0074330Y0095344D02*
X0111502Y0095344D01*
X0111415Y0095942D02*
X0074646Y0095942D01*
X0074855Y0096541D02*
X0111415Y0096541D01*
X0111415Y0097139D02*
X0074855Y0097139D01*
X0074764Y0097738D02*
X0111462Y0097738D01*
X0111710Y0098336D02*
X0074516Y0098336D01*
X0074017Y0098935D02*
X0111958Y0098935D01*
X0111415Y0106117D02*
X0017839Y0106117D01*
X0017839Y0106715D02*
X0111415Y0106715D01*
X0111415Y0107314D02*
X0017673Y0107314D01*
X0017425Y0107912D02*
X0111535Y0107912D01*
X0111782Y0108511D02*
X0017178Y0108511D01*
X0016764Y0109109D02*
X0112030Y0109109D01*
X0112380Y0109708D02*
X0016165Y0109708D01*
X0015542Y0110307D02*
X0112978Y0110307D01*
X0113577Y0110905D02*
X0014214Y0110905D01*
X0015615Y0111504D02*
X0114891Y0111504D01*
X0113860Y0112102D02*
X0016214Y0112102D01*
X0016812Y0112701D02*
X0113150Y0112701D01*
X0112551Y0113299D02*
X0017198Y0113299D01*
X0017446Y0113898D02*
X0112101Y0113898D01*
X0111854Y0114496D02*
X0017693Y0114496D01*
X0017839Y0115095D02*
X0111606Y0115095D01*
X0111415Y0115693D02*
X0017839Y0115693D01*
X0017839Y0116292D02*
X0111415Y0116292D01*
X0111415Y0116890D02*
X0017839Y0116890D01*
X0017601Y0117489D02*
X0111415Y0117489D01*
X0111607Y0118087D02*
X0017353Y0118087D01*
X0017105Y0118686D02*
X0111855Y0118686D01*
X0112103Y0119284D02*
X0016589Y0119284D01*
X0015990Y0119883D02*
X0112554Y0119883D01*
X0113153Y0120481D02*
X0015120Y0120481D01*
X0015361Y0121678D02*
X0114883Y0121678D01*
X0113867Y0121080D02*
X0014043Y0121080D01*
X0016106Y0122277D02*
X0113574Y0122277D01*
X0112975Y0122875D02*
X0016635Y0122875D01*
X0017024Y0123474D02*
X0112377Y0123474D01*
X0112029Y0124072D02*
X0017308Y0124072D01*
X0017503Y0124671D02*
X0111781Y0124671D01*
X0111533Y0125269D02*
X0017604Y0125269D01*
X0017608Y0126466D02*
X0111415Y0126466D01*
X0111415Y0125868D02*
X0012939Y0125868D01*
X0012939Y0126466D02*
X0012339Y0126466D01*
X0012339Y0125868D02*
X0003715Y0125868D01*
X0003715Y0126466D02*
X0007669Y0126466D01*
X0007766Y0127065D02*
X0003715Y0127065D01*
X0003715Y0127663D02*
X0007960Y0127663D01*
X0008240Y0128262D02*
X0003715Y0128262D01*
X0003715Y0128860D02*
X0008623Y0128860D01*
X0009146Y0129459D02*
X0003715Y0129459D01*
X0003715Y0130057D02*
X0009881Y0130057D01*
X0011155Y0130656D02*
X0003715Y0130656D01*
X0003715Y0131254D02*
X0114289Y0131254D01*
X0113328Y0130656D02*
X0014122Y0130656D01*
X0012939Y0130656D02*
X0012339Y0130656D01*
X0012339Y0130057D02*
X0012939Y0130057D01*
X0012939Y0129459D02*
X0012339Y0129459D01*
X0012339Y0128860D02*
X0012939Y0128860D01*
X0012939Y0128262D02*
X0012339Y0128262D01*
X0012339Y0127663D02*
X0012939Y0127663D01*
X0012939Y0127065D02*
X0012339Y0127065D01*
X0015396Y0130057D02*
X0112729Y0130057D01*
X0112175Y0129459D02*
X0016131Y0129459D01*
X0016654Y0128860D02*
X0111927Y0128860D01*
X0111679Y0128262D02*
X0017037Y0128262D01*
X0017317Y0127663D02*
X0111431Y0127663D01*
X0111415Y0127065D02*
X0017511Y0127065D01*
X0011234Y0121080D02*
X0003715Y0121080D01*
X0003715Y0121678D02*
X0009916Y0121678D01*
X0009171Y0122277D02*
X0003715Y0122277D01*
X0003715Y0122875D02*
X0008642Y0122875D01*
X0008253Y0123474D02*
X0003715Y0123474D01*
X0003715Y0124072D02*
X0007969Y0124072D01*
X0007774Y0124671D02*
X0003715Y0124671D01*
X0003715Y0125269D02*
X0007673Y0125269D01*
X0010157Y0120481D02*
X0003715Y0120481D01*
X0003715Y0119883D02*
X0009287Y0119883D01*
X0008688Y0119284D02*
X0003715Y0119284D01*
X0003715Y0118686D02*
X0008172Y0118686D01*
X0007924Y0118087D02*
X0003715Y0118087D01*
X0003715Y0117489D02*
X0007676Y0117489D01*
X0007439Y0116890D02*
X0003715Y0116890D01*
X0003715Y0116292D02*
X0007439Y0116292D01*
X0007439Y0115693D02*
X0003715Y0115693D01*
X0003715Y0115095D02*
X0007439Y0115095D01*
X0007584Y0114496D02*
X0003715Y0114496D01*
X0003715Y0113898D02*
X0007832Y0113898D01*
X0008079Y0113299D02*
X0003715Y0113299D01*
X0003715Y0112701D02*
X0008465Y0112701D01*
X0009063Y0112102D02*
X0003715Y0112102D01*
X0003715Y0111504D02*
X0009662Y0111504D01*
X0009735Y0110307D02*
X0003715Y0110307D01*
X0003715Y0110905D02*
X0011063Y0110905D01*
X0009112Y0109708D02*
X0003715Y0109708D01*
X0003715Y0109109D02*
X0008513Y0109109D01*
X0008100Y0108511D02*
X0003715Y0108511D01*
X0003715Y0107912D02*
X0007852Y0107912D01*
X0007604Y0107314D02*
X0003715Y0107314D01*
X0003715Y0106715D02*
X0007439Y0106715D01*
X0007439Y0106117D02*
X0003715Y0106117D01*
X0003715Y0105518D02*
X0007439Y0105518D01*
X0007439Y0104920D02*
X0003715Y0104920D01*
X0003715Y0104321D02*
X0007656Y0104321D01*
X0007904Y0103723D02*
X0003715Y0103723D01*
X0003715Y0103124D02*
X0008152Y0103124D01*
X0008639Y0102526D02*
X0003715Y0102526D01*
X0003715Y0101927D02*
X0009238Y0101927D01*
X0010039Y0101329D02*
X0003715Y0101329D01*
X0003715Y0100730D02*
X0010758Y0100730D01*
X0009536Y0100132D02*
X0003715Y0100132D01*
X0003715Y0099533D02*
X0008937Y0099533D01*
X0008339Y0098935D02*
X0003715Y0098935D01*
X0003715Y0098336D02*
X0008027Y0098336D01*
X0007779Y0097738D02*
X0003715Y0097738D01*
X0003715Y0097139D02*
X0007531Y0097139D01*
X0007439Y0096541D02*
X0003715Y0096541D01*
X0003715Y0095942D02*
X0007439Y0095942D01*
X0007439Y0095344D02*
X0003715Y0095344D01*
X0003715Y0094745D02*
X0007480Y0094745D01*
X0007728Y0094147D02*
X0003715Y0094147D01*
X0003715Y0093548D02*
X0007976Y0093548D01*
X0008224Y0092950D02*
X0003715Y0092950D01*
X0003715Y0092351D02*
X0008814Y0092351D01*
X0009413Y0091753D02*
X0003715Y0091753D01*
X0003715Y0091154D02*
X0010461Y0091154D01*
X0010337Y0090556D02*
X0003715Y0090556D01*
X0003715Y0089957D02*
X0009361Y0089957D01*
X0008763Y0089359D02*
X0003715Y0089359D01*
X0003715Y0088760D02*
X0008203Y0088760D01*
X0007955Y0088162D02*
X0003715Y0088162D01*
X0003715Y0087563D02*
X0007707Y0087563D01*
X0007459Y0086965D02*
X0003715Y0086965D01*
X0003715Y0086366D02*
X0007439Y0086366D01*
X0007439Y0085768D02*
X0003715Y0085768D01*
X0003715Y0085169D02*
X0007439Y0085169D01*
X0007553Y0084571D02*
X0003715Y0084571D01*
X0003715Y0083972D02*
X0007801Y0083972D01*
X0008049Y0083374D02*
X0003715Y0083374D01*
X0003715Y0082775D02*
X0008390Y0082775D01*
X0008989Y0082176D02*
X0003715Y0082176D01*
X0003715Y0081578D02*
X0009587Y0081578D01*
X0009915Y0080381D02*
X0003715Y0080381D01*
X0003715Y0080979D02*
X0010883Y0080979D01*
X0009186Y0079782D02*
X0003715Y0079782D01*
X0003715Y0079184D02*
X0008588Y0079184D01*
X0008130Y0078585D02*
X0003715Y0078585D01*
X0003715Y0077987D02*
X0007883Y0077987D01*
X0007635Y0077388D02*
X0003715Y0077388D01*
X0003715Y0076790D02*
X0007439Y0076790D01*
X0007439Y0076191D02*
X0003715Y0076191D01*
X0003715Y0075593D02*
X0007439Y0075593D01*
X0007439Y0074994D02*
X0003715Y0074994D01*
X0003715Y0074396D02*
X0007625Y0074396D01*
X0007873Y0073797D02*
X0003715Y0073797D01*
X0003715Y0073199D02*
X0008121Y0073199D01*
X0008565Y0072600D02*
X0003715Y0072600D01*
X0003715Y0072002D02*
X0009164Y0072002D01*
X0009860Y0071403D02*
X0003715Y0071403D01*
X0003715Y0070805D02*
X0010938Y0070805D01*
X0009610Y0070206D02*
X0003715Y0070206D01*
X0003715Y0069608D02*
X0009012Y0069608D01*
X0008413Y0069009D02*
X0003715Y0069009D01*
X0003715Y0068411D02*
X0008058Y0068411D01*
X0007810Y0067812D02*
X0003715Y0067812D01*
X0003715Y0067214D02*
X0007562Y0067214D01*
X0007439Y0066615D02*
X0003715Y0066615D01*
X0003715Y0066017D02*
X0007439Y0066017D01*
X0007439Y0065418D02*
X0003715Y0065418D01*
X0003715Y0064820D02*
X0007450Y0064820D01*
X0007698Y0064221D02*
X0003715Y0064221D01*
X0003715Y0063623D02*
X0007945Y0063623D01*
X0008193Y0063024D02*
X0003715Y0063024D01*
X0003715Y0062426D02*
X0008740Y0062426D01*
X0009338Y0061827D02*
X0003715Y0061827D01*
X0003715Y0061229D02*
X0010282Y0061229D01*
X0010516Y0060630D02*
X0003715Y0060630D01*
X0003715Y0060032D02*
X0009436Y0060032D01*
X0008837Y0059433D02*
X0003715Y0059433D01*
X0003715Y0058835D02*
X0008239Y0058835D01*
X0007986Y0058236D02*
X0003715Y0058236D01*
X0003715Y0057638D02*
X0007738Y0057638D01*
X0007490Y0057039D02*
X0003715Y0057039D01*
X0003715Y0056441D02*
X0007439Y0056441D01*
X0007439Y0055842D02*
X0003715Y0055842D01*
X0003715Y0055243D02*
X0007439Y0055243D01*
X0007522Y0054645D02*
X0003715Y0054645D01*
X0003715Y0054046D02*
X0007770Y0054046D01*
X0008018Y0053448D02*
X0003715Y0053448D01*
X0003715Y0052849D02*
X0008316Y0052849D01*
X0008914Y0052251D02*
X0003715Y0052251D01*
X0003715Y0051652D02*
X0009513Y0051652D01*
X0010095Y0050455D02*
X0003715Y0050455D01*
X0003715Y0049857D02*
X0009261Y0049857D01*
X0008662Y0049258D02*
X0003715Y0049258D01*
X0003715Y0048660D02*
X0008161Y0048660D01*
X0007913Y0048061D02*
X0003715Y0048061D01*
X0003715Y0047463D02*
X0007665Y0047463D01*
X0007439Y0046864D02*
X0003715Y0046864D01*
X0003715Y0046266D02*
X0007439Y0046266D01*
X0007439Y0045667D02*
X0003715Y0045667D01*
X0003715Y0045069D02*
X0007439Y0045069D01*
X0007594Y0044470D02*
X0003715Y0044470D01*
X0003715Y0043872D02*
X0007842Y0043872D01*
X0008090Y0043273D02*
X0003715Y0043273D01*
X0003715Y0042675D02*
X0008491Y0042675D01*
X0009089Y0042076D02*
X0003715Y0042076D01*
X0003715Y0041478D02*
X0009688Y0041478D01*
X0009685Y0040281D02*
X0003715Y0040281D01*
X0003715Y0040879D02*
X0011118Y0040879D01*
X0009086Y0039682D02*
X0003715Y0039682D01*
X0003715Y0039084D02*
X0008488Y0039084D01*
X0008089Y0038485D02*
X0003715Y0038485D01*
X0003715Y0037887D02*
X0007841Y0037887D01*
X0007593Y0037288D02*
X0003715Y0037288D01*
X0003715Y0036690D02*
X0007439Y0036690D01*
X0007439Y0036091D02*
X0003715Y0036091D01*
X0003715Y0035493D02*
X0007439Y0035493D01*
X0007439Y0034894D02*
X0003715Y0034894D01*
X0003715Y0034296D02*
X0007667Y0034296D01*
X0007915Y0033697D02*
X0003715Y0033697D01*
X0003715Y0033099D02*
X0008163Y0033099D01*
X0008665Y0032500D02*
X0003715Y0032500D01*
X0003715Y0031902D02*
X0009264Y0031902D01*
X0010102Y0031303D02*
X0003715Y0031303D01*
X0014159Y0040879D02*
X0029028Y0040879D01*
X0029028Y0040281D02*
X0015592Y0040281D01*
X0016191Y0039682D02*
X0029028Y0039682D01*
X0029028Y0039084D02*
X0016790Y0039084D01*
X0017188Y0038485D02*
X0029028Y0038485D01*
X0028952Y0037887D02*
X0017436Y0037887D01*
X0017684Y0037288D02*
X0028467Y0037288D01*
X0028219Y0036690D02*
X0017839Y0036690D01*
X0017839Y0036091D02*
X0028139Y0036091D01*
X0028139Y0035493D02*
X0017839Y0035493D01*
X0017839Y0034894D02*
X0028358Y0034894D01*
X0028689Y0034296D02*
X0017610Y0034296D01*
X0017363Y0033697D02*
X0029287Y0033697D01*
X0030828Y0035959D02*
X0030828Y0061550D01*
X0028298Y0060630D02*
X0014761Y0060630D01*
X0014996Y0061229D02*
X0028139Y0061229D01*
X0028139Y0061827D02*
X0015939Y0061827D01*
X0016537Y0062426D02*
X0028280Y0062426D01*
X0028528Y0063024D02*
X0017084Y0063024D01*
X0017332Y0063623D02*
X0029097Y0063623D01*
X0028546Y0060032D02*
X0015842Y0060032D01*
X0016440Y0059433D02*
X0029028Y0059433D01*
X0029028Y0058835D02*
X0017039Y0058835D01*
X0017291Y0058236D02*
X0029028Y0058236D01*
X0029028Y0057638D02*
X0017539Y0057638D01*
X0017787Y0057039D02*
X0029028Y0057039D01*
X0029028Y0056441D02*
X0017839Y0056441D01*
X0017839Y0055842D02*
X0029028Y0055842D01*
X0029028Y0055243D02*
X0017839Y0055243D01*
X0017755Y0054645D02*
X0029028Y0054645D01*
X0029028Y0054046D02*
X0017507Y0054046D01*
X0017259Y0053448D02*
X0029028Y0053448D01*
X0029028Y0052849D02*
X0016961Y0052849D01*
X0016363Y0052251D02*
X0029028Y0052251D01*
X0029028Y0051652D02*
X0015764Y0051652D01*
X0015183Y0050455D02*
X0029028Y0050455D01*
X0029028Y0049857D02*
X0016016Y0049857D01*
X0016615Y0049258D02*
X0029028Y0049258D01*
X0029028Y0048660D02*
X0017116Y0048660D01*
X0017364Y0048061D02*
X0029028Y0048061D01*
X0029028Y0047463D02*
X0017612Y0047463D01*
X0017839Y0046864D02*
X0029028Y0046864D01*
X0029028Y0046266D02*
X0017839Y0046266D01*
X0017839Y0045667D02*
X0029028Y0045667D01*
X0029028Y0045069D02*
X0017839Y0045069D01*
X0017683Y0044470D02*
X0029028Y0044470D01*
X0029028Y0043872D02*
X0017435Y0043872D01*
X0017187Y0043273D02*
X0029028Y0043273D01*
X0029028Y0042675D02*
X0016787Y0042675D01*
X0016188Y0042076D02*
X0029028Y0042076D01*
X0029028Y0041478D02*
X0015590Y0041478D01*
X0014574Y0051054D02*
X0029028Y0051054D01*
X0038143Y0067456D02*
X0023943Y0081656D01*
X0022113Y0081656D01*
X0023157Y0083972D02*
X0048735Y0083972D01*
X0048137Y0083374D02*
X0024771Y0083374D01*
X0025369Y0082775D02*
X0047538Y0082775D01*
X0046940Y0082176D02*
X0025968Y0082176D01*
X0026566Y0081578D02*
X0046341Y0081578D01*
X0045743Y0080979D02*
X0027165Y0080979D01*
X0027763Y0080381D02*
X0045144Y0080381D01*
X0044546Y0079782D02*
X0028362Y0079782D01*
X0028960Y0079184D02*
X0043947Y0079184D01*
X0043349Y0078585D02*
X0029559Y0078585D01*
X0030157Y0077987D02*
X0042750Y0077987D01*
X0042152Y0077388D02*
X0030756Y0077388D01*
X0031354Y0076790D02*
X0041553Y0076790D01*
X0040955Y0076191D02*
X0031953Y0076191D01*
X0032551Y0075593D02*
X0040356Y0075593D01*
X0039758Y0074994D02*
X0033150Y0074994D01*
X0033748Y0074396D02*
X0039159Y0074396D01*
X0037481Y0073797D02*
X0034347Y0073797D01*
X0034945Y0073199D02*
X0036705Y0073199D01*
X0036291Y0072600D02*
X0035544Y0072600D01*
X0038143Y0067456D02*
X0038702Y0067456D01*
X0041121Y0070206D02*
X0112878Y0070206D01*
X0113476Y0070805D02*
X0041369Y0070805D01*
X0041391Y0071403D02*
X0114649Y0071403D01*
X0114102Y0072002D02*
X0041856Y0072002D01*
X0042455Y0072600D02*
X0113250Y0072600D01*
X0112652Y0073199D02*
X0043053Y0073199D01*
X0043652Y0073797D02*
X0112143Y0073797D01*
X0111895Y0074396D02*
X0044250Y0074396D01*
X0044849Y0074994D02*
X0111647Y0074994D01*
X0118160Y0081578D02*
X0124515Y0081578D01*
X0124515Y0082176D02*
X0119550Y0082176D01*
X0120155Y0082775D02*
X0124515Y0082775D01*
X0124515Y0083374D02*
X0120753Y0083374D01*
X0121159Y0083972D02*
X0124515Y0083972D01*
X0124515Y0084571D02*
X0121407Y0084571D01*
X0121655Y0085169D02*
X0124515Y0085169D01*
X0124515Y0085768D02*
X0121815Y0085768D01*
X0121815Y0086366D02*
X0124515Y0086366D01*
X0124515Y0086965D02*
X0121815Y0086965D01*
X0121815Y0087563D02*
X0124515Y0087563D01*
X0124515Y0088162D02*
X0121592Y0088162D01*
X0121344Y0088760D02*
X0124515Y0088760D01*
X0124515Y0089359D02*
X0121096Y0089359D01*
X0120601Y0089957D02*
X0124515Y0089957D01*
X0124515Y0090556D02*
X0120003Y0090556D01*
X0119183Y0091154D02*
X0124515Y0091154D01*
X0124515Y0091753D02*
X0118526Y0091753D01*
X0119731Y0092351D02*
X0124515Y0092351D01*
X0124515Y0092950D02*
X0120329Y0092950D01*
X0120928Y0093548D02*
X0124515Y0093548D01*
X0124515Y0094147D02*
X0121232Y0094147D01*
X0121480Y0094745D02*
X0124515Y0094745D01*
X0124515Y0095344D02*
X0121727Y0095344D01*
X0121815Y0095942D02*
X0124515Y0095942D01*
X0124515Y0096541D02*
X0121815Y0096541D01*
X0121815Y0097139D02*
X0124515Y0097139D01*
X0124515Y0097738D02*
X0121768Y0097738D01*
X0121520Y0098336D02*
X0124515Y0098336D01*
X0124515Y0098935D02*
X0121272Y0098935D01*
X0121024Y0099533D02*
X0124515Y0099533D01*
X0124515Y0100132D02*
X0120426Y0100132D01*
X0119828Y0100730D02*
X0124515Y0100730D01*
X0124515Y0101329D02*
X0118761Y0101329D01*
X0118948Y0101927D02*
X0124515Y0101927D01*
X0124515Y0102526D02*
X0119905Y0102526D01*
X0120504Y0103124D02*
X0124515Y0103124D01*
X0124515Y0103723D02*
X0121056Y0103723D01*
X0121304Y0104321D02*
X0124515Y0104321D01*
X0124515Y0104920D02*
X0121552Y0104920D01*
X0121800Y0105518D02*
X0124515Y0105518D01*
X0124515Y0106117D02*
X0121815Y0106117D01*
X0121815Y0106715D02*
X0124515Y0106715D01*
X0124515Y0107314D02*
X0121815Y0107314D01*
X0121695Y0107912D02*
X0124515Y0107912D01*
X0124515Y0108511D02*
X0121447Y0108511D01*
X0121200Y0109109D02*
X0124515Y0109109D01*
X0124515Y0109708D02*
X0120850Y0109708D01*
X0120252Y0110307D02*
X0124515Y0110307D01*
X0124515Y0110905D02*
X0119653Y0110905D01*
X0119370Y0112102D02*
X0124515Y0112102D01*
X0124515Y0111504D02*
X0118339Y0111504D01*
X0120080Y0112701D02*
X0124515Y0112701D01*
X0124515Y0113299D02*
X0120679Y0113299D01*
X0121128Y0113898D02*
X0124515Y0113898D01*
X0124515Y0114496D02*
X0121376Y0114496D01*
X0121624Y0115095D02*
X0124515Y0115095D01*
X0124515Y0115693D02*
X0121815Y0115693D01*
X0121815Y0116292D02*
X0124515Y0116292D01*
X0124515Y0116890D02*
X0121815Y0116890D01*
X0121815Y0117489D02*
X0124515Y0117489D01*
X0124515Y0118087D02*
X0121623Y0118087D01*
X0121375Y0118686D02*
X0124515Y0118686D01*
X0124515Y0119284D02*
X0121127Y0119284D01*
X0120676Y0119883D02*
X0124515Y0119883D01*
X0124515Y0120481D02*
X0120077Y0120481D01*
X0119363Y0121080D02*
X0124515Y0121080D01*
X0124515Y0121678D02*
X0118347Y0121678D01*
X0119656Y0122277D02*
X0124515Y0122277D01*
X0124515Y0122875D02*
X0120255Y0122875D01*
X0120853Y0123474D02*
X0124515Y0123474D01*
X0124515Y0124072D02*
X0121201Y0124072D01*
X0121449Y0124671D02*
X0124515Y0124671D01*
X0124515Y0125269D02*
X0121697Y0125269D01*
X0121815Y0125868D02*
X0124515Y0125868D01*
X0124515Y0126466D02*
X0121815Y0126466D01*
X0121815Y0127065D02*
X0124515Y0127065D01*
X0124515Y0127663D02*
X0121799Y0127663D01*
X0121551Y0128262D02*
X0124515Y0128262D01*
X0124515Y0128860D02*
X0121303Y0128860D01*
X0121055Y0129459D02*
X0124515Y0129459D01*
X0124515Y0130057D02*
X0120501Y0130057D01*
X0119902Y0130656D02*
X0124515Y0130656D01*
X0124515Y0131254D02*
X0118941Y0131254D01*
X0124515Y0131853D02*
X0003715Y0131853D01*
X0003715Y0132451D02*
X0124515Y0132451D01*
X0124515Y0133050D02*
X0003715Y0133050D01*
X0003715Y0133648D02*
X0124515Y0133648D01*
X0124515Y0134247D02*
X0003715Y0134247D01*
X0003715Y0134845D02*
X0124515Y0134845D01*
X0124515Y0135444D02*
X0003715Y0135444D01*
X0003715Y0136043D02*
X0124515Y0136043D01*
X0124515Y0136641D02*
X0003715Y0136641D01*
X0003715Y0137240D02*
X0124515Y0137240D01*
X0124515Y0137838D02*
X0003715Y0137838D01*
X0003715Y0138437D02*
X0124515Y0138437D01*
X0124515Y0139035D02*
X0003715Y0139035D01*
X0003715Y0139634D02*
X0124515Y0139634D01*
X0124515Y0140232D02*
X0003715Y0140232D01*
X0003715Y0140831D02*
X0124515Y0140831D01*
X0124515Y0141429D02*
X0003715Y0141429D01*
X0003715Y0142028D02*
X0124515Y0142028D01*
X0124515Y0142626D02*
X0003715Y0142626D01*
X0003715Y0143225D02*
X0124515Y0143225D01*
X0124515Y0143823D02*
X0003715Y0143823D01*
X0003715Y0144422D02*
X0124515Y0144422D01*
X0124515Y0080979D02*
X0119579Y0080979D01*
X0120177Y0080381D02*
X0124515Y0080381D01*
X0124515Y0079782D02*
X0120776Y0079782D01*
X0121169Y0079184D02*
X0124515Y0079184D01*
X0124515Y0078585D02*
X0121417Y0078585D01*
X0121665Y0077987D02*
X0124515Y0077987D01*
X0124515Y0077388D02*
X0121815Y0077388D01*
X0121815Y0076790D02*
X0124515Y0076790D01*
X0124515Y0076191D02*
X0121815Y0076191D01*
X0121815Y0075593D02*
X0124515Y0075593D01*
X0124515Y0074994D02*
X0121583Y0074994D01*
X0121335Y0074396D02*
X0124515Y0074396D01*
X0124515Y0073797D02*
X0121087Y0073797D01*
X0120578Y0073199D02*
X0124515Y0073199D01*
X0124515Y0072600D02*
X0119980Y0072600D01*
X0119128Y0072002D02*
X0124515Y0072002D01*
X0124515Y0071403D02*
X0118581Y0071403D01*
X0119753Y0070805D02*
X0124515Y0070805D01*
X0124515Y0070206D02*
X0120352Y0070206D01*
X0120950Y0069608D02*
X0124515Y0069608D01*
X0124515Y0069009D02*
X0121241Y0069009D01*
X0121489Y0068411D02*
X0124515Y0068411D01*
X0124515Y0067812D02*
X0121737Y0067812D01*
X0121815Y0067214D02*
X0124515Y0067214D01*
X0124515Y0066615D02*
X0121815Y0066615D01*
X0121815Y0066017D02*
X0124515Y0066017D01*
X0124515Y0065418D02*
X0121758Y0065418D01*
X0121510Y0064820D02*
X0124515Y0064820D01*
X0124515Y0064221D02*
X0121262Y0064221D01*
X0121002Y0063623D02*
X0124515Y0063623D01*
X0124515Y0063024D02*
X0120404Y0063024D01*
X0119805Y0062426D02*
X0124515Y0062426D01*
X0124515Y0061827D02*
X0118706Y0061827D01*
X0119003Y0061229D02*
X0124515Y0061229D01*
X0124515Y0060630D02*
X0119928Y0060630D01*
X0120527Y0060032D02*
X0124515Y0060032D01*
X0124515Y0059433D02*
X0121066Y0059433D01*
X0121313Y0058835D02*
X0124515Y0058835D01*
X0124515Y0058236D02*
X0121561Y0058236D01*
X0121809Y0057638D02*
X0124515Y0057638D01*
X0124515Y0057039D02*
X0121815Y0057039D01*
X0121815Y0056441D02*
X0124515Y0056441D01*
X0124515Y0055842D02*
X0121815Y0055842D01*
X0121686Y0055243D02*
X0124515Y0055243D01*
X0124515Y0054645D02*
X0121438Y0054645D01*
X0121190Y0054046D02*
X0124515Y0054046D01*
X0124515Y0053448D02*
X0120827Y0053448D01*
X0120229Y0052849D02*
X0124515Y0052849D01*
X0124515Y0052251D02*
X0119630Y0052251D01*
X0119425Y0051054D02*
X0124515Y0051054D01*
X0124515Y0051652D02*
X0118284Y0051652D01*
X0120103Y0050455D02*
X0124515Y0050455D01*
X0124515Y0049857D02*
X0120701Y0049857D01*
X0121138Y0049258D02*
X0124515Y0049258D01*
X0124515Y0048660D02*
X0121386Y0048660D01*
X0121634Y0048061D02*
X0124515Y0048061D01*
X0124515Y0047463D02*
X0121815Y0047463D01*
X0121815Y0046864D02*
X0124515Y0046864D01*
X0124515Y0046266D02*
X0121815Y0046266D01*
X0121815Y0045667D02*
X0124515Y0045667D01*
X0124515Y0045069D02*
X0121614Y0045069D01*
X0121366Y0044470D02*
X0124515Y0044470D01*
X0124515Y0043872D02*
X0121118Y0043872D01*
X0120653Y0043273D02*
X0124515Y0043273D01*
X0124515Y0042675D02*
X0120054Y0042675D01*
X0082009Y0045802D02*
X0058387Y0063519D01*
X0059308Y0076790D02*
X0046645Y0076790D01*
X0047243Y0077388D02*
X0058430Y0077388D01*
X0057975Y0077987D02*
X0047842Y0077987D01*
X0048440Y0078585D02*
X0057727Y0078585D01*
X0057666Y0079184D02*
X0049039Y0079184D01*
X0049637Y0079782D02*
X0057666Y0079782D01*
X0057906Y0080381D02*
X0050236Y0080381D01*
X0050834Y0080979D02*
X0058265Y0080979D01*
X0058555Y0081578D02*
X0051433Y0081578D01*
X0052031Y0082176D02*
X0058751Y0082176D01*
X0059349Y0082775D02*
X0052630Y0082775D01*
X0053228Y0083374D02*
X0059948Y0083374D01*
X0060547Y0083972D02*
X0053827Y0083972D01*
X0054425Y0084571D02*
X0061145Y0084571D01*
X0061744Y0085169D02*
X0055024Y0085169D01*
X0055622Y0085768D02*
X0062342Y0085768D01*
X0062941Y0086366D02*
X0056221Y0086366D01*
X0056819Y0086965D02*
X0063539Y0086965D01*
X0064138Y0087563D02*
X0057418Y0087563D01*
X0058016Y0088162D02*
X0064736Y0088162D01*
X0065335Y0088760D02*
X0058615Y0088760D01*
X0059213Y0089359D02*
X0065933Y0089359D01*
X0066532Y0089957D02*
X0059812Y0089957D01*
X0060410Y0090556D02*
X0067130Y0090556D01*
X0067729Y0091154D02*
X0061009Y0091154D01*
X0061607Y0091753D02*
X0068327Y0091753D01*
X0068926Y0092351D02*
X0062206Y0092351D01*
X0062804Y0092950D02*
X0069477Y0092950D01*
X0069477Y0093548D02*
X0063403Y0093548D01*
X0064001Y0094147D02*
X0069712Y0094147D01*
X0070063Y0094745D02*
X0064600Y0094745D01*
X0061903Y0097139D02*
X0017746Y0097139D01*
X0017839Y0096541D02*
X0061304Y0096541D01*
X0060706Y0095942D02*
X0017839Y0095942D01*
X0017839Y0095344D02*
X0060107Y0095344D01*
X0059509Y0094745D02*
X0017797Y0094745D01*
X0017549Y0094147D02*
X0058910Y0094147D01*
X0058312Y0093548D02*
X0017301Y0093548D01*
X0017053Y0092950D02*
X0057713Y0092950D01*
X0057115Y0092351D02*
X0016463Y0092351D01*
X0015864Y0091753D02*
X0056516Y0091753D01*
X0055918Y0091154D02*
X0014816Y0091154D01*
X0014941Y0090556D02*
X0055319Y0090556D01*
X0054721Y0089957D02*
X0015916Y0089957D01*
X0016515Y0089359D02*
X0054122Y0089359D01*
X0053524Y0088760D02*
X0017074Y0088760D01*
X0017322Y0088162D02*
X0052925Y0088162D01*
X0052327Y0087563D02*
X0017570Y0087563D01*
X0017818Y0086965D02*
X0051728Y0086965D01*
X0051130Y0086366D02*
X0017839Y0086366D01*
X0017839Y0085768D02*
X0019728Y0085768D01*
X0018727Y0085169D02*
X0017839Y0085169D01*
X0017724Y0084571D02*
X0018220Y0084571D01*
X0017972Y0083972D02*
X0017476Y0083972D01*
X0017228Y0083374D02*
X0017876Y0083374D01*
X0017876Y0082775D02*
X0016887Y0082775D01*
X0021401Y0085768D02*
X0050531Y0085768D01*
X0049933Y0085169D02*
X0022402Y0085169D01*
X0022909Y0084571D02*
X0049334Y0084571D01*
X0060355Y0081235D02*
X0060355Y0079267D01*
X0060355Y0081235D02*
X0072166Y0093046D01*
X0063100Y0098336D02*
X0017250Y0098336D01*
X0017498Y0097738D02*
X0062501Y0097738D01*
X0028870Y0070805D02*
X0014339Y0070805D01*
X0010703Y0051054D02*
X0003715Y0051054D01*
M02*
