G75*
%MOIN*%
%OFA0B0*%
%FSLAX25Y25*%
%IPPOS*%
%LPD*%
%AMOC8*
5,1,8,0,0,1.08239X$1,22.5*
%
%ADD10R,0.02756X0.03543*%
%ADD11R,0.03543X0.02756*%
%ADD12C,0.01181*%
%ADD13R,0.09843X0.08661*%
%ADD14R,0.01969X0.07874*%
%ADD15R,0.04331X0.03937*%
%ADD16R,0.03000X0.06000*%
%ADD17R,0.06500X0.01700*%
%ADD18R,0.07480X0.04331*%
D10*
X0029056Y0111589D03*
X0034174Y0111589D03*
X0044056Y0111589D03*
X0049174Y0111589D03*
X0089528Y0071196D03*
X0094646Y0071196D03*
D11*
X0030631Y0073558D03*
X0030631Y0078676D03*
D12*
X0060237Y0121759D02*
X0062993Y0121759D01*
X0060237Y0121759D02*
X0060237Y0124515D01*
X0062993Y0124515D01*
X0062993Y0121759D01*
X0062993Y0122939D02*
X0060237Y0122939D01*
X0060237Y0124119D02*
X0062993Y0124119D01*
X0062993Y0128664D02*
X0060237Y0128664D01*
X0060237Y0131420D01*
X0062993Y0131420D01*
X0062993Y0128664D01*
X0062993Y0129844D02*
X0060237Y0129844D01*
X0060237Y0131024D02*
X0062993Y0131024D01*
X0070237Y0128664D02*
X0072993Y0128664D01*
X0070237Y0128664D02*
X0070237Y0131420D01*
X0072993Y0131420D01*
X0072993Y0128664D01*
X0072993Y0129844D02*
X0070237Y0129844D01*
X0070237Y0131024D02*
X0072993Y0131024D01*
X0072993Y0121759D02*
X0070237Y0121759D01*
X0070237Y0124515D01*
X0072993Y0124515D01*
X0072993Y0121759D01*
X0072993Y0122939D02*
X0070237Y0122939D01*
X0070237Y0124119D02*
X0072993Y0124119D01*
D13*
X0068202Y0034078D03*
X0068202Y0013211D03*
X0101272Y0013211D03*
X0101272Y0034078D03*
D14*
X0091036Y0035062D03*
X0087887Y0035062D03*
X0084737Y0035062D03*
X0081587Y0035062D03*
X0078438Y0035062D03*
D15*
X0031615Y0098243D03*
X0031615Y0104936D03*
X0061615Y0103243D03*
X0061615Y0109936D03*
X0072717Y0110408D03*
X0072717Y0103715D03*
D16*
X0084115Y0115589D03*
X0099115Y0115589D03*
X0099115Y0137589D03*
X0084115Y0137589D03*
D17*
X0047315Y0055074D03*
X0047315Y0057633D03*
X0047315Y0060192D03*
X0047315Y0062751D03*
X0047315Y0065310D03*
X0047315Y0067869D03*
X0047315Y0070428D03*
X0047315Y0072987D03*
X0047315Y0075546D03*
X0047315Y0078105D03*
X0075915Y0078105D03*
X0075915Y0075546D03*
X0075915Y0072987D03*
X0075915Y0070428D03*
X0075915Y0067869D03*
X0075915Y0065310D03*
X0075915Y0062751D03*
X0075915Y0060192D03*
X0075915Y0057633D03*
X0075915Y0055074D03*
D18*
X0043898Y0122062D03*
X0043898Y0131117D03*
X0029331Y0131117D03*
X0029331Y0122062D03*
M02*
