G75*
%MOIN*%
%OFA0B0*%
%FSLAX25Y25*%
%IPPOS*%
%LPD*%
%AMOC8*
5,1,8,0,0,1.08239X$1,22.5*
%
%ADD10R,0.02756X0.03543*%
%ADD11R,0.03543X0.02756*%
%ADD12C,0.01181*%
%ADD13C,0.07400*%
%ADD14R,0.09843X0.08661*%
%ADD15R,0.01969X0.07874*%
%ADD16R,0.04331X0.03937*%
%ADD17R,0.03000X0.06000*%
%ADD18R,0.06500X0.01700*%
%ADD19R,0.07480X0.04331*%
%ADD20C,0.00600*%
%ADD21C,0.02378*%
D10*
X0029056Y0111589D03*
X0034174Y0111589D03*
X0044056Y0111589D03*
X0049174Y0111589D03*
X0089528Y0071196D03*
X0094646Y0071196D03*
D11*
X0030631Y0073558D03*
X0030631Y0078676D03*
D12*
X0060237Y0121759D02*
X0062993Y0121759D01*
X0060237Y0121759D02*
X0060237Y0124515D01*
X0062993Y0124515D01*
X0062993Y0121759D01*
X0062993Y0122939D02*
X0060237Y0122939D01*
X0060237Y0124119D02*
X0062993Y0124119D01*
X0062993Y0128664D02*
X0060237Y0128664D01*
X0060237Y0131420D01*
X0062993Y0131420D01*
X0062993Y0128664D01*
X0062993Y0129844D02*
X0060237Y0129844D01*
X0060237Y0131024D02*
X0062993Y0131024D01*
X0070237Y0128664D02*
X0072993Y0128664D01*
X0070237Y0128664D02*
X0070237Y0131420D01*
X0072993Y0131420D01*
X0072993Y0128664D01*
X0072993Y0129844D02*
X0070237Y0129844D01*
X0070237Y0131024D02*
X0072993Y0131024D01*
X0072993Y0121759D02*
X0070237Y0121759D01*
X0070237Y0124515D01*
X0072993Y0124515D01*
X0072993Y0121759D01*
X0072993Y0122939D02*
X0070237Y0122939D01*
X0070237Y0124119D02*
X0072993Y0124119D01*
D13*
X0116615Y0126589D03*
X0116615Y0116589D03*
X0116615Y0106589D03*
X0116615Y0096589D03*
X0116615Y0086589D03*
X0116615Y0076589D03*
X0116615Y0066589D03*
X0116615Y0056589D03*
X0116615Y0046589D03*
X0116615Y0036589D03*
X0012639Y0035881D03*
X0012639Y0045881D03*
X0012639Y0055881D03*
X0012639Y0065881D03*
X0012639Y0075881D03*
X0012639Y0085881D03*
X0012639Y0095881D03*
X0012639Y0105881D03*
X0012639Y0115881D03*
X0012639Y0125881D03*
D14*
X0068202Y0034078D03*
X0068202Y0013211D03*
X0101272Y0013211D03*
X0101272Y0034078D03*
D15*
X0091036Y0035062D03*
X0087887Y0035062D03*
X0084737Y0035062D03*
X0081587Y0035062D03*
X0078438Y0035062D03*
D16*
X0031615Y0098243D03*
X0031615Y0104936D03*
X0061615Y0103243D03*
X0061615Y0109936D03*
X0072717Y0110408D03*
X0072717Y0103715D03*
D17*
X0084115Y0115589D03*
X0099115Y0115589D03*
X0099115Y0137589D03*
X0084115Y0137589D03*
D18*
X0075915Y0078105D03*
X0075915Y0075546D03*
X0075915Y0072987D03*
X0075915Y0070428D03*
X0075915Y0067869D03*
X0075915Y0065310D03*
X0075915Y0062751D03*
X0075915Y0060192D03*
X0075915Y0057633D03*
X0075915Y0055074D03*
X0047315Y0055074D03*
X0047315Y0057633D03*
X0047315Y0060192D03*
X0047315Y0062751D03*
X0047315Y0065310D03*
X0047315Y0067869D03*
X0047315Y0070428D03*
X0047315Y0072987D03*
X0047315Y0075546D03*
X0047315Y0078105D03*
D19*
X0043898Y0122062D03*
X0043898Y0131117D03*
X0029331Y0131117D03*
X0029331Y0122062D03*
D20*
X0003715Y0144489D02*
X0003715Y0008689D01*
X0061780Y0008689D01*
X0061780Y0018163D01*
X0062659Y0019042D01*
X0068080Y0019042D01*
X0068080Y0025053D01*
X0068958Y0025932D01*
X0075954Y0025932D01*
X0075954Y0032888D01*
X0075794Y0033254D01*
X0075954Y0033660D01*
X0075954Y0035056D01*
X0074623Y0036448D01*
X0074623Y0029126D01*
X0073744Y0028247D01*
X0062659Y0028247D01*
X0061780Y0029126D01*
X0061780Y0035832D01*
X0060107Y0034159D01*
X0032830Y0034159D01*
X0032351Y0033680D01*
X0031362Y0033270D01*
X0030293Y0033270D01*
X0029304Y0033680D01*
X0028825Y0034159D01*
X0017554Y0034159D01*
X0017047Y0032935D01*
X0015584Y0031472D01*
X0013673Y0030681D01*
X0011604Y0030681D01*
X0009693Y0031472D01*
X0008230Y0032935D01*
X0007439Y0034846D01*
X0007439Y0036915D01*
X0008230Y0038826D01*
X0009436Y0040032D01*
X0007293Y0042175D01*
X0006239Y0043230D01*
X0006239Y0046192D01*
X0005469Y0046961D01*
X0005469Y0046961D01*
X0004415Y0048015D01*
X0004415Y0070203D01*
X0007913Y0073701D01*
X0007439Y0074846D01*
X0007439Y0076915D01*
X0008230Y0078826D01*
X0009693Y0080289D01*
X0011121Y0080881D01*
X0009693Y0081472D01*
X0008230Y0082935D01*
X0007439Y0084846D01*
X0007439Y0086915D01*
X0008230Y0088826D01*
X0009436Y0090032D01*
X0008933Y0090535D01*
X0008933Y0090535D01*
X0007293Y0092175D01*
X0006239Y0093230D01*
X0006239Y0098532D01*
X0009436Y0101729D01*
X0008230Y0102935D01*
X0007439Y0104846D01*
X0007439Y0106915D01*
X0008230Y0108826D01*
X0009693Y0110289D01*
X0011121Y0110881D01*
X0009693Y0111472D01*
X0008230Y0112935D01*
X0007439Y0114846D01*
X0007439Y0116915D01*
X0008230Y0118826D01*
X0009693Y0120289D01*
X0011440Y0121013D01*
X0010719Y0121247D01*
X0010018Y0121604D01*
X0009381Y0122067D01*
X0008825Y0122623D01*
X0008362Y0123260D01*
X0008005Y0123961D01*
X0007762Y0124710D01*
X0007639Y0125487D01*
X0007639Y0125581D01*
X0012339Y0125581D01*
X0012339Y0126181D01*
X0012339Y0130881D01*
X0012245Y0130881D01*
X0011468Y0130758D01*
X0010719Y0130514D01*
X0010018Y0130157D01*
X0009381Y0129694D01*
X0008825Y0129138D01*
X0008362Y0128501D01*
X0008005Y0127800D01*
X0007762Y0127052D01*
X0007639Y0126274D01*
X0007639Y0126181D01*
X0012339Y0126181D01*
X0012939Y0126181D01*
X0017639Y0126181D01*
X0017639Y0126274D01*
X0017515Y0127052D01*
X0017272Y0127800D01*
X0016915Y0128501D01*
X0016452Y0129138D01*
X0015896Y0129694D01*
X0015259Y0130157D01*
X0014558Y0130514D01*
X0013809Y0130758D01*
X0013032Y0130881D01*
X0012939Y0130881D01*
X0012939Y0126181D01*
X0012939Y0125581D01*
X0017639Y0125581D01*
X0017639Y0125487D01*
X0017515Y0124710D01*
X0017272Y0123961D01*
X0016915Y0123260D01*
X0016452Y0122623D01*
X0015896Y0122067D01*
X0015259Y0121604D01*
X0014558Y0121247D01*
X0013837Y0121013D01*
X0015584Y0120289D01*
X0017047Y0118826D01*
X0017839Y0116915D01*
X0017839Y0114846D01*
X0017047Y0112935D01*
X0015584Y0111472D01*
X0014156Y0110881D01*
X0015584Y0110289D01*
X0017047Y0108826D01*
X0017839Y0106915D01*
X0017839Y0104846D01*
X0017047Y0102935D01*
X0015584Y0101472D01*
X0014156Y0100881D01*
X0015584Y0100289D01*
X0017047Y0098826D01*
X0017839Y0096915D01*
X0017839Y0094846D01*
X0017364Y0093701D01*
X0024754Y0086311D01*
X0024754Y0081269D01*
X0025233Y0080790D01*
X0025643Y0079801D01*
X0025643Y0078732D01*
X0025233Y0077743D01*
X0024477Y0076987D01*
X0024195Y0076870D01*
X0027359Y0073706D01*
X0027359Y0075557D01*
X0028060Y0076258D01*
X0027819Y0076500D01*
X0027648Y0076796D01*
X0027559Y0077127D01*
X0027559Y0078376D01*
X0030331Y0078376D01*
X0030331Y0078976D01*
X0030331Y0081354D01*
X0028688Y0081354D01*
X0028357Y0081265D01*
X0028061Y0081094D01*
X0027819Y0080852D01*
X0027648Y0080556D01*
X0027559Y0080225D01*
X0027559Y0078976D01*
X0030331Y0078976D01*
X0030931Y0078976D01*
X0033702Y0078976D01*
X0033702Y0080225D01*
X0033614Y0080556D01*
X0033443Y0080852D01*
X0033201Y0081094D01*
X0032904Y0081265D01*
X0032574Y0081354D01*
X0030931Y0081354D01*
X0030931Y0078976D01*
X0030931Y0078376D01*
X0033702Y0078376D01*
X0033702Y0077127D01*
X0033614Y0076796D01*
X0033443Y0076500D01*
X0033201Y0076258D01*
X0033902Y0075557D01*
X0033902Y0075358D01*
X0034216Y0075358D01*
X0036902Y0078044D01*
X0037956Y0079098D01*
X0042565Y0079098D01*
X0042565Y0079576D01*
X0043444Y0080455D01*
X0049665Y0080455D01*
X0049665Y0080964D01*
X0050719Y0082019D01*
X0050719Y0082019D01*
X0055841Y0087141D01*
X0052936Y0090046D01*
X0031860Y0090046D01*
X0026750Y0095156D01*
X0026750Y0101330D01*
X0027277Y0101857D01*
X0027950Y0102530D01*
X0027950Y0107526D01*
X0028828Y0108404D01*
X0029815Y0108404D01*
X0029815Y0108518D01*
X0029356Y0108518D01*
X0029356Y0111289D01*
X0028756Y0111289D01*
X0028756Y0108518D01*
X0027507Y0108518D01*
X0027176Y0108606D01*
X0026880Y0108777D01*
X0026638Y0109019D01*
X0026467Y0109316D01*
X0026378Y0109647D01*
X0026378Y0111289D01*
X0028756Y0111289D01*
X0028756Y0111889D01*
X0026378Y0111889D01*
X0026378Y0113532D01*
X0026467Y0113863D01*
X0026638Y0114159D01*
X0026880Y0114401D01*
X0027176Y0114572D01*
X0027507Y0114661D01*
X0028756Y0114661D01*
X0028756Y0111889D01*
X0029356Y0111889D01*
X0029356Y0114661D01*
X0029815Y0114661D01*
X0029815Y0118396D01*
X0024970Y0118396D01*
X0024091Y0119275D01*
X0024091Y0124848D01*
X0024970Y0125727D01*
X0033693Y0125727D01*
X0034572Y0124848D01*
X0034572Y0124336D01*
X0038658Y0128422D01*
X0038658Y0133904D01*
X0039537Y0134782D01*
X0048260Y0134782D01*
X0049139Y0133904D01*
X0049139Y0128330D01*
X0048260Y0127452D01*
X0042779Y0127452D01*
X0041054Y0125727D01*
X0048260Y0125727D01*
X0049139Y0124848D01*
X0049139Y0119275D01*
X0048260Y0118396D01*
X0040715Y0118396D01*
X0043051Y0116061D01*
X0046552Y0116061D01*
X0047607Y0115007D01*
X0047952Y0114661D01*
X0048874Y0114661D01*
X0048874Y0111889D01*
X0049474Y0111889D01*
X0051852Y0111889D01*
X0051852Y0113532D01*
X0051763Y0113863D01*
X0051592Y0114159D01*
X0051350Y0114401D01*
X0051054Y0114572D01*
X0050723Y0114661D01*
X0049474Y0114661D01*
X0049474Y0111889D01*
X0049474Y0111289D01*
X0049474Y0108518D01*
X0050723Y0108518D01*
X0051054Y0108606D01*
X0051350Y0108777D01*
X0051592Y0109019D01*
X0051763Y0109316D01*
X0051852Y0109647D01*
X0051852Y0111289D01*
X0049474Y0111289D01*
X0048874Y0111289D01*
X0048874Y0108518D01*
X0047952Y0108518D01*
X0047607Y0108172D01*
X0047607Y0108172D01*
X0046552Y0107118D01*
X0041191Y0107118D01*
X0041203Y0107106D01*
X0041203Y0105615D01*
X0040148Y0104561D01*
X0035280Y0099693D01*
X0035280Y0097123D01*
X0037557Y0094846D01*
X0057164Y0094846D01*
X0058218Y0093792D01*
X0062492Y0089518D01*
X0062492Y0099974D01*
X0061915Y0099974D01*
X0061915Y0102943D01*
X0061315Y0102943D01*
X0058150Y0102943D01*
X0058150Y0101103D01*
X0058238Y0100773D01*
X0058409Y0100476D01*
X0058651Y0100234D01*
X0058948Y0100063D01*
X0059278Y0099974D01*
X0061315Y0099974D01*
X0061315Y0102943D01*
X0061315Y0103543D01*
X0061315Y0106467D01*
X0061915Y0106467D01*
X0061915Y0103543D01*
X0061315Y0103543D01*
X0058150Y0103543D01*
X0058150Y0105383D01*
X0058238Y0105713D01*
X0058409Y0106010D01*
X0058651Y0106252D01*
X0058948Y0106423D01*
X0059114Y0106467D01*
X0058828Y0106467D01*
X0057950Y0107346D01*
X0057950Y0112526D01*
X0058828Y0113404D01*
X0059815Y0113404D01*
X0059815Y0117527D01*
X0056946Y0120396D01*
X0056946Y0125878D01*
X0058507Y0127438D01*
X0058146Y0127798D01*
X0058146Y0132286D01*
X0059371Y0133511D01*
X0063859Y0133511D01*
X0065083Y0132286D01*
X0065083Y0127798D01*
X0063875Y0126589D01*
X0065083Y0125380D01*
X0065083Y0122214D01*
X0066480Y0120817D01*
X0066480Y0100156D01*
X0066092Y0099768D01*
X0066092Y0081085D01*
X0066662Y0081655D01*
X0077915Y0081655D01*
X0088083Y0091823D01*
X0088083Y0091823D01*
X0089137Y0092878D01*
X0100358Y0092878D01*
X0111889Y0104409D01*
X0111415Y0105555D01*
X0111415Y0107624D01*
X0112207Y0109535D01*
X0113669Y0110998D01*
X0115098Y0111589D01*
X0113669Y0112181D01*
X0112207Y0113644D01*
X0111415Y0115555D01*
X0111415Y0117624D01*
X0112207Y0119535D01*
X0113669Y0120998D01*
X0115098Y0121589D01*
X0113669Y0122181D01*
X0112207Y0123644D01*
X0111415Y0125555D01*
X0111415Y0127624D01*
X0111889Y0128769D01*
X0108769Y0131889D01*
X0096497Y0131889D01*
X0095442Y0132944D01*
X0092597Y0135789D01*
X0087115Y0135789D01*
X0087115Y0133968D01*
X0086236Y0133089D01*
X0085915Y0133089D01*
X0085915Y0120089D01*
X0086236Y0120089D01*
X0087115Y0119211D01*
X0087115Y0111968D01*
X0086236Y0111089D01*
X0082161Y0111089D01*
X0081840Y0110769D01*
X0081840Y0100174D01*
X0080786Y0099120D01*
X0074855Y0093189D01*
X0074855Y0092511D01*
X0074446Y0091523D01*
X0073689Y0090766D01*
X0072701Y0090357D01*
X0071631Y0090357D01*
X0070643Y0090766D01*
X0069887Y0091523D01*
X0069477Y0092511D01*
X0069477Y0093581D01*
X0069887Y0094569D01*
X0070332Y0095015D01*
X0069887Y0095460D01*
X0069477Y0096448D01*
X0069477Y0097126D01*
X0068906Y0097697D01*
X0067852Y0098752D01*
X0067852Y0113495D01*
X0068906Y0114550D01*
X0069815Y0115458D01*
X0069815Y0119668D01*
X0069371Y0119668D01*
X0068146Y0120893D01*
X0068146Y0125380D01*
X0069355Y0126589D01*
X0068146Y0127798D01*
X0068146Y0132286D01*
X0069371Y0133511D01*
X0073859Y0133511D01*
X0075083Y0132286D01*
X0075083Y0127798D01*
X0074723Y0127438D01*
X0075229Y0126932D01*
X0076283Y0125878D01*
X0076283Y0121002D01*
X0076849Y0120437D01*
X0076849Y0120437D01*
X0077903Y0119382D01*
X0077903Y0113048D01*
X0076383Y0111528D01*
X0076383Y0107818D01*
X0075504Y0106940D01*
X0075218Y0106940D01*
X0075384Y0106895D01*
X0075681Y0106724D01*
X0075923Y0106482D01*
X0076094Y0106186D01*
X0076183Y0105855D01*
X0076183Y0104015D01*
X0073017Y0104015D01*
X0073017Y0103415D01*
X0073017Y0100447D01*
X0075054Y0100447D01*
X0075384Y0100535D01*
X0075681Y0100707D01*
X0075923Y0100949D01*
X0076094Y0101245D01*
X0076183Y0101576D01*
X0076183Y0103415D01*
X0073017Y0103415D01*
X0072417Y0103415D01*
X0072417Y0100447D01*
X0071452Y0100447D01*
X0071452Y0100243D01*
X0072023Y0099672D01*
X0072701Y0099672D01*
X0073689Y0099263D01*
X0074446Y0098506D01*
X0074632Y0098057D01*
X0078240Y0101666D01*
X0078240Y0112260D01*
X0081115Y0115135D01*
X0081115Y0119211D01*
X0081994Y0120089D01*
X0082315Y0120089D01*
X0082315Y0133089D01*
X0081994Y0133089D01*
X0081115Y0133968D01*
X0081115Y0141211D01*
X0081994Y0142089D01*
X0086236Y0142089D01*
X0087115Y0141211D01*
X0087115Y0139389D01*
X0094088Y0139389D01*
X0096315Y0137162D01*
X0096315Y0137289D01*
X0098815Y0137289D01*
X0098815Y0137889D01*
X0096315Y0137889D01*
X0096315Y0140761D01*
X0096404Y0141091D01*
X0096575Y0141388D01*
X0096817Y0141630D01*
X0097113Y0141801D01*
X0097444Y0141889D01*
X0098815Y0141889D01*
X0098815Y0137889D01*
X0099415Y0137889D01*
X0101915Y0137889D01*
X0101915Y0140761D01*
X0101826Y0141091D01*
X0101655Y0141388D01*
X0101413Y0141630D01*
X0101117Y0141801D01*
X0100786Y0141889D01*
X0099415Y0141889D01*
X0099415Y0137889D01*
X0099415Y0137289D01*
X0101915Y0137289D01*
X0101915Y0135489D01*
X0110261Y0135489D01*
X0111315Y0134435D01*
X0114435Y0131315D01*
X0115581Y0131789D01*
X0117649Y0131789D01*
X0119561Y0130998D01*
X0121023Y0129535D01*
X0121815Y0127624D01*
X0121815Y0125555D01*
X0121023Y0123644D01*
X0119561Y0122181D01*
X0118132Y0121589D01*
X0119561Y0120998D01*
X0121023Y0119535D01*
X0121815Y0117624D01*
X0121815Y0115555D01*
X0121023Y0113644D01*
X0119561Y0112181D01*
X0118132Y0111589D01*
X0119561Y0110998D01*
X0121023Y0109535D01*
X0121815Y0107624D01*
X0121815Y0105555D01*
X0121023Y0103644D01*
X0119561Y0102181D01*
X0118132Y0101589D01*
X0119561Y0100998D01*
X0121023Y0099535D01*
X0121815Y0097624D01*
X0121815Y0095555D01*
X0121340Y0094409D01*
X0123815Y0091935D01*
X0123815Y0087031D01*
X0123015Y0086231D01*
X0123015Y0083938D01*
X0121961Y0082884D01*
X0120320Y0081244D01*
X0119817Y0080741D01*
X0121023Y0079535D01*
X0121815Y0077624D01*
X0121815Y0075555D01*
X0121023Y0073644D01*
X0119561Y0072181D01*
X0118132Y0071589D01*
X0119561Y0070998D01*
X0121023Y0069535D01*
X0121815Y0067624D01*
X0121815Y0065555D01*
X0121023Y0063644D01*
X0119561Y0062181D01*
X0118132Y0061589D01*
X0119561Y0060998D01*
X0121023Y0059535D01*
X0121815Y0057624D01*
X0121815Y0055555D01*
X0121023Y0053644D01*
X0119561Y0052181D01*
X0118132Y0051589D01*
X0119561Y0050998D01*
X0121023Y0049535D01*
X0121815Y0047624D01*
X0121815Y0045555D01*
X0121023Y0043644D01*
X0119561Y0042181D01*
X0117813Y0041457D01*
X0118534Y0041223D01*
X0119236Y0040866D01*
X0119872Y0040403D01*
X0120429Y0039847D01*
X0120891Y0039210D01*
X0121249Y0038509D01*
X0121492Y0037760D01*
X0121615Y0036983D01*
X0121615Y0036889D01*
X0116915Y0036889D01*
X0116915Y0036289D01*
X0116915Y0031589D01*
X0117008Y0031589D01*
X0117786Y0031712D01*
X0118534Y0031956D01*
X0119236Y0032313D01*
X0119872Y0032776D01*
X0120429Y0033332D01*
X0120891Y0033969D01*
X0121249Y0034670D01*
X0121492Y0035419D01*
X0121615Y0036196D01*
X0121615Y0036289D01*
X0116915Y0036289D01*
X0116315Y0036289D01*
X0116315Y0031589D01*
X0116221Y0031589D01*
X0115444Y0031712D01*
X0114696Y0031956D01*
X0113994Y0032313D01*
X0113358Y0032776D01*
X0112801Y0033332D01*
X0112339Y0033969D01*
X0111981Y0034670D01*
X0111738Y0035419D01*
X0111615Y0036196D01*
X0111615Y0036289D01*
X0116315Y0036289D01*
X0116315Y0036889D01*
X0111615Y0036889D01*
X0111615Y0036983D01*
X0111738Y0037760D01*
X0111981Y0038509D01*
X0112339Y0039210D01*
X0112801Y0039847D01*
X0113358Y0040403D01*
X0113994Y0040866D01*
X0114696Y0041223D01*
X0115417Y0041457D01*
X0113669Y0042181D01*
X0112207Y0043644D01*
X0111415Y0045555D01*
X0111415Y0047624D01*
X0111889Y0048769D01*
X0106814Y0053844D01*
X0099759Y0053844D01*
X0099280Y0053365D01*
X0098292Y0052956D01*
X0097222Y0052956D01*
X0096234Y0053365D01*
X0095477Y0054121D01*
X0095068Y0055110D01*
X0095068Y0056179D01*
X0095164Y0056412D01*
X0091683Y0052930D01*
X0090628Y0051876D01*
X0076567Y0051876D01*
X0075719Y0052724D01*
X0072044Y0052724D01*
X0071165Y0053602D01*
X0071165Y0058003D01*
X0052313Y0039151D01*
X0051258Y0038096D01*
X0032493Y0038096D01*
X0032830Y0037759D01*
X0058616Y0037759D01*
X0061108Y0040251D01*
X0062162Y0041305D01*
X0073470Y0041305D01*
X0073487Y0041322D01*
X0074212Y0041305D01*
X0074937Y0041305D01*
X0074954Y0041288D01*
X0074977Y0041288D01*
X0075479Y0040763D01*
X0075991Y0040251D01*
X0075991Y0040227D01*
X0076269Y0039936D01*
X0076832Y0040499D01*
X0079787Y0040499D01*
X0079787Y0044220D01*
X0079729Y0044279D01*
X0079320Y0045267D01*
X0079320Y0046337D01*
X0079729Y0047325D01*
X0080485Y0048082D01*
X0081474Y0048491D01*
X0082544Y0048491D01*
X0083532Y0048082D01*
X0083977Y0047636D01*
X0084422Y0048082D01*
X0085411Y0048491D01*
X0086481Y0048491D01*
X0087469Y0048082D01*
X0088225Y0047325D01*
X0088635Y0046337D01*
X0088635Y0045267D01*
X0088225Y0044279D01*
X0087469Y0043522D01*
X0086537Y0043136D01*
X0086537Y0040499D01*
X0089492Y0040499D01*
X0089732Y0040259D01*
X0089881Y0040299D01*
X0090844Y0040299D01*
X0090844Y0035254D01*
X0091228Y0035254D01*
X0091228Y0040299D01*
X0092192Y0040299D01*
X0092522Y0040210D01*
X0092819Y0040039D01*
X0093061Y0039797D01*
X0093232Y0039501D01*
X0093320Y0039170D01*
X0093320Y0035254D01*
X0091228Y0035254D01*
X0091228Y0034870D01*
X0093320Y0034870D01*
X0093320Y0031848D01*
X0093520Y0031648D01*
X0093520Y0025932D01*
X0100516Y0025932D01*
X0101394Y0025053D01*
X0101394Y0019042D01*
X0106815Y0019042D01*
X0107694Y0018163D01*
X0107694Y0008689D01*
X0124515Y0008689D01*
X0124515Y0144489D01*
X0003715Y0144489D01*
X0003715Y0144422D02*
X0124515Y0144422D01*
X0124515Y0143823D02*
X0003715Y0143823D01*
X0003715Y0143225D02*
X0124515Y0143225D01*
X0124515Y0142626D02*
X0003715Y0142626D01*
X0003715Y0142028D02*
X0081932Y0142028D01*
X0082242Y0141489D02*
X0091139Y0141489D01*
X0095039Y0137589D01*
X0099115Y0137589D01*
X0099415Y0137838D02*
X0124515Y0137838D01*
X0124515Y0137240D02*
X0101915Y0137240D01*
X0101915Y0136641D02*
X0124515Y0136641D01*
X0124515Y0136043D02*
X0101915Y0136043D01*
X0101915Y0138437D02*
X0124515Y0138437D01*
X0124515Y0139035D02*
X0101915Y0139035D01*
X0101915Y0139634D02*
X0124515Y0139634D01*
X0124515Y0140232D02*
X0101915Y0140232D01*
X0101896Y0140831D02*
X0124515Y0140831D01*
X0124515Y0141429D02*
X0101614Y0141429D01*
X0099415Y0141429D02*
X0098815Y0141429D01*
X0098815Y0140831D02*
X0099415Y0140831D01*
X0099415Y0140232D02*
X0098815Y0140232D01*
X0098815Y0139634D02*
X0099415Y0139634D01*
X0099415Y0139035D02*
X0098815Y0139035D01*
X0098815Y0138437D02*
X0099415Y0138437D01*
X0098815Y0137838D02*
X0095639Y0137838D01*
X0095041Y0138437D02*
X0096315Y0138437D01*
X0096315Y0139035D02*
X0094442Y0139035D01*
X0093342Y0137589D02*
X0097242Y0133689D01*
X0109515Y0133689D01*
X0116615Y0126589D01*
X0118941Y0131254D02*
X0124515Y0131254D01*
X0124515Y0130656D02*
X0119902Y0130656D01*
X0120501Y0130057D02*
X0124515Y0130057D01*
X0124515Y0129459D02*
X0121055Y0129459D01*
X0121303Y0128860D02*
X0124515Y0128860D01*
X0124515Y0128262D02*
X0121551Y0128262D01*
X0121799Y0127663D02*
X0124515Y0127663D01*
X0124515Y0127065D02*
X0121815Y0127065D01*
X0121815Y0126466D02*
X0124515Y0126466D01*
X0124515Y0125868D02*
X0121815Y0125868D01*
X0121697Y0125269D02*
X0124515Y0125269D01*
X0124515Y0124671D02*
X0121449Y0124671D01*
X0121201Y0124072D02*
X0124515Y0124072D01*
X0124515Y0123474D02*
X0120853Y0123474D01*
X0120255Y0122875D02*
X0124515Y0122875D01*
X0124515Y0122277D02*
X0119656Y0122277D01*
X0119363Y0121080D02*
X0124515Y0121080D01*
X0124515Y0121678D02*
X0118347Y0121678D01*
X0120077Y0120481D02*
X0124515Y0120481D01*
X0124515Y0119883D02*
X0120676Y0119883D01*
X0121127Y0119284D02*
X0124515Y0119284D01*
X0124515Y0118686D02*
X0121375Y0118686D01*
X0121623Y0118087D02*
X0124515Y0118087D01*
X0124515Y0117489D02*
X0121815Y0117489D01*
X0121815Y0116890D02*
X0124515Y0116890D01*
X0124515Y0116292D02*
X0121815Y0116292D01*
X0121815Y0115693D02*
X0124515Y0115693D01*
X0124515Y0115095D02*
X0121624Y0115095D01*
X0121376Y0114496D02*
X0124515Y0114496D01*
X0124515Y0113898D02*
X0121128Y0113898D01*
X0120679Y0113299D02*
X0124515Y0113299D01*
X0124515Y0112701D02*
X0120080Y0112701D01*
X0119370Y0112102D02*
X0124515Y0112102D01*
X0124515Y0111504D02*
X0118339Y0111504D01*
X0119653Y0110905D02*
X0124515Y0110905D01*
X0124515Y0110307D02*
X0120252Y0110307D01*
X0120850Y0109708D02*
X0124515Y0109708D01*
X0124515Y0109109D02*
X0121200Y0109109D01*
X0121447Y0108511D02*
X0124515Y0108511D01*
X0124515Y0107912D02*
X0121695Y0107912D01*
X0121815Y0107314D02*
X0124515Y0107314D01*
X0124515Y0106715D02*
X0121815Y0106715D01*
X0121815Y0106117D02*
X0124515Y0106117D01*
X0124515Y0105518D02*
X0121800Y0105518D01*
X0121552Y0104920D02*
X0124515Y0104920D01*
X0124515Y0104321D02*
X0121304Y0104321D01*
X0121056Y0103723D02*
X0124515Y0103723D01*
X0124515Y0103124D02*
X0120504Y0103124D01*
X0119905Y0102526D02*
X0124515Y0102526D01*
X0124515Y0101927D02*
X0118948Y0101927D01*
X0118761Y0101329D02*
X0124515Y0101329D01*
X0124515Y0100730D02*
X0119828Y0100730D01*
X0120426Y0100132D02*
X0124515Y0100132D01*
X0124515Y0099533D02*
X0121024Y0099533D01*
X0121272Y0098935D02*
X0124515Y0098935D01*
X0124515Y0098336D02*
X0121520Y0098336D01*
X0121768Y0097738D02*
X0124515Y0097738D01*
X0124515Y0097139D02*
X0121815Y0097139D01*
X0121815Y0096541D02*
X0124515Y0096541D01*
X0124515Y0095942D02*
X0121815Y0095942D01*
X0121727Y0095344D02*
X0124515Y0095344D01*
X0124515Y0094745D02*
X0121480Y0094745D01*
X0121603Y0094147D02*
X0124515Y0094147D01*
X0124515Y0093548D02*
X0122202Y0093548D01*
X0122800Y0092950D02*
X0124515Y0092950D01*
X0124515Y0092351D02*
X0123399Y0092351D01*
X0123815Y0091753D02*
X0124515Y0091753D01*
X0124515Y0091154D02*
X0123815Y0091154D01*
X0123815Y0090556D02*
X0124515Y0090556D01*
X0124515Y0089957D02*
X0123815Y0089957D01*
X0123815Y0089359D02*
X0124515Y0089359D01*
X0124515Y0088760D02*
X0123815Y0088760D01*
X0123815Y0088162D02*
X0124515Y0088162D01*
X0124515Y0087563D02*
X0123815Y0087563D01*
X0123748Y0086965D02*
X0124515Y0086965D01*
X0124515Y0086366D02*
X0123150Y0086366D01*
X0123015Y0085768D02*
X0124515Y0085768D01*
X0124515Y0085169D02*
X0123015Y0085169D01*
X0123015Y0084571D02*
X0124515Y0084571D01*
X0124515Y0083972D02*
X0123015Y0083972D01*
X0122450Y0083374D02*
X0124515Y0083374D01*
X0124515Y0082775D02*
X0121852Y0082775D01*
X0121253Y0082176D02*
X0124515Y0082176D01*
X0124515Y0081578D02*
X0120655Y0081578D01*
X0120056Y0080979D02*
X0124515Y0080979D01*
X0124515Y0080381D02*
X0120177Y0080381D01*
X0120776Y0079782D02*
X0124515Y0079782D01*
X0124515Y0079184D02*
X0121169Y0079184D01*
X0121417Y0078585D02*
X0124515Y0078585D01*
X0124515Y0077987D02*
X0121665Y0077987D01*
X0121815Y0077388D02*
X0124515Y0077388D01*
X0124515Y0076790D02*
X0121815Y0076790D01*
X0121815Y0076191D02*
X0124515Y0076191D01*
X0124515Y0075593D02*
X0121815Y0075593D01*
X0121583Y0074994D02*
X0124515Y0074994D01*
X0124515Y0074396D02*
X0121335Y0074396D01*
X0121087Y0073797D02*
X0124515Y0073797D01*
X0124515Y0073199D02*
X0120578Y0073199D01*
X0119980Y0072600D02*
X0124515Y0072600D01*
X0124515Y0072002D02*
X0119128Y0072002D01*
X0118581Y0071403D02*
X0124515Y0071403D01*
X0124515Y0070805D02*
X0119753Y0070805D01*
X0120352Y0070206D02*
X0124515Y0070206D01*
X0124515Y0069608D02*
X0120950Y0069608D01*
X0121241Y0069009D02*
X0124515Y0069009D01*
X0124515Y0068411D02*
X0121489Y0068411D01*
X0121737Y0067812D02*
X0124515Y0067812D01*
X0124515Y0067214D02*
X0121815Y0067214D01*
X0121815Y0066615D02*
X0124515Y0066615D01*
X0124515Y0066017D02*
X0121815Y0066017D01*
X0121758Y0065418D02*
X0124515Y0065418D01*
X0124515Y0064820D02*
X0121510Y0064820D01*
X0121262Y0064221D02*
X0124515Y0064221D01*
X0124515Y0063623D02*
X0121002Y0063623D01*
X0120404Y0063024D02*
X0124515Y0063024D01*
X0124515Y0062426D02*
X0119805Y0062426D01*
X0118706Y0061827D02*
X0124515Y0061827D01*
X0124515Y0061229D02*
X0119003Y0061229D01*
X0119928Y0060630D02*
X0124515Y0060630D01*
X0124515Y0060032D02*
X0120527Y0060032D01*
X0121066Y0059433D02*
X0124515Y0059433D01*
X0124515Y0058835D02*
X0121313Y0058835D01*
X0121561Y0058236D02*
X0124515Y0058236D01*
X0124515Y0057638D02*
X0121809Y0057638D01*
X0121815Y0057039D02*
X0124515Y0057039D01*
X0124515Y0056441D02*
X0121815Y0056441D01*
X0121815Y0055842D02*
X0124515Y0055842D01*
X0124515Y0055243D02*
X0121686Y0055243D01*
X0121438Y0054645D02*
X0124515Y0054645D01*
X0124515Y0054046D02*
X0121190Y0054046D01*
X0120827Y0053448D02*
X0124515Y0053448D01*
X0124515Y0052849D02*
X0120229Y0052849D01*
X0119630Y0052251D02*
X0124515Y0052251D01*
X0124515Y0051652D02*
X0118284Y0051652D01*
X0119425Y0051054D02*
X0124515Y0051054D01*
X0124515Y0050455D02*
X0120103Y0050455D01*
X0120701Y0049857D02*
X0124515Y0049857D01*
X0124515Y0049258D02*
X0121138Y0049258D01*
X0121386Y0048660D02*
X0124515Y0048660D01*
X0124515Y0048061D02*
X0121634Y0048061D01*
X0121815Y0047463D02*
X0124515Y0047463D01*
X0124515Y0046864D02*
X0121815Y0046864D01*
X0121815Y0046266D02*
X0124515Y0046266D01*
X0124515Y0045667D02*
X0121815Y0045667D01*
X0121614Y0045069D02*
X0124515Y0045069D01*
X0124515Y0044470D02*
X0121366Y0044470D01*
X0121118Y0043872D02*
X0124515Y0043872D01*
X0124515Y0043273D02*
X0120653Y0043273D01*
X0120054Y0042675D02*
X0124515Y0042675D01*
X0124515Y0042076D02*
X0119308Y0042076D01*
X0119209Y0040879D02*
X0124515Y0040879D01*
X0124515Y0040281D02*
X0119995Y0040281D01*
X0120548Y0039682D02*
X0124515Y0039682D01*
X0124515Y0039084D02*
X0120956Y0039084D01*
X0121256Y0038485D02*
X0124515Y0038485D01*
X0124515Y0037887D02*
X0121451Y0037887D01*
X0121567Y0037288D02*
X0124515Y0037288D01*
X0124515Y0036690D02*
X0116915Y0036690D01*
X0116615Y0036589D02*
X0109482Y0036589D01*
X0106566Y0039505D01*
X0095978Y0039505D01*
X0091732Y0035259D01*
X0091036Y0035062D01*
X0091732Y0033290D01*
X0093320Y0033099D02*
X0094851Y0033099D01*
X0094851Y0033697D02*
X0093320Y0033697D01*
X0093320Y0034296D02*
X0094851Y0034296D01*
X0094851Y0034894D02*
X0091228Y0034894D01*
X0091228Y0035493D02*
X0090844Y0035493D01*
X0090844Y0036091D02*
X0091228Y0036091D01*
X0091228Y0036690D02*
X0090844Y0036690D01*
X0090844Y0037288D02*
X0091228Y0037288D01*
X0091228Y0037887D02*
X0090844Y0037887D01*
X0090844Y0038485D02*
X0091228Y0038485D01*
X0091228Y0039084D02*
X0090844Y0039084D01*
X0090844Y0039682D02*
X0091228Y0039682D01*
X0091228Y0040281D02*
X0090844Y0040281D01*
X0089813Y0040281D02*
X0089710Y0040281D01*
X0092259Y0040281D02*
X0113235Y0040281D01*
X0112682Y0039682D02*
X0107041Y0039682D01*
X0106815Y0039908D02*
X0107694Y0039030D01*
X0107694Y0029126D01*
X0106815Y0028247D01*
X0095730Y0028247D01*
X0094851Y0029126D01*
X0094851Y0039030D01*
X0095730Y0039908D01*
X0106815Y0039908D01*
X0107640Y0039084D02*
X0112274Y0039084D01*
X0111974Y0038485D02*
X0107694Y0038485D01*
X0107694Y0037887D02*
X0111779Y0037887D01*
X0111663Y0037288D02*
X0107694Y0037288D01*
X0107694Y0036690D02*
X0116315Y0036690D01*
X0116615Y0036589D02*
X0101497Y0051707D01*
X0097757Y0051707D01*
X0099363Y0053448D02*
X0107211Y0053448D01*
X0107809Y0052849D02*
X0091602Y0052849D01*
X0091003Y0052251D02*
X0108408Y0052251D01*
X0109006Y0051652D02*
X0064814Y0051652D01*
X0064216Y0051054D02*
X0109605Y0051054D01*
X0110203Y0050455D02*
X0063617Y0050455D01*
X0063019Y0049857D02*
X0110802Y0049857D01*
X0111400Y0049258D02*
X0062420Y0049258D01*
X0061822Y0048660D02*
X0111844Y0048660D01*
X0111596Y0048061D02*
X0087489Y0048061D01*
X0088088Y0047463D02*
X0111415Y0047463D01*
X0111415Y0046864D02*
X0088416Y0046864D01*
X0088635Y0046266D02*
X0111415Y0046266D01*
X0111415Y0045667D02*
X0088635Y0045667D01*
X0088552Y0045069D02*
X0111616Y0045069D01*
X0111864Y0044470D02*
X0088305Y0044470D01*
X0087818Y0043872D02*
X0112112Y0043872D01*
X0112577Y0043273D02*
X0086867Y0043273D01*
X0086537Y0042675D02*
X0113176Y0042675D01*
X0113922Y0042076D02*
X0086537Y0042076D01*
X0086537Y0041478D02*
X0115367Y0041478D01*
X0114021Y0040879D02*
X0086537Y0040879D01*
X0084737Y0044593D02*
X0084737Y0035062D01*
X0081587Y0035062D02*
X0081587Y0045381D01*
X0082009Y0045802D01*
X0079867Y0047463D02*
X0060625Y0047463D01*
X0061223Y0048061D02*
X0080465Y0048061D01*
X0079538Y0046864D02*
X0060026Y0046864D01*
X0059428Y0046266D02*
X0079320Y0046266D01*
X0079320Y0045667D02*
X0058829Y0045667D01*
X0058230Y0045069D02*
X0079402Y0045069D01*
X0079650Y0044470D02*
X0057632Y0044470D01*
X0057033Y0043872D02*
X0079787Y0043872D01*
X0079787Y0043273D02*
X0056435Y0043273D01*
X0055836Y0042675D02*
X0079787Y0042675D01*
X0079787Y0042076D02*
X0055238Y0042076D01*
X0054639Y0041478D02*
X0079787Y0041478D01*
X0079787Y0040879D02*
X0075368Y0040879D01*
X0075961Y0040281D02*
X0076614Y0040281D01*
X0074191Y0039505D02*
X0078438Y0035062D01*
X0077742Y0033290D01*
X0075954Y0033697D02*
X0074623Y0033697D01*
X0074623Y0033099D02*
X0075862Y0033099D01*
X0075954Y0032500D02*
X0074623Y0032500D01*
X0074623Y0031902D02*
X0075954Y0031902D01*
X0075954Y0031303D02*
X0074623Y0031303D01*
X0074623Y0030705D02*
X0075954Y0030705D01*
X0075954Y0030106D02*
X0074623Y0030106D01*
X0074623Y0029507D02*
X0075954Y0029507D01*
X0075954Y0028909D02*
X0074406Y0028909D01*
X0073808Y0028310D02*
X0075954Y0028310D01*
X0075954Y0027712D02*
X0003715Y0027712D01*
X0003715Y0028310D02*
X0062595Y0028310D01*
X0061997Y0028909D02*
X0003715Y0028909D01*
X0003715Y0029507D02*
X0061780Y0029507D01*
X0061780Y0030106D02*
X0003715Y0030106D01*
X0003715Y0030705D02*
X0011547Y0030705D01*
X0010102Y0031303D02*
X0003715Y0031303D01*
X0003715Y0031902D02*
X0009264Y0031902D01*
X0008665Y0032500D02*
X0003715Y0032500D01*
X0003715Y0033099D02*
X0008163Y0033099D01*
X0007915Y0033697D02*
X0003715Y0033697D01*
X0003715Y0034296D02*
X0007667Y0034296D01*
X0007439Y0034894D02*
X0003715Y0034894D01*
X0003715Y0035493D02*
X0007439Y0035493D01*
X0007439Y0036091D02*
X0003715Y0036091D01*
X0003715Y0036690D02*
X0007439Y0036690D01*
X0007593Y0037288D02*
X0003715Y0037288D01*
X0003715Y0037887D02*
X0007841Y0037887D01*
X0008089Y0038485D02*
X0003715Y0038485D01*
X0003715Y0039084D02*
X0008488Y0039084D01*
X0009086Y0039682D02*
X0003715Y0039682D01*
X0003715Y0040281D02*
X0009188Y0040281D01*
X0008589Y0040879D02*
X0003715Y0040879D01*
X0003715Y0041478D02*
X0007991Y0041478D01*
X0007392Y0042076D02*
X0003715Y0042076D01*
X0003715Y0042675D02*
X0006794Y0042675D01*
X0006239Y0043273D02*
X0003715Y0043273D01*
X0003715Y0043872D02*
X0006239Y0043872D01*
X0006239Y0044470D02*
X0003715Y0044470D01*
X0003715Y0045069D02*
X0006239Y0045069D01*
X0006239Y0045667D02*
X0003715Y0045667D01*
X0003715Y0046266D02*
X0006165Y0046266D01*
X0005566Y0046864D02*
X0003715Y0046864D01*
X0003715Y0047463D02*
X0004968Y0047463D01*
X0004415Y0048061D02*
X0003715Y0048061D01*
X0003715Y0048660D02*
X0004415Y0048660D01*
X0004415Y0049258D02*
X0003715Y0049258D01*
X0003715Y0049857D02*
X0004415Y0049857D01*
X0004415Y0050455D02*
X0003715Y0050455D01*
X0003715Y0051054D02*
X0004415Y0051054D01*
X0004415Y0051652D02*
X0003715Y0051652D01*
X0003715Y0052251D02*
X0004415Y0052251D01*
X0004415Y0052849D02*
X0003715Y0052849D01*
X0003715Y0053448D02*
X0004415Y0053448D01*
X0004415Y0054046D02*
X0003715Y0054046D01*
X0003715Y0054645D02*
X0004415Y0054645D01*
X0004415Y0055243D02*
X0003715Y0055243D01*
X0003715Y0055842D02*
X0004415Y0055842D01*
X0004415Y0056441D02*
X0003715Y0056441D01*
X0003715Y0057039D02*
X0004415Y0057039D01*
X0004415Y0057638D02*
X0003715Y0057638D01*
X0003715Y0058236D02*
X0004415Y0058236D01*
X0004415Y0058835D02*
X0003715Y0058835D01*
X0003715Y0059433D02*
X0004415Y0059433D01*
X0004415Y0060032D02*
X0003715Y0060032D01*
X0003715Y0060630D02*
X0004415Y0060630D01*
X0004415Y0061229D02*
X0003715Y0061229D01*
X0003715Y0061827D02*
X0004415Y0061827D01*
X0004415Y0062426D02*
X0003715Y0062426D01*
X0003715Y0063024D02*
X0004415Y0063024D01*
X0004415Y0063623D02*
X0003715Y0063623D01*
X0003715Y0064221D02*
X0004415Y0064221D01*
X0004415Y0064820D02*
X0003715Y0064820D01*
X0003715Y0065418D02*
X0004415Y0065418D01*
X0004415Y0066017D02*
X0003715Y0066017D01*
X0003715Y0066615D02*
X0004415Y0066615D01*
X0004415Y0067214D02*
X0003715Y0067214D01*
X0003715Y0067812D02*
X0004415Y0067812D01*
X0004415Y0068411D02*
X0003715Y0068411D01*
X0003715Y0069009D02*
X0004415Y0069009D01*
X0004415Y0069608D02*
X0003715Y0069608D01*
X0003715Y0070206D02*
X0004419Y0070206D01*
X0005017Y0070805D02*
X0003715Y0070805D01*
X0003715Y0071403D02*
X0005616Y0071403D01*
X0006214Y0072002D02*
X0003715Y0072002D01*
X0003715Y0072600D02*
X0006813Y0072600D01*
X0007411Y0073199D02*
X0003715Y0073199D01*
X0003715Y0073797D02*
X0007873Y0073797D01*
X0007625Y0074396D02*
X0003715Y0074396D01*
X0003715Y0074994D02*
X0007439Y0074994D01*
X0007439Y0075593D02*
X0003715Y0075593D01*
X0003715Y0076191D02*
X0007439Y0076191D01*
X0007439Y0076790D02*
X0003715Y0076790D01*
X0003715Y0077388D02*
X0007635Y0077388D01*
X0007883Y0077987D02*
X0003715Y0077987D01*
X0003715Y0078585D02*
X0008130Y0078585D01*
X0008588Y0079184D02*
X0003715Y0079184D01*
X0003715Y0079782D02*
X0009186Y0079782D01*
X0009915Y0080381D02*
X0003715Y0080381D01*
X0003715Y0080979D02*
X0010883Y0080979D01*
X0009587Y0081578D02*
X0003715Y0081578D01*
X0003715Y0082176D02*
X0008989Y0082176D01*
X0008390Y0082775D02*
X0003715Y0082775D01*
X0003715Y0083374D02*
X0008049Y0083374D01*
X0007801Y0083972D02*
X0003715Y0083972D01*
X0003715Y0084571D02*
X0007553Y0084571D01*
X0007439Y0085169D02*
X0003715Y0085169D01*
X0003715Y0085768D02*
X0007439Y0085768D01*
X0007439Y0086366D02*
X0003715Y0086366D01*
X0003715Y0086965D02*
X0007459Y0086965D01*
X0007707Y0087563D02*
X0003715Y0087563D01*
X0003715Y0088162D02*
X0007955Y0088162D01*
X0008203Y0088760D02*
X0003715Y0088760D01*
X0003715Y0089359D02*
X0008763Y0089359D01*
X0009361Y0089957D02*
X0003715Y0089957D01*
X0003715Y0090556D02*
X0008913Y0090556D01*
X0008314Y0091154D02*
X0003715Y0091154D01*
X0003715Y0091753D02*
X0007716Y0091753D01*
X0007117Y0092351D02*
X0003715Y0092351D01*
X0003715Y0092950D02*
X0006519Y0092950D01*
X0006239Y0093548D02*
X0003715Y0093548D01*
X0003715Y0094147D02*
X0006239Y0094147D01*
X0006239Y0094745D02*
X0003715Y0094745D01*
X0003715Y0095344D02*
X0006239Y0095344D01*
X0006239Y0095942D02*
X0003715Y0095942D01*
X0003715Y0096541D02*
X0006239Y0096541D01*
X0006239Y0097139D02*
X0003715Y0097139D01*
X0003715Y0097738D02*
X0006239Y0097738D01*
X0006239Y0098336D02*
X0003715Y0098336D01*
X0003715Y0098935D02*
X0006642Y0098935D01*
X0007240Y0099533D02*
X0003715Y0099533D01*
X0003715Y0100132D02*
X0007839Y0100132D01*
X0008437Y0100730D02*
X0003715Y0100730D01*
X0003715Y0101329D02*
X0009036Y0101329D01*
X0009238Y0101927D02*
X0003715Y0101927D01*
X0003715Y0102526D02*
X0008639Y0102526D01*
X0008152Y0103124D02*
X0003715Y0103124D01*
X0003715Y0103723D02*
X0007904Y0103723D01*
X0007656Y0104321D02*
X0003715Y0104321D01*
X0003715Y0104920D02*
X0007439Y0104920D01*
X0007439Y0105518D02*
X0003715Y0105518D01*
X0003715Y0106117D02*
X0007439Y0106117D01*
X0007439Y0106715D02*
X0003715Y0106715D01*
X0003715Y0107314D02*
X0007604Y0107314D01*
X0007852Y0107912D02*
X0003715Y0107912D01*
X0003715Y0108511D02*
X0008100Y0108511D01*
X0008513Y0109109D02*
X0003715Y0109109D01*
X0003715Y0109708D02*
X0009112Y0109708D01*
X0009735Y0110307D02*
X0003715Y0110307D01*
X0003715Y0110905D02*
X0011063Y0110905D01*
X0009662Y0111504D02*
X0003715Y0111504D01*
X0003715Y0112102D02*
X0009063Y0112102D01*
X0008465Y0112701D02*
X0003715Y0112701D01*
X0003715Y0113299D02*
X0008079Y0113299D01*
X0007832Y0113898D02*
X0003715Y0113898D01*
X0003715Y0114496D02*
X0007584Y0114496D01*
X0007439Y0115095D02*
X0003715Y0115095D01*
X0003715Y0115693D02*
X0007439Y0115693D01*
X0007439Y0116292D02*
X0003715Y0116292D01*
X0003715Y0116890D02*
X0007439Y0116890D01*
X0007676Y0117489D02*
X0003715Y0117489D01*
X0003715Y0118087D02*
X0007924Y0118087D01*
X0008172Y0118686D02*
X0003715Y0118686D01*
X0003715Y0119284D02*
X0008688Y0119284D01*
X0009287Y0119883D02*
X0003715Y0119883D01*
X0003715Y0120481D02*
X0010157Y0120481D01*
X0009916Y0121678D02*
X0003715Y0121678D01*
X0003715Y0121080D02*
X0011234Y0121080D01*
X0009171Y0122277D02*
X0003715Y0122277D01*
X0003715Y0122875D02*
X0008642Y0122875D01*
X0008253Y0123474D02*
X0003715Y0123474D01*
X0003715Y0124072D02*
X0007969Y0124072D01*
X0007774Y0124671D02*
X0003715Y0124671D01*
X0003715Y0125269D02*
X0007673Y0125269D01*
X0007669Y0126466D02*
X0003715Y0126466D01*
X0003715Y0125868D02*
X0012339Y0125868D01*
X0012639Y0125881D02*
X0026930Y0111589D01*
X0029056Y0111589D01*
X0029056Y0115159D01*
X0024691Y0119524D01*
X0024691Y0124600D01*
X0025219Y0125127D01*
X0030730Y0125127D01*
X0039785Y0134182D01*
X0048011Y0134182D01*
X0048539Y0133655D01*
X0048539Y0128579D01*
X0048011Y0128052D01*
X0042530Y0128052D01*
X0036371Y0121892D01*
X0042802Y0115461D01*
X0046304Y0115461D01*
X0047534Y0114231D01*
X0047534Y0113230D01*
X0049174Y0111589D01*
X0057520Y0103243D01*
X0061615Y0103243D01*
X0061615Y0104529D01*
X0057546Y0108598D01*
X0057546Y0130837D01*
X0059620Y0132911D01*
X0069620Y0132911D01*
X0073610Y0132911D01*
X0077303Y0129218D01*
X0077303Y0109587D01*
X0075783Y0108067D01*
X0072717Y0105002D01*
X0072717Y0103715D01*
X0073017Y0103723D02*
X0078240Y0103723D01*
X0078240Y0104321D02*
X0076183Y0104321D01*
X0076183Y0104920D02*
X0078240Y0104920D01*
X0078240Y0105518D02*
X0076183Y0105518D01*
X0076112Y0106117D02*
X0078240Y0106117D01*
X0078240Y0106715D02*
X0075690Y0106715D01*
X0075878Y0107314D02*
X0078240Y0107314D01*
X0078240Y0107912D02*
X0076383Y0107912D01*
X0076383Y0108511D02*
X0078240Y0108511D01*
X0078240Y0109109D02*
X0076383Y0109109D01*
X0076383Y0109708D02*
X0078240Y0109708D01*
X0078240Y0110307D02*
X0076383Y0110307D01*
X0076383Y0110905D02*
X0078240Y0110905D01*
X0078240Y0111504D02*
X0076383Y0111504D01*
X0075783Y0111777D02*
X0081715Y0117709D01*
X0081715Y0140962D01*
X0082242Y0141489D01*
X0081333Y0141429D02*
X0003715Y0141429D01*
X0003715Y0140831D02*
X0081115Y0140831D01*
X0081115Y0140232D02*
X0003715Y0140232D01*
X0003715Y0139634D02*
X0081115Y0139634D01*
X0081115Y0139035D02*
X0003715Y0139035D01*
X0003715Y0138437D02*
X0081115Y0138437D01*
X0081115Y0137838D02*
X0003715Y0137838D01*
X0003715Y0137240D02*
X0081115Y0137240D01*
X0081115Y0136641D02*
X0003715Y0136641D01*
X0003715Y0136043D02*
X0081115Y0136043D01*
X0081115Y0135444D02*
X0003715Y0135444D01*
X0003715Y0134845D02*
X0081115Y0134845D01*
X0081115Y0134247D02*
X0048795Y0134247D01*
X0049139Y0133648D02*
X0081435Y0133648D01*
X0082315Y0133050D02*
X0074320Y0133050D01*
X0074918Y0132451D02*
X0082315Y0132451D01*
X0082315Y0131853D02*
X0075083Y0131853D01*
X0075083Y0131254D02*
X0082315Y0131254D01*
X0082315Y0130656D02*
X0075083Y0130656D01*
X0075083Y0130057D02*
X0082315Y0130057D01*
X0082315Y0129459D02*
X0075083Y0129459D01*
X0075083Y0128860D02*
X0082315Y0128860D01*
X0082315Y0128262D02*
X0075083Y0128262D01*
X0074949Y0127663D02*
X0082315Y0127663D01*
X0082315Y0127065D02*
X0075096Y0127065D01*
X0075695Y0126466D02*
X0082315Y0126466D01*
X0082315Y0125868D02*
X0076283Y0125868D01*
X0076283Y0125269D02*
X0082315Y0125269D01*
X0082315Y0124671D02*
X0076283Y0124671D01*
X0076283Y0124072D02*
X0082315Y0124072D01*
X0082315Y0123474D02*
X0076283Y0123474D01*
X0076283Y0122875D02*
X0082315Y0122875D01*
X0082315Y0122277D02*
X0076283Y0122277D01*
X0076283Y0121678D02*
X0082315Y0121678D01*
X0082315Y0121080D02*
X0076283Y0121080D01*
X0076804Y0120481D02*
X0082315Y0120481D01*
X0081787Y0119883D02*
X0077403Y0119883D01*
X0077903Y0119284D02*
X0081188Y0119284D01*
X0081115Y0118686D02*
X0077903Y0118686D01*
X0077903Y0118087D02*
X0081115Y0118087D01*
X0081115Y0117489D02*
X0077903Y0117489D01*
X0077903Y0116890D02*
X0081115Y0116890D01*
X0081115Y0116292D02*
X0077903Y0116292D01*
X0077903Y0115693D02*
X0081115Y0115693D01*
X0081075Y0115095D02*
X0077903Y0115095D01*
X0077903Y0114496D02*
X0080476Y0114496D01*
X0079878Y0113898D02*
X0077903Y0113898D01*
X0077903Y0113299D02*
X0079279Y0113299D01*
X0078681Y0112701D02*
X0077555Y0112701D01*
X0076957Y0112102D02*
X0078240Y0112102D01*
X0076103Y0113794D02*
X0072717Y0110408D01*
X0075783Y0111777D02*
X0075783Y0108067D01*
X0073017Y0106940D02*
X0073017Y0104015D01*
X0072417Y0104015D01*
X0072417Y0106940D01*
X0073017Y0106940D01*
X0073017Y0106715D02*
X0072417Y0106715D01*
X0072417Y0106117D02*
X0073017Y0106117D01*
X0073017Y0105518D02*
X0072417Y0105518D01*
X0072417Y0104920D02*
X0073017Y0104920D01*
X0073017Y0104321D02*
X0072417Y0104321D01*
X0072417Y0103124D02*
X0073017Y0103124D01*
X0073017Y0102526D02*
X0072417Y0102526D01*
X0072417Y0101927D02*
X0073017Y0101927D01*
X0073017Y0101329D02*
X0072417Y0101329D01*
X0072417Y0100730D02*
X0073017Y0100730D01*
X0073036Y0099533D02*
X0076108Y0099533D01*
X0075509Y0098935D02*
X0074017Y0098935D01*
X0074516Y0098336D02*
X0074911Y0098336D01*
X0076706Y0100132D02*
X0071563Y0100132D01*
X0069652Y0099497D02*
X0069652Y0112750D01*
X0071615Y0114713D01*
X0071615Y0123137D01*
X0074483Y0125132D02*
X0074483Y0120256D01*
X0076103Y0118637D01*
X0076103Y0113794D01*
X0080040Y0111515D02*
X0084115Y0115589D01*
X0084115Y0137589D01*
X0093342Y0137589D01*
X0092942Y0135444D02*
X0087115Y0135444D01*
X0087115Y0134845D02*
X0093540Y0134845D01*
X0094139Y0134247D02*
X0087115Y0134247D01*
X0086795Y0133648D02*
X0094737Y0133648D01*
X0095336Y0133050D02*
X0085915Y0133050D01*
X0085915Y0132451D02*
X0095935Y0132451D01*
X0096238Y0137240D02*
X0096315Y0137240D01*
X0096315Y0139634D02*
X0087115Y0139634D01*
X0087115Y0140232D02*
X0096315Y0140232D01*
X0096334Y0140831D02*
X0087115Y0140831D01*
X0086897Y0141429D02*
X0096616Y0141429D01*
X0086298Y0142028D02*
X0124515Y0142028D01*
X0124515Y0135444D02*
X0110306Y0135444D01*
X0110904Y0134845D02*
X0124515Y0134845D01*
X0124515Y0134247D02*
X0111503Y0134247D01*
X0112101Y0133648D02*
X0124515Y0133648D01*
X0124515Y0133050D02*
X0112700Y0133050D01*
X0113298Y0132451D02*
X0124515Y0132451D01*
X0124515Y0131853D02*
X0113897Y0131853D01*
X0111200Y0129459D02*
X0085915Y0129459D01*
X0085915Y0130057D02*
X0110601Y0130057D01*
X0110003Y0130656D02*
X0085915Y0130656D01*
X0085915Y0131254D02*
X0109404Y0131254D01*
X0108806Y0131853D02*
X0085915Y0131853D01*
X0085915Y0128860D02*
X0111798Y0128860D01*
X0111679Y0128262D02*
X0085915Y0128262D01*
X0085915Y0127663D02*
X0111431Y0127663D01*
X0111415Y0127065D02*
X0085915Y0127065D01*
X0085915Y0126466D02*
X0111415Y0126466D01*
X0111415Y0125868D02*
X0085915Y0125868D01*
X0085915Y0125269D02*
X0111533Y0125269D01*
X0111781Y0124671D02*
X0085915Y0124671D01*
X0085915Y0124072D02*
X0112029Y0124072D01*
X0112377Y0123474D02*
X0085915Y0123474D01*
X0085915Y0122875D02*
X0112975Y0122875D01*
X0113574Y0122277D02*
X0085915Y0122277D01*
X0085915Y0121678D02*
X0114883Y0121678D01*
X0113867Y0121080D02*
X0085915Y0121080D01*
X0085915Y0120481D02*
X0113153Y0120481D01*
X0112554Y0119883D02*
X0100811Y0119883D01*
X0100786Y0119889D02*
X0099415Y0119889D01*
X0099415Y0115889D01*
X0101915Y0115889D01*
X0101915Y0118761D01*
X0101826Y0119091D01*
X0101655Y0119388D01*
X0101413Y0119630D01*
X0101117Y0119801D01*
X0100786Y0119889D01*
X0101715Y0119284D02*
X0112103Y0119284D01*
X0111855Y0118686D02*
X0101915Y0118686D01*
X0101915Y0118087D02*
X0111607Y0118087D01*
X0111415Y0117489D02*
X0101915Y0117489D01*
X0101915Y0116890D02*
X0111415Y0116890D01*
X0111415Y0116292D02*
X0101915Y0116292D01*
X0101915Y0115289D02*
X0099415Y0115289D01*
X0099415Y0111289D01*
X0100786Y0111289D01*
X0101117Y0111378D01*
X0101413Y0111549D01*
X0101655Y0111791D01*
X0101826Y0112088D01*
X0101915Y0112418D01*
X0101915Y0115289D01*
X0101915Y0115095D02*
X0111606Y0115095D01*
X0111415Y0115693D02*
X0099415Y0115693D01*
X0099415Y0115889D02*
X0099415Y0115289D01*
X0098815Y0115289D01*
X0098815Y0111289D01*
X0097444Y0111289D01*
X0097113Y0111378D01*
X0096817Y0111549D01*
X0096575Y0111791D01*
X0096404Y0112088D01*
X0096315Y0112418D01*
X0096315Y0115289D01*
X0098815Y0115289D01*
X0098815Y0115889D01*
X0096315Y0115889D01*
X0096315Y0118761D01*
X0096404Y0119091D01*
X0096575Y0119388D01*
X0096817Y0119630D01*
X0097113Y0119801D01*
X0097444Y0119889D01*
X0098815Y0119889D01*
X0098815Y0115889D01*
X0099415Y0115889D01*
X0099415Y0116292D02*
X0098815Y0116292D01*
X0098815Y0116890D02*
X0099415Y0116890D01*
X0099415Y0117489D02*
X0098815Y0117489D01*
X0098815Y0118087D02*
X0099415Y0118087D01*
X0099415Y0118686D02*
X0098815Y0118686D01*
X0098815Y0119284D02*
X0099415Y0119284D01*
X0099415Y0119883D02*
X0098815Y0119883D01*
X0097419Y0119883D02*
X0086443Y0119883D01*
X0087041Y0119284D02*
X0096515Y0119284D01*
X0096315Y0118686D02*
X0087115Y0118686D01*
X0087115Y0118087D02*
X0096315Y0118087D01*
X0096315Y0117489D02*
X0087115Y0117489D01*
X0087115Y0116890D02*
X0096315Y0116890D01*
X0096315Y0116292D02*
X0087115Y0116292D01*
X0087115Y0115693D02*
X0098815Y0115693D01*
X0099115Y0115589D02*
X0099115Y0115201D01*
X0074571Y0090657D01*
X0071177Y0090657D01*
X0068452Y0093382D01*
X0068452Y0131743D01*
X0069620Y0132911D01*
X0068910Y0133050D02*
X0064320Y0133050D01*
X0064918Y0132451D02*
X0068312Y0132451D01*
X0068146Y0131853D02*
X0065083Y0131853D01*
X0065083Y0131254D02*
X0068146Y0131254D01*
X0068146Y0130656D02*
X0065083Y0130656D01*
X0065083Y0130057D02*
X0068146Y0130057D01*
X0068146Y0129459D02*
X0065083Y0129459D01*
X0065083Y0128860D02*
X0068146Y0128860D01*
X0068146Y0128262D02*
X0065083Y0128262D01*
X0064949Y0127663D02*
X0068281Y0127663D01*
X0068880Y0127065D02*
X0064350Y0127065D01*
X0063998Y0126466D02*
X0069232Y0126466D01*
X0068634Y0125868D02*
X0064596Y0125868D01*
X0065083Y0125269D02*
X0068146Y0125269D01*
X0068146Y0124671D02*
X0065083Y0124671D01*
X0065083Y0124072D02*
X0068146Y0124072D01*
X0068146Y0123474D02*
X0065083Y0123474D01*
X0065083Y0122875D02*
X0068146Y0122875D01*
X0068146Y0122277D02*
X0065083Y0122277D01*
X0065619Y0121678D02*
X0068146Y0121678D01*
X0068146Y0121080D02*
X0066217Y0121080D01*
X0066480Y0120481D02*
X0068558Y0120481D01*
X0069156Y0119883D02*
X0066480Y0119883D01*
X0066480Y0119284D02*
X0069815Y0119284D01*
X0069815Y0118686D02*
X0066480Y0118686D01*
X0066480Y0118087D02*
X0069815Y0118087D01*
X0069815Y0117489D02*
X0066480Y0117489D01*
X0066480Y0116890D02*
X0069815Y0116890D01*
X0069815Y0116292D02*
X0066480Y0116292D01*
X0066480Y0115693D02*
X0069815Y0115693D01*
X0069451Y0115095D02*
X0066480Y0115095D01*
X0066480Y0114496D02*
X0068853Y0114496D01*
X0068254Y0113898D02*
X0066480Y0113898D01*
X0066480Y0113299D02*
X0067852Y0113299D01*
X0067852Y0112701D02*
X0066480Y0112701D01*
X0066480Y0112102D02*
X0067852Y0112102D01*
X0067852Y0111504D02*
X0066480Y0111504D01*
X0066480Y0110905D02*
X0067852Y0110905D01*
X0067852Y0110307D02*
X0066480Y0110307D01*
X0066480Y0109708D02*
X0067852Y0109708D01*
X0067852Y0109109D02*
X0066480Y0109109D01*
X0066480Y0108511D02*
X0067852Y0108511D01*
X0067852Y0107912D02*
X0066480Y0107912D01*
X0066480Y0107314D02*
X0067852Y0107314D01*
X0067852Y0106715D02*
X0066480Y0106715D01*
X0066480Y0106117D02*
X0067852Y0106117D01*
X0067852Y0105518D02*
X0066480Y0105518D01*
X0066480Y0104920D02*
X0067852Y0104920D01*
X0067852Y0104321D02*
X0066480Y0104321D01*
X0066480Y0103723D02*
X0067852Y0103723D01*
X0067852Y0103124D02*
X0066480Y0103124D01*
X0066480Y0102526D02*
X0067852Y0102526D01*
X0067852Y0101927D02*
X0066480Y0101927D01*
X0066480Y0101329D02*
X0067852Y0101329D01*
X0067852Y0100730D02*
X0066480Y0100730D01*
X0066456Y0100132D02*
X0067852Y0100132D01*
X0067852Y0099533D02*
X0066092Y0099533D01*
X0066092Y0098935D02*
X0067852Y0098935D01*
X0068267Y0098336D02*
X0066092Y0098336D01*
X0066092Y0097738D02*
X0068866Y0097738D01*
X0069464Y0097139D02*
X0066092Y0097139D01*
X0066092Y0096541D02*
X0069477Y0096541D01*
X0069687Y0095942D02*
X0066092Y0095942D01*
X0066092Y0095344D02*
X0070003Y0095344D01*
X0070063Y0094745D02*
X0066092Y0094745D01*
X0066092Y0094147D02*
X0069712Y0094147D01*
X0069477Y0093548D02*
X0066092Y0093548D01*
X0066092Y0092950D02*
X0069477Y0092950D01*
X0069543Y0092351D02*
X0066092Y0092351D01*
X0066092Y0091753D02*
X0069791Y0091753D01*
X0070255Y0091154D02*
X0066092Y0091154D01*
X0066092Y0090556D02*
X0071152Y0090556D01*
X0073180Y0090556D02*
X0086815Y0090556D01*
X0087414Y0091154D02*
X0074077Y0091154D01*
X0074541Y0091753D02*
X0088012Y0091753D01*
X0088611Y0092351D02*
X0074789Y0092351D01*
X0074855Y0092950D02*
X0100430Y0092950D01*
X0101028Y0093548D02*
X0075214Y0093548D01*
X0075812Y0094147D02*
X0101627Y0094147D01*
X0102225Y0094745D02*
X0076411Y0094745D01*
X0077009Y0095344D02*
X0102824Y0095344D01*
X0103422Y0095942D02*
X0077608Y0095942D01*
X0078206Y0096541D02*
X0104021Y0096541D01*
X0104619Y0097139D02*
X0078805Y0097139D01*
X0079403Y0097738D02*
X0105218Y0097738D01*
X0105816Y0098336D02*
X0080002Y0098336D01*
X0080600Y0098935D02*
X0106415Y0098935D01*
X0107013Y0099533D02*
X0081199Y0099533D01*
X0081797Y0100132D02*
X0107612Y0100132D01*
X0108210Y0100730D02*
X0081840Y0100730D01*
X0081840Y0101329D02*
X0108809Y0101329D01*
X0109407Y0101927D02*
X0081840Y0101927D01*
X0081840Y0102526D02*
X0110006Y0102526D01*
X0110604Y0103124D02*
X0081840Y0103124D01*
X0081840Y0103723D02*
X0111203Y0103723D01*
X0111801Y0104321D02*
X0081840Y0104321D01*
X0081840Y0104920D02*
X0111678Y0104920D01*
X0111430Y0105518D02*
X0081840Y0105518D01*
X0081840Y0106117D02*
X0111415Y0106117D01*
X0111415Y0106715D02*
X0081840Y0106715D01*
X0081840Y0107314D02*
X0111415Y0107314D01*
X0111535Y0107912D02*
X0081840Y0107912D01*
X0081840Y0108511D02*
X0111782Y0108511D01*
X0112030Y0109109D02*
X0081840Y0109109D01*
X0081840Y0109708D02*
X0112380Y0109708D01*
X0112978Y0110307D02*
X0081840Y0110307D01*
X0081976Y0110905D02*
X0113577Y0110905D01*
X0113860Y0112102D02*
X0101830Y0112102D01*
X0101915Y0112701D02*
X0113150Y0112701D01*
X0112551Y0113299D02*
X0101915Y0113299D01*
X0101915Y0113898D02*
X0112101Y0113898D01*
X0111854Y0114496D02*
X0101915Y0114496D01*
X0099415Y0114496D02*
X0098815Y0114496D01*
X0098815Y0113898D02*
X0099415Y0113898D01*
X0099415Y0113299D02*
X0098815Y0113299D01*
X0098815Y0112701D02*
X0099415Y0112701D01*
X0099415Y0112102D02*
X0098815Y0112102D01*
X0098815Y0111504D02*
X0099415Y0111504D01*
X0101334Y0111504D02*
X0114891Y0111504D01*
X0116615Y0106589D02*
X0101103Y0091078D01*
X0089883Y0091078D01*
X0078660Y0079855D01*
X0067408Y0079855D01*
X0053320Y0065768D01*
X0053320Y0055074D01*
X0047315Y0055074D01*
X0047315Y0057633D02*
X0031366Y0057633D01*
X0028439Y0060560D01*
X0028439Y0070081D01*
X0012639Y0085881D01*
X0010733Y0091281D02*
X0015542Y0091281D01*
X0020565Y0086258D01*
X0020565Y0083204D01*
X0022954Y0085566D02*
X0022954Y0079267D01*
X0024275Y0076790D02*
X0027651Y0076790D01*
X0027559Y0077388D02*
X0024878Y0077388D01*
X0025334Y0077987D02*
X0027559Y0077987D01*
X0027559Y0079184D02*
X0025643Y0079184D01*
X0025643Y0079782D02*
X0027559Y0079782D01*
X0027601Y0080381D02*
X0025402Y0080381D01*
X0025043Y0080979D02*
X0027946Y0080979D01*
X0027350Y0081957D02*
X0030631Y0078676D01*
X0030931Y0078585D02*
X0037443Y0078585D01*
X0036845Y0077987D02*
X0033702Y0077987D01*
X0033702Y0077388D02*
X0036246Y0077388D01*
X0035648Y0076790D02*
X0033610Y0076790D01*
X0033268Y0076191D02*
X0035049Y0076191D01*
X0034451Y0075593D02*
X0033867Y0075593D01*
X0034961Y0073558D02*
X0038702Y0077298D01*
X0046508Y0077298D01*
X0047315Y0078105D01*
X0048124Y0076355D02*
X0047315Y0075546D01*
X0048124Y0076355D02*
X0050938Y0076355D01*
X0051465Y0076882D01*
X0051465Y0080219D01*
X0058387Y0087141D01*
X0053681Y0091846D01*
X0032605Y0091846D01*
X0028550Y0095902D01*
X0028550Y0100584D01*
X0029077Y0101111D01*
X0034153Y0101111D01*
X0039403Y0106361D01*
X0034174Y0111589D01*
X0036899Y0111589D01*
X0039571Y0108918D01*
X0045807Y0108918D01*
X0046334Y0109445D01*
X0046334Y0113734D01*
X0045807Y0114261D01*
X0042305Y0114261D01*
X0034674Y0121892D01*
X0043898Y0131117D01*
X0042392Y0127065D02*
X0058134Y0127065D01*
X0058281Y0127663D02*
X0048472Y0127663D01*
X0049070Y0128262D02*
X0058146Y0128262D01*
X0058146Y0128860D02*
X0049139Y0128860D01*
X0049139Y0129459D02*
X0058146Y0129459D01*
X0058146Y0130057D02*
X0049139Y0130057D01*
X0049139Y0130656D02*
X0058146Y0130656D01*
X0058146Y0131254D02*
X0049139Y0131254D01*
X0049139Y0131853D02*
X0058146Y0131853D01*
X0058312Y0132451D02*
X0049139Y0132451D01*
X0049139Y0133050D02*
X0058910Y0133050D01*
X0061615Y0130042D02*
X0061615Y0128000D01*
X0058746Y0125132D01*
X0058746Y0121141D01*
X0061615Y0118273D01*
X0061615Y0109936D01*
X0057950Y0109708D02*
X0051852Y0109708D01*
X0051852Y0110307D02*
X0057950Y0110307D01*
X0057950Y0110905D02*
X0051852Y0110905D01*
X0051852Y0112102D02*
X0057950Y0112102D01*
X0057950Y0111504D02*
X0049474Y0111504D01*
X0049474Y0112102D02*
X0048874Y0112102D01*
X0048874Y0112701D02*
X0049474Y0112701D01*
X0049474Y0113299D02*
X0048874Y0113299D01*
X0048874Y0113898D02*
X0049474Y0113898D01*
X0049474Y0114496D02*
X0048874Y0114496D01*
X0051186Y0114496D02*
X0059815Y0114496D01*
X0059815Y0113898D02*
X0051743Y0113898D01*
X0051852Y0113299D02*
X0058723Y0113299D01*
X0058125Y0112701D02*
X0051852Y0112701D01*
X0049474Y0110905D02*
X0048874Y0110905D01*
X0048874Y0110307D02*
X0049474Y0110307D01*
X0049474Y0109708D02*
X0048874Y0109708D01*
X0048874Y0109109D02*
X0049474Y0109109D01*
X0047945Y0108511D02*
X0057950Y0108511D01*
X0057950Y0109109D02*
X0051644Y0109109D01*
X0047347Y0107912D02*
X0057950Y0107912D01*
X0057982Y0107314D02*
X0046748Y0107314D01*
X0044056Y0111589D02*
X0038596Y0111589D01*
X0035925Y0114261D01*
X0032423Y0114261D01*
X0031896Y0113734D01*
X0031896Y0105217D01*
X0031615Y0104936D01*
X0031615Y0119778D01*
X0029331Y0122062D01*
X0029815Y0118087D02*
X0017353Y0118087D01*
X0017601Y0117489D02*
X0029815Y0117489D01*
X0029815Y0116890D02*
X0017839Y0116890D01*
X0017839Y0116292D02*
X0029815Y0116292D01*
X0029815Y0115693D02*
X0017839Y0115693D01*
X0017839Y0115095D02*
X0029815Y0115095D01*
X0029356Y0114496D02*
X0028756Y0114496D01*
X0028756Y0113898D02*
X0029356Y0113898D01*
X0029356Y0113299D02*
X0028756Y0113299D01*
X0028756Y0112701D02*
X0029356Y0112701D01*
X0029356Y0112102D02*
X0028756Y0112102D01*
X0029056Y0111589D02*
X0029056Y0107783D01*
X0027350Y0106077D01*
X0027350Y0081957D01*
X0024754Y0082176D02*
X0050877Y0082176D01*
X0050278Y0081578D02*
X0024754Y0081578D01*
X0024754Y0082775D02*
X0051475Y0082775D01*
X0052074Y0083374D02*
X0024754Y0083374D01*
X0024754Y0083972D02*
X0052673Y0083972D01*
X0053271Y0084571D02*
X0024754Y0084571D01*
X0024754Y0085169D02*
X0053870Y0085169D01*
X0054468Y0085768D02*
X0024754Y0085768D01*
X0024699Y0086366D02*
X0055067Y0086366D01*
X0055665Y0086965D02*
X0024100Y0086965D01*
X0023502Y0087563D02*
X0055418Y0087563D01*
X0054820Y0088162D02*
X0022903Y0088162D01*
X0022305Y0088760D02*
X0054221Y0088760D01*
X0053623Y0089359D02*
X0021706Y0089359D01*
X0021108Y0089957D02*
X0053024Y0089957D01*
X0056418Y0093046D02*
X0036812Y0093046D01*
X0031615Y0098243D01*
X0035280Y0098336D02*
X0062492Y0098336D01*
X0062492Y0097738D02*
X0035280Y0097738D01*
X0035280Y0097139D02*
X0062492Y0097139D01*
X0062492Y0096541D02*
X0035863Y0096541D01*
X0036461Y0095942D02*
X0062492Y0095942D01*
X0062492Y0095344D02*
X0037060Y0095344D01*
X0035280Y0098935D02*
X0062492Y0098935D01*
X0062492Y0099533D02*
X0035280Y0099533D01*
X0035719Y0100132D02*
X0058829Y0100132D01*
X0058263Y0100730D02*
X0036318Y0100730D01*
X0036916Y0101329D02*
X0058150Y0101329D01*
X0058150Y0101927D02*
X0037515Y0101927D01*
X0038113Y0102526D02*
X0058150Y0102526D01*
X0058150Y0103723D02*
X0039310Y0103723D01*
X0038712Y0103124D02*
X0061315Y0103124D01*
X0061315Y0102526D02*
X0061915Y0102526D01*
X0061915Y0101927D02*
X0061315Y0101927D01*
X0061315Y0101329D02*
X0061915Y0101329D01*
X0061915Y0100730D02*
X0061315Y0100730D01*
X0061315Y0100132D02*
X0061915Y0100132D01*
X0064292Y0100513D02*
X0064680Y0100902D01*
X0064680Y0120071D01*
X0061615Y0123137D01*
X0056946Y0122875D02*
X0049139Y0122875D01*
X0049139Y0122277D02*
X0056946Y0122277D01*
X0056946Y0121678D02*
X0049139Y0121678D01*
X0049139Y0121080D02*
X0056946Y0121080D01*
X0056946Y0120481D02*
X0049139Y0120481D01*
X0049139Y0119883D02*
X0057459Y0119883D01*
X0058058Y0119284D02*
X0049139Y0119284D01*
X0048549Y0118686D02*
X0058656Y0118686D01*
X0059255Y0118087D02*
X0041025Y0118087D01*
X0041623Y0117489D02*
X0059815Y0117489D01*
X0059815Y0116890D02*
X0042222Y0116890D01*
X0042820Y0116292D02*
X0059815Y0116292D01*
X0059815Y0115693D02*
X0046920Y0115693D01*
X0047519Y0115095D02*
X0059815Y0115095D01*
X0058580Y0106715D02*
X0041203Y0106715D01*
X0041203Y0106117D02*
X0058517Y0106117D01*
X0058186Y0105518D02*
X0041106Y0105518D01*
X0040507Y0104920D02*
X0058150Y0104920D01*
X0058150Y0104321D02*
X0039909Y0104321D01*
X0029815Y0108511D02*
X0017178Y0108511D01*
X0017425Y0107912D02*
X0028336Y0107912D01*
X0027950Y0107314D02*
X0017673Y0107314D01*
X0017839Y0106715D02*
X0027950Y0106715D01*
X0027950Y0106117D02*
X0017839Y0106117D01*
X0017839Y0105518D02*
X0027950Y0105518D01*
X0027950Y0104920D02*
X0017839Y0104920D01*
X0017621Y0104321D02*
X0027950Y0104321D01*
X0027950Y0103723D02*
X0017373Y0103723D01*
X0017125Y0103124D02*
X0027950Y0103124D01*
X0027946Y0102526D02*
X0016638Y0102526D01*
X0016039Y0101927D02*
X0027347Y0101927D01*
X0026750Y0101329D02*
X0015238Y0101329D01*
X0014519Y0100730D02*
X0026750Y0100730D01*
X0026750Y0100132D02*
X0015741Y0100132D01*
X0016340Y0099533D02*
X0026750Y0099533D01*
X0026750Y0098935D02*
X0016938Y0098935D01*
X0017250Y0098336D02*
X0026750Y0098336D01*
X0026750Y0097738D02*
X0017498Y0097738D01*
X0017746Y0097139D02*
X0026750Y0097139D01*
X0026750Y0096541D02*
X0017839Y0096541D01*
X0017839Y0095942D02*
X0026750Y0095942D01*
X0026750Y0095344D02*
X0017839Y0095344D01*
X0017797Y0094745D02*
X0027160Y0094745D01*
X0027759Y0094147D02*
X0017549Y0094147D01*
X0017517Y0093548D02*
X0028357Y0093548D01*
X0028956Y0092950D02*
X0018115Y0092950D01*
X0018714Y0092351D02*
X0029554Y0092351D01*
X0030153Y0091753D02*
X0019312Y0091753D01*
X0019911Y0091154D02*
X0030751Y0091154D01*
X0031350Y0090556D02*
X0020509Y0090556D01*
X0022954Y0085566D02*
X0012639Y0095881D01*
X0008039Y0097786D02*
X0008039Y0093975D01*
X0010733Y0091281D01*
X0008039Y0097786D02*
X0012639Y0102386D01*
X0012639Y0105881D01*
X0016165Y0109708D02*
X0026378Y0109708D01*
X0026378Y0110307D02*
X0015542Y0110307D01*
X0015615Y0111504D02*
X0028756Y0111504D01*
X0028756Y0110905D02*
X0029356Y0110905D01*
X0029356Y0110307D02*
X0028756Y0110307D01*
X0028756Y0109708D02*
X0029356Y0109708D01*
X0029356Y0109109D02*
X0028756Y0109109D01*
X0026586Y0109109D02*
X0016764Y0109109D01*
X0016214Y0112102D02*
X0026378Y0112102D01*
X0026378Y0112701D02*
X0016812Y0112701D01*
X0017198Y0113299D02*
X0026378Y0113299D01*
X0026487Y0113898D02*
X0017446Y0113898D01*
X0017693Y0114496D02*
X0027044Y0114496D01*
X0026378Y0110905D02*
X0014214Y0110905D01*
X0017105Y0118686D02*
X0024681Y0118686D01*
X0024091Y0119284D02*
X0016589Y0119284D01*
X0015990Y0119883D02*
X0024091Y0119883D01*
X0024091Y0120481D02*
X0015120Y0120481D01*
X0015361Y0121678D02*
X0024091Y0121678D01*
X0024091Y0121080D02*
X0014043Y0121080D01*
X0016106Y0122277D02*
X0024091Y0122277D01*
X0024091Y0122875D02*
X0016635Y0122875D01*
X0017024Y0123474D02*
X0024091Y0123474D01*
X0024091Y0124072D02*
X0017308Y0124072D01*
X0017503Y0124671D02*
X0024091Y0124671D01*
X0024512Y0125269D02*
X0017604Y0125269D01*
X0017608Y0126466D02*
X0036702Y0126466D01*
X0036104Y0125868D02*
X0012939Y0125868D01*
X0012939Y0126466D02*
X0012339Y0126466D01*
X0012339Y0127065D02*
X0012939Y0127065D01*
X0012939Y0127663D02*
X0012339Y0127663D01*
X0012339Y0128262D02*
X0012939Y0128262D01*
X0012939Y0128860D02*
X0012339Y0128860D01*
X0012339Y0129459D02*
X0012939Y0129459D01*
X0012939Y0130057D02*
X0012339Y0130057D01*
X0012339Y0130656D02*
X0012939Y0130656D01*
X0014122Y0130656D02*
X0024091Y0130656D01*
X0024091Y0131254D02*
X0003715Y0131254D01*
X0003715Y0130656D02*
X0011155Y0130656D01*
X0009881Y0130057D02*
X0003715Y0130057D01*
X0003715Y0129459D02*
X0009146Y0129459D01*
X0008623Y0128860D02*
X0003715Y0128860D01*
X0003715Y0128262D02*
X0008240Y0128262D01*
X0007960Y0127663D02*
X0003715Y0127663D01*
X0003715Y0127065D02*
X0007766Y0127065D01*
X0003715Y0131853D02*
X0024091Y0131853D01*
X0024091Y0132451D02*
X0003715Y0132451D01*
X0003715Y0133050D02*
X0024091Y0133050D01*
X0024091Y0133648D02*
X0003715Y0133648D01*
X0003715Y0134247D02*
X0024435Y0134247D01*
X0024091Y0133904D02*
X0024970Y0134782D01*
X0033693Y0134782D01*
X0034572Y0133904D01*
X0034572Y0128330D01*
X0033693Y0127452D01*
X0024970Y0127452D01*
X0024091Y0128330D01*
X0024091Y0133904D01*
X0024091Y0130057D02*
X0015396Y0130057D01*
X0016131Y0129459D02*
X0024091Y0129459D01*
X0024091Y0128860D02*
X0016654Y0128860D01*
X0017037Y0128262D02*
X0024160Y0128262D01*
X0024758Y0127663D02*
X0017317Y0127663D01*
X0017511Y0127065D02*
X0037301Y0127065D01*
X0037899Y0127663D02*
X0033905Y0127663D01*
X0034503Y0128262D02*
X0038498Y0128262D01*
X0038658Y0128860D02*
X0034572Y0128860D01*
X0034572Y0129459D02*
X0038658Y0129459D01*
X0038658Y0130057D02*
X0034572Y0130057D01*
X0034572Y0130656D02*
X0038658Y0130656D01*
X0038658Y0131254D02*
X0034572Y0131254D01*
X0034572Y0131853D02*
X0038658Y0131853D01*
X0038658Y0132451D02*
X0034572Y0132451D01*
X0034572Y0133050D02*
X0038658Y0133050D01*
X0038658Y0133648D02*
X0034572Y0133648D01*
X0034228Y0134247D02*
X0039002Y0134247D01*
X0041793Y0126466D02*
X0057535Y0126466D01*
X0056946Y0125868D02*
X0041195Y0125868D01*
X0035505Y0125269D02*
X0034151Y0125269D01*
X0034572Y0124671D02*
X0034907Y0124671D01*
X0048718Y0125269D02*
X0056946Y0125269D01*
X0056946Y0124671D02*
X0049139Y0124671D01*
X0049139Y0124072D02*
X0056946Y0124072D01*
X0056946Y0123474D02*
X0049139Y0123474D01*
X0061315Y0106117D02*
X0061915Y0106117D01*
X0061915Y0105518D02*
X0061315Y0105518D01*
X0061315Y0104920D02*
X0061915Y0104920D01*
X0061915Y0104321D02*
X0061315Y0104321D01*
X0061315Y0103723D02*
X0061915Y0103723D01*
X0064292Y0100513D02*
X0064292Y0079267D01*
X0052894Y0067869D01*
X0047315Y0067869D01*
X0045966Y0066119D02*
X0046775Y0065310D01*
X0044501Y0065310D01*
X0043692Y0066119D02*
X0043165Y0066646D01*
X0043165Y0066929D01*
X0038702Y0071393D01*
X0038702Y0067456D02*
X0043406Y0062751D01*
X0047315Y0062751D01*
X0047315Y0060192D02*
X0040060Y0060192D01*
X0038702Y0061550D01*
X0043692Y0066119D02*
X0045966Y0066119D01*
X0046775Y0065310D02*
X0047315Y0065310D01*
X0047315Y0070428D02*
X0051517Y0070428D01*
X0060355Y0079267D01*
X0062324Y0085172D02*
X0062324Y0087141D01*
X0056418Y0093046D01*
X0057265Y0094745D02*
X0062492Y0094745D01*
X0062492Y0094147D02*
X0057863Y0094147D01*
X0058462Y0093548D02*
X0062492Y0093548D01*
X0062492Y0092950D02*
X0059060Y0092950D01*
X0059659Y0092351D02*
X0062492Y0092351D01*
X0062492Y0091753D02*
X0060257Y0091753D01*
X0060856Y0091154D02*
X0062492Y0091154D01*
X0062492Y0090556D02*
X0061454Y0090556D01*
X0062053Y0089957D02*
X0062492Y0089957D01*
X0066092Y0089957D02*
X0086217Y0089957D01*
X0085618Y0089359D02*
X0066092Y0089359D01*
X0066092Y0088760D02*
X0085020Y0088760D01*
X0084421Y0088162D02*
X0066092Y0088162D01*
X0066092Y0087563D02*
X0083823Y0087563D01*
X0083224Y0086965D02*
X0066092Y0086965D01*
X0066092Y0086366D02*
X0082626Y0086366D01*
X0082027Y0085768D02*
X0066092Y0085768D01*
X0066092Y0085169D02*
X0081429Y0085169D01*
X0080830Y0084571D02*
X0066092Y0084571D01*
X0066092Y0083972D02*
X0080232Y0083972D01*
X0079633Y0083374D02*
X0066092Y0083374D01*
X0066092Y0082775D02*
X0079035Y0082775D01*
X0078436Y0082176D02*
X0066092Y0082176D01*
X0066092Y0081578D02*
X0066585Y0081578D01*
X0062324Y0085172D02*
X0050139Y0072987D01*
X0047315Y0072987D01*
X0042565Y0079184D02*
X0033702Y0079184D01*
X0033702Y0079782D02*
X0042771Y0079782D01*
X0043369Y0080381D02*
X0033661Y0080381D01*
X0033315Y0080979D02*
X0049680Y0080979D01*
X0058387Y0067456D02*
X0066261Y0075330D01*
X0075698Y0075330D01*
X0075915Y0075546D01*
X0076724Y0077296D02*
X0087850Y0077296D01*
X0093951Y0071196D01*
X0094646Y0071196D01*
X0097560Y0071196D01*
X0101694Y0075330D01*
X0102474Y0074994D02*
X0080665Y0074994D01*
X0080665Y0074396D02*
X0087458Y0074396D01*
X0087529Y0074467D02*
X0086650Y0073589D01*
X0086650Y0072996D01*
X0080665Y0072996D01*
X0080665Y0077017D01*
X0080465Y0077217D01*
X0080465Y0077980D01*
X0076040Y0077980D01*
X0076040Y0078055D01*
X0079406Y0078055D01*
X0079581Y0078230D01*
X0080465Y0078230D01*
X0080465Y0079114D01*
X0090628Y0089278D01*
X0101849Y0089278D01*
X0114435Y0101864D01*
X0115098Y0101589D01*
X0113669Y0100998D01*
X0112207Y0099535D01*
X0111415Y0097624D01*
X0111415Y0095555D01*
X0112207Y0093644D01*
X0113669Y0092181D01*
X0115098Y0091589D01*
X0113669Y0090998D01*
X0112207Y0089535D01*
X0111415Y0087624D01*
X0111415Y0085555D01*
X0111889Y0084409D01*
X0097324Y0069844D01*
X0097324Y0070896D01*
X0094946Y0070896D01*
X0094946Y0068124D01*
X0095604Y0068124D01*
X0092572Y0065092D01*
X0092572Y0066022D01*
X0092162Y0067010D01*
X0091406Y0067767D01*
X0091328Y0067799D01*
X0091328Y0067924D01*
X0091528Y0067924D01*
X0092229Y0068625D01*
X0092470Y0068384D01*
X0092767Y0068213D01*
X0093097Y0068124D01*
X0094346Y0068124D01*
X0094346Y0070896D01*
X0092406Y0070896D01*
X0092406Y0071496D01*
X0094346Y0071496D01*
X0094346Y0074267D01*
X0093097Y0074267D01*
X0092767Y0074179D01*
X0092470Y0074008D01*
X0092229Y0073766D01*
X0091528Y0074467D01*
X0087529Y0074467D01*
X0086859Y0073797D02*
X0080665Y0073797D01*
X0080665Y0073199D02*
X0086650Y0073199D01*
X0089528Y0071196D02*
X0076683Y0071196D01*
X0075915Y0070428D01*
X0075106Y0072178D02*
X0075915Y0072987D01*
X0075106Y0072178D02*
X0072292Y0072178D01*
X0071507Y0071393D01*
X0066261Y0071393D01*
X0058387Y0063519D01*
X0066610Y0053448D02*
X0071319Y0053448D01*
X0071165Y0054046D02*
X0067208Y0054046D01*
X0067807Y0054645D02*
X0071165Y0054645D01*
X0071165Y0055243D02*
X0068405Y0055243D01*
X0069004Y0055842D02*
X0071165Y0055842D01*
X0071165Y0056441D02*
X0069602Y0056441D01*
X0070201Y0057039D02*
X0071165Y0057039D01*
X0071165Y0057638D02*
X0070799Y0057638D01*
X0071765Y0061149D02*
X0050513Y0039896D01*
X0015128Y0039896D01*
X0013744Y0041281D01*
X0010733Y0041281D01*
X0008039Y0043975D01*
X0008039Y0046937D01*
X0006215Y0048761D01*
X0006215Y0069457D01*
X0012639Y0075881D01*
X0014544Y0070481D02*
X0010733Y0070481D01*
X0008039Y0067786D01*
X0008039Y0063975D01*
X0012639Y0059375D01*
X0012639Y0055881D01*
X0012639Y0065881D02*
X0036654Y0041865D01*
X0048544Y0041865D01*
X0071989Y0065310D01*
X0075915Y0065310D01*
X0075915Y0067869D02*
X0068643Y0067869D01*
X0046576Y0045802D01*
X0039223Y0045802D01*
X0014544Y0070481D01*
X0024873Y0076191D02*
X0027993Y0076191D01*
X0027395Y0075593D02*
X0025472Y0075593D01*
X0026070Y0074994D02*
X0027359Y0074994D01*
X0027359Y0074396D02*
X0026669Y0074396D01*
X0027268Y0073797D02*
X0027359Y0073797D01*
X0030631Y0073558D02*
X0034961Y0073558D01*
X0030931Y0079184D02*
X0030331Y0079184D01*
X0030331Y0079782D02*
X0030931Y0079782D01*
X0030931Y0080381D02*
X0030331Y0080381D01*
X0030331Y0080979D02*
X0030931Y0080979D01*
X0030331Y0078585D02*
X0025582Y0078585D01*
X0030631Y0073558D02*
X0030631Y0061747D01*
X0030828Y0061550D01*
X0032703Y0037887D02*
X0058743Y0037887D01*
X0059342Y0038485D02*
X0051647Y0038485D01*
X0052245Y0039084D02*
X0059941Y0039084D01*
X0060539Y0039682D02*
X0052844Y0039682D01*
X0053442Y0040281D02*
X0061138Y0040281D01*
X0061736Y0040879D02*
X0054041Y0040879D01*
X0059362Y0035959D02*
X0062908Y0039505D01*
X0074191Y0039505D01*
X0074623Y0036091D02*
X0074964Y0036091D01*
X0074623Y0035493D02*
X0075536Y0035493D01*
X0075954Y0034894D02*
X0074623Y0034894D01*
X0074623Y0034296D02*
X0075954Y0034296D01*
X0075954Y0027113D02*
X0003715Y0027113D01*
X0003715Y0026515D02*
X0075954Y0026515D01*
X0068943Y0025916D02*
X0003715Y0025916D01*
X0003715Y0025318D02*
X0068344Y0025318D01*
X0068080Y0024719D02*
X0003715Y0024719D01*
X0003715Y0024121D02*
X0068080Y0024121D01*
X0068080Y0023522D02*
X0003715Y0023522D01*
X0003715Y0022924D02*
X0068080Y0022924D01*
X0068080Y0022325D02*
X0003715Y0022325D01*
X0003715Y0021727D02*
X0068080Y0021727D01*
X0068080Y0021128D02*
X0003715Y0021128D01*
X0003715Y0020530D02*
X0068080Y0020530D01*
X0068080Y0019931D02*
X0003715Y0019931D01*
X0003715Y0019333D02*
X0068080Y0019333D01*
X0062351Y0018734D02*
X0003715Y0018734D01*
X0003715Y0018136D02*
X0061780Y0018136D01*
X0061780Y0017537D02*
X0003715Y0017537D01*
X0003715Y0016939D02*
X0061780Y0016939D01*
X0061780Y0016340D02*
X0003715Y0016340D01*
X0003715Y0015742D02*
X0061780Y0015742D01*
X0061780Y0015143D02*
X0003715Y0015143D01*
X0003715Y0014545D02*
X0061780Y0014545D01*
X0061780Y0013946D02*
X0003715Y0013946D01*
X0003715Y0013348D02*
X0061780Y0013348D01*
X0061780Y0012749D02*
X0003715Y0012749D01*
X0003715Y0012151D02*
X0061780Y0012151D01*
X0061780Y0011552D02*
X0003715Y0011552D01*
X0003715Y0010954D02*
X0061780Y0010954D01*
X0061780Y0010355D02*
X0003715Y0010355D01*
X0003715Y0009757D02*
X0061780Y0009757D01*
X0061780Y0009158D02*
X0003715Y0009158D01*
X0013730Y0030705D02*
X0061780Y0030705D01*
X0061780Y0031303D02*
X0015175Y0031303D01*
X0016013Y0031902D02*
X0061780Y0031902D01*
X0061780Y0032500D02*
X0016612Y0032500D01*
X0017115Y0033099D02*
X0061780Y0033099D01*
X0061780Y0033697D02*
X0032368Y0033697D01*
X0030828Y0035959D02*
X0059362Y0035959D01*
X0060842Y0034894D02*
X0061780Y0034894D01*
X0061780Y0034296D02*
X0060244Y0034296D01*
X0061441Y0035493D02*
X0061780Y0035493D01*
X0065413Y0052251D02*
X0076192Y0052251D01*
X0077313Y0053676D02*
X0075915Y0055074D01*
X0077313Y0053676D02*
X0089883Y0053676D01*
X0112796Y0076589D01*
X0116615Y0076589D01*
X0115510Y0081989D02*
X0118520Y0081989D01*
X0121215Y0084684D01*
X0121215Y0086977D01*
X0122015Y0087777D01*
X0122015Y0091189D01*
X0116615Y0096589D01*
X0113499Y0092351D02*
X0104922Y0092351D01*
X0104324Y0091753D02*
X0114704Y0091753D01*
X0114047Y0091154D02*
X0103725Y0091154D01*
X0103127Y0090556D02*
X0113227Y0090556D01*
X0112629Y0089957D02*
X0102528Y0089957D01*
X0101930Y0089359D02*
X0112134Y0089359D01*
X0111886Y0088760D02*
X0090111Y0088760D01*
X0089512Y0088162D02*
X0111638Y0088162D01*
X0111415Y0087563D02*
X0088914Y0087563D01*
X0088315Y0086965D02*
X0111415Y0086965D01*
X0111415Y0086366D02*
X0087717Y0086366D01*
X0087118Y0085768D02*
X0111415Y0085768D01*
X0111575Y0085169D02*
X0086520Y0085169D01*
X0085921Y0084571D02*
X0111823Y0084571D01*
X0111452Y0083972D02*
X0085323Y0083972D01*
X0084724Y0083374D02*
X0110854Y0083374D01*
X0110255Y0082775D02*
X0084126Y0082775D01*
X0083527Y0082176D02*
X0109657Y0082176D01*
X0109058Y0081578D02*
X0082929Y0081578D01*
X0082330Y0080979D02*
X0108459Y0080979D01*
X0107861Y0080381D02*
X0081732Y0080381D01*
X0081133Y0079782D02*
X0107262Y0079782D01*
X0106664Y0079184D02*
X0080535Y0079184D01*
X0080465Y0078585D02*
X0106065Y0078585D01*
X0105467Y0077987D02*
X0076040Y0077987D01*
X0075915Y0078105D02*
X0076724Y0077296D01*
X0080465Y0077388D02*
X0104868Y0077388D01*
X0104270Y0076790D02*
X0080665Y0076790D01*
X0080665Y0076191D02*
X0103671Y0076191D01*
X0103073Y0075593D02*
X0080665Y0075593D01*
X0089528Y0071196D02*
X0089528Y0065841D01*
X0089883Y0065487D01*
X0092572Y0065418D02*
X0092898Y0065418D01*
X0092572Y0066017D02*
X0093497Y0066017D01*
X0094095Y0066615D02*
X0092326Y0066615D01*
X0091959Y0067214D02*
X0094694Y0067214D01*
X0095292Y0067812D02*
X0091328Y0067812D01*
X0092014Y0068411D02*
X0092443Y0068411D01*
X0092406Y0071403D02*
X0094346Y0071403D01*
X0094346Y0071496D02*
X0094346Y0070896D01*
X0094946Y0070896D01*
X0094946Y0071496D01*
X0094346Y0071496D01*
X0094346Y0072002D02*
X0094946Y0072002D01*
X0094946Y0071496D02*
X0094946Y0074267D01*
X0096196Y0074267D01*
X0096526Y0074179D01*
X0096823Y0074008D01*
X0097065Y0073766D01*
X0097236Y0073469D01*
X0097324Y0073138D01*
X0097324Y0071496D01*
X0094946Y0071496D01*
X0094946Y0071403D02*
X0098883Y0071403D01*
X0098285Y0070805D02*
X0097324Y0070805D01*
X0097324Y0070206D02*
X0097686Y0070206D01*
X0097324Y0072002D02*
X0099482Y0072002D01*
X0100080Y0072600D02*
X0097324Y0072600D01*
X0097308Y0073199D02*
X0100679Y0073199D01*
X0101277Y0073797D02*
X0097033Y0073797D01*
X0094946Y0073797D02*
X0094346Y0073797D01*
X0094346Y0073199D02*
X0094946Y0073199D01*
X0094946Y0072600D02*
X0094346Y0072600D01*
X0094346Y0070805D02*
X0094946Y0070805D01*
X0094946Y0070206D02*
X0094346Y0070206D01*
X0094346Y0069608D02*
X0094946Y0069608D01*
X0094946Y0069009D02*
X0094346Y0069009D01*
X0094346Y0068411D02*
X0094946Y0068411D01*
X0092260Y0073797D02*
X0092198Y0073797D01*
X0091599Y0074396D02*
X0101876Y0074396D01*
X0090217Y0060192D02*
X0116615Y0086589D01*
X0115510Y0081989D02*
X0091153Y0057633D01*
X0075915Y0057633D01*
X0075915Y0060192D02*
X0090217Y0060192D01*
X0094594Y0055842D02*
X0095068Y0055842D01*
X0095068Y0055243D02*
X0093996Y0055243D01*
X0093397Y0054645D02*
X0095260Y0054645D01*
X0095552Y0054046D02*
X0092799Y0054046D01*
X0092200Y0053448D02*
X0096150Y0053448D01*
X0097757Y0055644D02*
X0107560Y0055644D01*
X0116615Y0046589D01*
X0117863Y0041478D02*
X0124515Y0041478D01*
X0124515Y0036091D02*
X0121598Y0036091D01*
X0121504Y0035493D02*
X0124515Y0035493D01*
X0124515Y0034894D02*
X0121321Y0034894D01*
X0121058Y0034296D02*
X0124515Y0034296D01*
X0124515Y0033697D02*
X0120694Y0033697D01*
X0120195Y0033099D02*
X0124515Y0033099D01*
X0124515Y0032500D02*
X0119493Y0032500D01*
X0118368Y0031902D02*
X0124515Y0031902D01*
X0124515Y0031303D02*
X0107694Y0031303D01*
X0107694Y0030705D02*
X0124515Y0030705D01*
X0124515Y0030106D02*
X0107694Y0030106D01*
X0107694Y0029507D02*
X0124515Y0029507D01*
X0124515Y0028909D02*
X0107477Y0028909D01*
X0106879Y0028310D02*
X0124515Y0028310D01*
X0124515Y0027712D02*
X0093520Y0027712D01*
X0093520Y0028310D02*
X0095666Y0028310D01*
X0095068Y0028909D02*
X0093520Y0028909D01*
X0093520Y0029507D02*
X0094851Y0029507D01*
X0094851Y0030106D02*
X0093520Y0030106D01*
X0093520Y0030705D02*
X0094851Y0030705D01*
X0094851Y0031303D02*
X0093520Y0031303D01*
X0093320Y0031902D02*
X0094851Y0031902D01*
X0094851Y0032500D02*
X0093320Y0032500D01*
X0093320Y0035493D02*
X0094851Y0035493D01*
X0094851Y0036091D02*
X0093320Y0036091D01*
X0093320Y0036690D02*
X0094851Y0036690D01*
X0094851Y0037288D02*
X0093320Y0037288D01*
X0093320Y0037887D02*
X0094851Y0037887D01*
X0094851Y0038485D02*
X0093320Y0038485D01*
X0093320Y0039084D02*
X0094905Y0039084D01*
X0095504Y0039682D02*
X0093127Y0039682D01*
X0085946Y0045802D02*
X0084737Y0044593D01*
X0084402Y0048061D02*
X0083552Y0048061D01*
X0075915Y0062751D02*
X0073101Y0062751D01*
X0071765Y0061415D01*
X0071765Y0061149D01*
X0071918Y0052849D02*
X0066011Y0052849D01*
X0093520Y0027113D02*
X0124515Y0027113D01*
X0124515Y0026515D02*
X0093520Y0026515D01*
X0100531Y0025916D02*
X0124515Y0025916D01*
X0124515Y0025318D02*
X0101130Y0025318D01*
X0101394Y0024719D02*
X0124515Y0024719D01*
X0124515Y0024121D02*
X0101394Y0024121D01*
X0101394Y0023522D02*
X0124515Y0023522D01*
X0124515Y0022924D02*
X0101394Y0022924D01*
X0101394Y0022325D02*
X0124515Y0022325D01*
X0124515Y0021727D02*
X0101394Y0021727D01*
X0101394Y0021128D02*
X0124515Y0021128D01*
X0124515Y0020530D02*
X0101394Y0020530D01*
X0101394Y0019931D02*
X0124515Y0019931D01*
X0124515Y0019333D02*
X0101394Y0019333D01*
X0107123Y0018734D02*
X0124515Y0018734D01*
X0124515Y0018136D02*
X0107694Y0018136D01*
X0107694Y0017537D02*
X0124515Y0017537D01*
X0124515Y0016939D02*
X0107694Y0016939D01*
X0107694Y0016340D02*
X0124515Y0016340D01*
X0124515Y0015742D02*
X0107694Y0015742D01*
X0107694Y0015143D02*
X0124515Y0015143D01*
X0124515Y0014545D02*
X0107694Y0014545D01*
X0107694Y0013946D02*
X0124515Y0013946D01*
X0124515Y0013348D02*
X0107694Y0013348D01*
X0107694Y0012749D02*
X0124515Y0012749D01*
X0124515Y0012151D02*
X0107694Y0012151D01*
X0107694Y0011552D02*
X0124515Y0011552D01*
X0124515Y0010954D02*
X0107694Y0010954D01*
X0107694Y0010355D02*
X0124515Y0010355D01*
X0124515Y0009757D02*
X0107694Y0009757D01*
X0107694Y0009158D02*
X0124515Y0009158D01*
X0116915Y0031902D02*
X0116315Y0031902D01*
X0116315Y0032500D02*
X0116915Y0032500D01*
X0116915Y0033099D02*
X0116315Y0033099D01*
X0116315Y0033697D02*
X0116915Y0033697D01*
X0116915Y0034296D02*
X0116315Y0034296D01*
X0116315Y0034894D02*
X0116915Y0034894D01*
X0116915Y0035493D02*
X0116315Y0035493D01*
X0116315Y0036091D02*
X0116915Y0036091D01*
X0113737Y0032500D02*
X0107694Y0032500D01*
X0107694Y0031902D02*
X0114862Y0031902D01*
X0113035Y0033099D02*
X0107694Y0033099D01*
X0107694Y0033697D02*
X0112536Y0033697D01*
X0112172Y0034296D02*
X0107694Y0034296D01*
X0107694Y0034894D02*
X0111908Y0034894D01*
X0111726Y0035493D02*
X0107694Y0035493D01*
X0107694Y0036091D02*
X0111632Y0036091D01*
X0112901Y0092950D02*
X0105521Y0092950D01*
X0106119Y0093548D02*
X0112302Y0093548D01*
X0111998Y0094147D02*
X0106718Y0094147D01*
X0107316Y0094745D02*
X0111750Y0094745D01*
X0111502Y0095344D02*
X0107915Y0095344D01*
X0108513Y0095942D02*
X0111415Y0095942D01*
X0111415Y0096541D02*
X0109112Y0096541D01*
X0109710Y0097139D02*
X0111415Y0097139D01*
X0111462Y0097738D02*
X0110309Y0097738D01*
X0110907Y0098336D02*
X0111710Y0098336D01*
X0111506Y0098935D02*
X0111958Y0098935D01*
X0112104Y0099533D02*
X0112206Y0099533D01*
X0112703Y0100132D02*
X0112804Y0100132D01*
X0113302Y0100730D02*
X0113402Y0100730D01*
X0113900Y0101329D02*
X0114469Y0101329D01*
X0099725Y0102889D02*
X0099115Y0103499D01*
X0099115Y0115201D01*
X0098815Y0115095D02*
X0099415Y0115095D01*
X0096896Y0111504D02*
X0086650Y0111504D01*
X0087115Y0112102D02*
X0096400Y0112102D01*
X0096315Y0112701D02*
X0087115Y0112701D01*
X0087115Y0113299D02*
X0096315Y0113299D01*
X0096315Y0113898D02*
X0087115Y0113898D01*
X0087115Y0114496D02*
X0096315Y0114496D01*
X0096315Y0115095D02*
X0087115Y0115095D01*
X0080040Y0111515D02*
X0080040Y0100920D01*
X0072166Y0093046D01*
X0072166Y0096983D02*
X0069652Y0099497D01*
X0075705Y0100730D02*
X0077305Y0100730D01*
X0077903Y0101329D02*
X0076117Y0101329D01*
X0076183Y0101927D02*
X0078240Y0101927D01*
X0078240Y0102526D02*
X0076183Y0102526D01*
X0076183Y0103124D02*
X0078240Y0103124D01*
X0074483Y0125132D02*
X0071615Y0128000D01*
X0071615Y0130042D01*
X0030828Y0035959D02*
X0012717Y0035959D01*
X0012639Y0035881D01*
X0017363Y0033697D02*
X0029287Y0033697D01*
D21*
X0030828Y0035959D03*
X0030828Y0061550D03*
X0038702Y0061550D03*
X0038702Y0067456D03*
X0038702Y0071393D03*
X0022954Y0079267D03*
X0020565Y0083204D03*
X0058387Y0067456D03*
X0058387Y0063519D03*
X0060355Y0079267D03*
X0072166Y0093046D03*
X0072166Y0096983D03*
X0089883Y0065487D03*
X0097757Y0055644D03*
X0097757Y0051707D03*
X0085946Y0045802D03*
X0082009Y0045802D03*
X0101694Y0075330D03*
X0099725Y0102889D03*
M02*
