G75*
%MOIN*%
%OFA0B0*%
%FSLAX25Y25*%
%IPPOS*%
%LPD*%
%AMOC8*
5,1,8,0,0,1.08239X$1,22.5*
%
%ADD10C,0.00800*%
%ADD11C,0.00500*%
%ADD12C,0.00400*%
%ADD13C,0.00600*%
%ADD14C,0.00300*%
D10*
X0062100Y0075237D02*
X0062100Y0076037D01*
X0062100Y0075237D02*
X0062900Y0075237D01*
X0078900Y0075237D02*
X0079700Y0075237D01*
X0079700Y0076037D01*
X0079700Y0090837D02*
X0079700Y0092837D01*
X0077700Y0092837D01*
X0062900Y0092837D02*
X0062100Y0092837D01*
X0062100Y0092037D01*
X0058246Y0104069D02*
X0058246Y0108006D01*
X0051554Y0108006D02*
X0051554Y0104069D01*
X0039294Y0150644D02*
X0019506Y0150644D01*
X0019506Y0160431D02*
X0039294Y0160431D01*
X0037581Y0161518D02*
X0038294Y0162230D01*
X0037581Y0162943D01*
X0038294Y0162230D02*
X0036369Y0162230D01*
X0036400Y0157037D02*
X0037900Y0155537D01*
X0036400Y0154037D01*
X0037900Y0155537D02*
X0034400Y0155537D01*
D11*
X0018400Y0046287D02*
X0018400Y0039287D01*
X0027400Y0039287D01*
X0027400Y0046287D01*
X0034150Y0046287D01*
X0034150Y0099787D01*
X0030900Y0099787D01*
X0030900Y0101787D01*
X0027400Y0101787D01*
X0027400Y0108787D01*
X0018400Y0108787D01*
X0018400Y0101787D01*
X0011650Y0101787D01*
X0011650Y0046287D01*
X0018400Y0046287D01*
X0046440Y0045189D02*
X0046440Y0043287D01*
X0046440Y0043921D02*
X0047391Y0043921D01*
X0047708Y0044238D01*
X0047708Y0044872D01*
X0047391Y0045189D01*
X0046440Y0045189D01*
X0047074Y0043921D02*
X0047708Y0043287D01*
X0048650Y0043287D02*
X0049918Y0043287D01*
X0049284Y0043287D02*
X0049284Y0045189D01*
X0048650Y0044555D01*
X0048967Y0037689D02*
X0048650Y0037372D01*
X0048967Y0037689D02*
X0049601Y0037689D01*
X0049918Y0037372D01*
X0049918Y0037055D01*
X0048650Y0035787D01*
X0049918Y0035787D01*
X0047708Y0035787D02*
X0047074Y0036421D01*
X0047391Y0036421D02*
X0046440Y0036421D01*
X0046440Y0035787D02*
X0046440Y0037689D01*
X0047391Y0037689D01*
X0047708Y0037372D01*
X0047708Y0036738D01*
X0047391Y0036421D01*
X0059440Y0045887D02*
X0059440Y0047789D01*
X0059440Y0045887D02*
X0060708Y0045887D01*
X0061650Y0045887D02*
X0062918Y0045887D01*
X0062284Y0045887D02*
X0062284Y0047789D01*
X0061650Y0047155D01*
X0062440Y0036789D02*
X0063391Y0036789D01*
X0063708Y0036472D01*
X0063708Y0035838D01*
X0063391Y0035521D01*
X0062440Y0035521D01*
X0062440Y0034887D02*
X0062440Y0036789D01*
X0063074Y0035521D02*
X0063708Y0034887D01*
X0064650Y0035204D02*
X0064967Y0034887D01*
X0065601Y0034887D01*
X0065918Y0035204D01*
X0065918Y0035521D01*
X0065601Y0035838D01*
X0065284Y0035838D01*
X0065601Y0035838D02*
X0065918Y0036155D01*
X0065918Y0036472D01*
X0065601Y0036789D01*
X0064967Y0036789D01*
X0064650Y0036472D01*
X0065601Y0029289D02*
X0064650Y0028338D01*
X0065918Y0028338D01*
X0065601Y0027387D02*
X0065601Y0029289D01*
X0063708Y0028972D02*
X0063708Y0028338D01*
X0063391Y0028021D01*
X0062440Y0028021D01*
X0062440Y0027387D02*
X0062440Y0029289D01*
X0063391Y0029289D01*
X0063708Y0028972D01*
X0063074Y0028021D02*
X0063708Y0027387D01*
X0080440Y0056387D02*
X0080440Y0058289D01*
X0081391Y0058289D01*
X0081708Y0057972D01*
X0081708Y0057338D01*
X0081391Y0057021D01*
X0080440Y0057021D01*
X0081074Y0057021D02*
X0081708Y0056387D01*
X0082650Y0056704D02*
X0082967Y0056387D01*
X0083601Y0056387D01*
X0083918Y0056704D01*
X0083918Y0057338D01*
X0083601Y0057655D01*
X0083284Y0057655D01*
X0082650Y0057338D01*
X0082650Y0058289D01*
X0083918Y0058289D01*
X0064150Y0102578D02*
X0062248Y0102578D01*
X0064150Y0102578D02*
X0064150Y0103845D01*
X0063833Y0104787D02*
X0064150Y0105104D01*
X0064150Y0105738D01*
X0063833Y0106055D01*
X0063516Y0106055D01*
X0063199Y0105738D01*
X0063199Y0105421D01*
X0063199Y0105738D02*
X0062882Y0106055D01*
X0062565Y0106055D01*
X0062248Y0105738D01*
X0062248Y0105104D01*
X0062565Y0104787D01*
X0061156Y0104711D02*
X0060205Y0104711D01*
X0059572Y0105345D01*
X0059255Y0105345D01*
X0059889Y0106287D02*
X0059255Y0106921D01*
X0061156Y0106921D01*
X0061156Y0106287D02*
X0061156Y0107555D01*
X0060205Y0104711D02*
X0059572Y0104078D01*
X0059255Y0104078D01*
X0070248Y0109578D02*
X0072150Y0109578D01*
X0072150Y0110845D01*
X0072150Y0111787D02*
X0070882Y0113055D01*
X0070565Y0113055D01*
X0070248Y0112738D01*
X0070248Y0112104D01*
X0070565Y0111787D01*
X0072150Y0111787D02*
X0072150Y0113055D01*
X0030918Y0161287D02*
X0029650Y0161287D01*
X0030284Y0161287D02*
X0030284Y0163189D01*
X0029650Y0162555D01*
X0028708Y0162555D02*
X0028708Y0161287D01*
X0028708Y0162238D02*
X0027440Y0162238D01*
X0027440Y0162555D02*
X0027440Y0161287D01*
X0027440Y0162555D02*
X0028074Y0163189D01*
X0028708Y0162555D01*
X0128650Y0101787D02*
X0135400Y0101787D01*
X0135400Y0108787D01*
X0144400Y0108787D01*
X0144400Y0101787D01*
X0147900Y0101787D01*
X0147900Y0099787D01*
X0151150Y0099787D01*
X0151150Y0046287D01*
X0144400Y0046287D01*
X0144400Y0039287D01*
X0135400Y0039287D01*
X0135400Y0046287D01*
X0128650Y0046287D01*
X0128650Y0101787D01*
D12*
X0115565Y0092574D02*
X0114798Y0093341D01*
X0113263Y0093341D01*
X0112496Y0092574D01*
X0110961Y0092574D02*
X0110194Y0093341D01*
X0108659Y0093341D01*
X0107892Y0092574D01*
X0107892Y0089505D01*
X0108659Y0088737D01*
X0110194Y0088737D01*
X0110961Y0089505D01*
X0112496Y0088737D02*
X0115565Y0091807D01*
X0115565Y0092574D01*
X0115565Y0088737D02*
X0112496Y0088737D01*
X0122096Y0083936D02*
X0122096Y0082401D01*
X0122863Y0081634D01*
X0122096Y0080099D02*
X0122096Y0078564D01*
X0122096Y0079332D02*
X0125933Y0079332D01*
X0126700Y0078564D01*
X0126700Y0077797D01*
X0125933Y0077030D01*
X0126700Y0081634D02*
X0123631Y0084703D01*
X0122863Y0084703D01*
X0122096Y0083936D01*
X0126700Y0084703D02*
X0126700Y0081634D01*
X0103700Y0073247D02*
X0099096Y0073247D01*
X0101398Y0070945D01*
X0101398Y0074015D01*
X0103700Y0069411D02*
X0103700Y0066341D01*
X0103700Y0067876D02*
X0099096Y0067876D01*
X0100631Y0066341D01*
X0099863Y0064807D02*
X0099096Y0064039D01*
X0099096Y0062505D01*
X0099863Y0061737D01*
X0102933Y0061737D01*
X0103700Y0062505D01*
X0103700Y0064039D01*
X0102933Y0064807D01*
X0100110Y0080737D02*
X0098575Y0080737D01*
X0097808Y0081505D01*
X0097808Y0083039D01*
X0100110Y0083039D01*
X0100877Y0082272D01*
X0100877Y0081505D01*
X0100110Y0080737D01*
X0097808Y0083039D02*
X0099342Y0084574D01*
X0100877Y0085341D01*
X0096273Y0087005D02*
X0096273Y0087772D01*
X0095506Y0088539D01*
X0093971Y0088539D01*
X0093204Y0089307D01*
X0093204Y0090074D01*
X0093971Y0090841D01*
X0095506Y0090841D01*
X0096273Y0090074D01*
X0096273Y0089307D01*
X0095506Y0088539D01*
X0093971Y0088539D02*
X0093204Y0087772D01*
X0093204Y0087005D01*
X0093971Y0086237D01*
X0095506Y0086237D01*
X0096273Y0087005D01*
X0094739Y0085341D02*
X0094739Y0080737D01*
X0096273Y0080737D02*
X0093204Y0080737D01*
X0091669Y0081505D02*
X0090902Y0080737D01*
X0089367Y0080737D01*
X0088600Y0081505D01*
X0088600Y0084574D01*
X0089367Y0085341D01*
X0090902Y0085341D01*
X0091669Y0084574D01*
X0093204Y0083807D02*
X0094739Y0085341D01*
X0091669Y0087005D02*
X0090902Y0086237D01*
X0089367Y0086237D01*
X0088600Y0087005D01*
X0088600Y0090074D01*
X0089367Y0090841D01*
X0090902Y0090841D01*
X0091669Y0090074D01*
X0090902Y0099737D02*
X0089367Y0099737D01*
X0088600Y0100505D01*
X0088600Y0103574D01*
X0089367Y0104341D01*
X0090902Y0104341D01*
X0091669Y0103574D01*
X0090902Y0104737D02*
X0091669Y0105505D01*
X0090902Y0104737D02*
X0089367Y0104737D01*
X0088600Y0105505D01*
X0088600Y0108574D01*
X0089367Y0109341D01*
X0090902Y0109341D01*
X0091669Y0108574D01*
X0093204Y0107807D02*
X0094739Y0109341D01*
X0094739Y0104737D01*
X0095506Y0104341D02*
X0093971Y0104341D01*
X0093204Y0103574D01*
X0093204Y0102807D01*
X0093971Y0102039D01*
X0096273Y0102039D01*
X0096273Y0100505D02*
X0095506Y0099737D01*
X0093971Y0099737D01*
X0093204Y0100505D01*
X0091669Y0100505D02*
X0090902Y0099737D01*
X0093204Y0104737D02*
X0096273Y0104737D01*
X0095506Y0104341D02*
X0096273Y0103574D01*
X0096273Y0100505D01*
X0098575Y0104737D02*
X0097808Y0105505D01*
X0100877Y0108574D01*
X0100877Y0105505D01*
X0100110Y0104737D01*
X0098575Y0104737D01*
X0097808Y0105505D02*
X0097808Y0108574D01*
X0098575Y0109341D01*
X0100110Y0109341D01*
X0100877Y0108574D01*
X0112867Y0121737D02*
X0112100Y0122505D01*
X0112100Y0125574D01*
X0112867Y0126341D01*
X0114402Y0126341D01*
X0115169Y0125574D01*
X0116704Y0124807D02*
X0118239Y0126341D01*
X0118239Y0121737D01*
X0119773Y0121737D02*
X0116704Y0121737D01*
X0115169Y0122505D02*
X0114402Y0121737D01*
X0112867Y0121737D01*
X0076531Y0099341D02*
X0076531Y0094737D01*
X0078065Y0094737D02*
X0074996Y0094737D01*
X0073461Y0094737D02*
X0070392Y0094737D01*
X0071927Y0094737D02*
X0071927Y0099341D01*
X0070392Y0097807D01*
X0068857Y0098574D02*
X0068090Y0099341D01*
X0066556Y0099341D01*
X0065788Y0098574D01*
X0065788Y0095505D01*
X0066556Y0094737D01*
X0068090Y0094737D01*
X0068857Y0095505D01*
X0074996Y0097807D02*
X0076531Y0099341D01*
X0074065Y0113237D02*
X0070996Y0113237D01*
X0074065Y0116307D01*
X0074065Y0117074D01*
X0073298Y0117841D01*
X0071763Y0117841D01*
X0070996Y0117074D01*
X0067927Y0117841D02*
X0067927Y0113237D01*
X0069461Y0113237D02*
X0066392Y0113237D01*
X0064857Y0114005D02*
X0064090Y0113237D01*
X0062556Y0113237D01*
X0061788Y0114005D01*
X0061788Y0117074D01*
X0062556Y0117841D01*
X0064090Y0117841D01*
X0064857Y0117074D01*
X0066392Y0116307D02*
X0067927Y0117841D01*
X0068863Y0128237D02*
X0068096Y0129005D01*
X0068096Y0130539D01*
X0068863Y0131307D01*
X0069631Y0132841D02*
X0068096Y0134376D01*
X0072700Y0134376D01*
X0072700Y0132841D02*
X0072700Y0135911D01*
X0071933Y0137445D02*
X0072700Y0138213D01*
X0072700Y0139747D01*
X0071933Y0140515D01*
X0071165Y0140515D01*
X0070398Y0139747D01*
X0070398Y0138980D01*
X0070398Y0139747D02*
X0069631Y0140515D01*
X0068863Y0140515D01*
X0068096Y0139747D01*
X0068096Y0138213D01*
X0068863Y0137445D01*
X0071933Y0131307D02*
X0072700Y0130539D01*
X0072700Y0129005D01*
X0071933Y0128237D01*
X0068863Y0128237D01*
X0045200Y0117643D02*
X0040596Y0117643D01*
X0042898Y0115341D01*
X0042898Y0118411D01*
X0041363Y0113807D02*
X0040596Y0113039D01*
X0040596Y0111505D01*
X0041363Y0110737D01*
X0044433Y0110737D01*
X0045200Y0111505D01*
X0045200Y0113039D01*
X0044433Y0113807D01*
X0044433Y0105411D02*
X0043665Y0105411D01*
X0042898Y0104643D01*
X0042898Y0103876D01*
X0042898Y0104643D02*
X0042131Y0105411D01*
X0041363Y0105411D01*
X0040596Y0104643D01*
X0040596Y0103109D01*
X0041363Y0102341D01*
X0041363Y0100807D02*
X0040596Y0100039D01*
X0040596Y0098505D01*
X0041363Y0097737D01*
X0044433Y0097737D01*
X0045200Y0098505D01*
X0045200Y0100039D01*
X0044433Y0100807D01*
X0044433Y0102341D02*
X0045200Y0103109D01*
X0045200Y0104643D01*
X0044433Y0105411D01*
X0043590Y0086841D02*
X0042056Y0086841D01*
X0041288Y0086074D01*
X0041288Y0083005D01*
X0042056Y0082237D01*
X0043590Y0082237D01*
X0044357Y0083005D01*
X0045892Y0082237D02*
X0048961Y0082237D01*
X0048961Y0081574D02*
X0048194Y0082341D01*
X0046659Y0082341D01*
X0045892Y0081574D01*
X0045892Y0078505D01*
X0046659Y0077737D01*
X0048194Y0077737D01*
X0048961Y0078505D01*
X0050496Y0078505D02*
X0051263Y0077737D01*
X0052798Y0077737D01*
X0053565Y0078505D01*
X0053565Y0080039D01*
X0052798Y0080807D01*
X0052031Y0080807D01*
X0050496Y0080039D01*
X0050496Y0082341D01*
X0053565Y0082341D01*
X0053565Y0083005D02*
X0052798Y0082237D01*
X0051263Y0082237D01*
X0050496Y0083005D01*
X0050496Y0084539D02*
X0052031Y0085307D01*
X0052798Y0085307D01*
X0053565Y0084539D01*
X0053565Y0083005D01*
X0050496Y0084539D02*
X0050496Y0086841D01*
X0053565Y0086841D01*
X0047427Y0086841D02*
X0047427Y0082237D01*
X0045892Y0085307D02*
X0047427Y0086841D01*
X0044357Y0086074D02*
X0043590Y0086841D01*
X0049096Y0065911D02*
X0049863Y0065911D01*
X0052933Y0062841D01*
X0053700Y0062841D01*
X0052933Y0061307D02*
X0053700Y0060539D01*
X0053700Y0059005D01*
X0052933Y0058237D01*
X0049863Y0058237D01*
X0049096Y0059005D01*
X0049096Y0060539D01*
X0049863Y0061307D01*
X0049096Y0062841D02*
X0049096Y0065911D01*
X0040700Y0052703D02*
X0040700Y0049634D01*
X0037631Y0052703D01*
X0036863Y0052703D01*
X0036096Y0051936D01*
X0036096Y0050401D01*
X0036863Y0049634D01*
X0009700Y0049634D02*
X0009700Y0052703D01*
X0009700Y0051168D02*
X0005096Y0051168D01*
X0006631Y0049634D01*
X0008933Y0077030D02*
X0009700Y0077797D01*
X0009700Y0078564D01*
X0008933Y0079332D01*
X0005096Y0079332D01*
X0005096Y0080099D02*
X0005096Y0078564D01*
X0006631Y0081634D02*
X0005096Y0083168D01*
X0009700Y0083168D01*
X0009700Y0081634D02*
X0009700Y0084703D01*
X0064100Y0068074D02*
X0064100Y0065005D01*
X0064867Y0064237D01*
X0066402Y0064237D01*
X0067169Y0065005D01*
X0066402Y0063841D02*
X0064867Y0063841D01*
X0064100Y0063074D01*
X0064100Y0060005D01*
X0064867Y0059237D01*
X0066402Y0059237D01*
X0067169Y0060005D01*
X0068704Y0059237D02*
X0071773Y0059237D01*
X0070239Y0059237D02*
X0070239Y0063841D01*
X0068704Y0062307D01*
X0067169Y0063074D02*
X0066402Y0063841D01*
X0068704Y0064237D02*
X0071773Y0064237D01*
X0070239Y0064237D02*
X0070239Y0068841D01*
X0068704Y0067307D01*
X0067169Y0068074D02*
X0066402Y0068841D01*
X0064867Y0068841D01*
X0064100Y0068074D01*
X0073308Y0068074D02*
X0073308Y0067307D01*
X0074075Y0066539D01*
X0075610Y0066539D01*
X0076377Y0065772D01*
X0076377Y0065005D01*
X0075610Y0064237D01*
X0074075Y0064237D01*
X0073308Y0065005D01*
X0073308Y0065772D01*
X0074075Y0066539D01*
X0075610Y0066539D02*
X0076377Y0067307D01*
X0076377Y0068074D01*
X0075610Y0068841D01*
X0074075Y0068841D01*
X0073308Y0068074D01*
X0073308Y0063841D02*
X0076377Y0063841D01*
X0076377Y0063074D01*
X0073308Y0060005D01*
X0073308Y0059237D01*
X0080367Y0070737D02*
X0081902Y0070737D01*
X0082669Y0071505D01*
X0084204Y0071505D02*
X0084204Y0073039D01*
X0086506Y0073039D01*
X0087273Y0072272D01*
X0087273Y0071505D01*
X0086506Y0070737D01*
X0084971Y0070737D01*
X0084204Y0071505D01*
X0084204Y0073039D02*
X0085739Y0074574D01*
X0087273Y0075341D01*
X0082669Y0074574D02*
X0081902Y0075341D01*
X0080367Y0075341D01*
X0079600Y0074574D01*
X0079600Y0071505D01*
X0080367Y0070737D01*
X0122096Y0051168D02*
X0126700Y0051168D01*
X0126700Y0049634D02*
X0126700Y0052703D01*
X0123631Y0049634D02*
X0122096Y0051168D01*
X0153096Y0050401D02*
X0153863Y0049634D01*
X0153096Y0050401D02*
X0153096Y0051936D01*
X0153863Y0052703D01*
X0154631Y0052703D01*
X0157700Y0049634D01*
X0157700Y0052703D01*
D13*
X0109200Y0059037D02*
X0109198Y0059071D01*
X0109192Y0059104D01*
X0109183Y0059136D01*
X0109170Y0059167D01*
X0109154Y0059197D01*
X0109135Y0059224D01*
X0109112Y0059249D01*
X0109087Y0059272D01*
X0109060Y0059291D01*
X0109030Y0059307D01*
X0108999Y0059320D01*
X0108967Y0059329D01*
X0108934Y0059335D01*
X0108900Y0059337D01*
X0108866Y0059335D01*
X0108833Y0059329D01*
X0108801Y0059320D01*
X0108770Y0059307D01*
X0108740Y0059291D01*
X0108713Y0059272D01*
X0108688Y0059249D01*
X0108665Y0059224D01*
X0108646Y0059197D01*
X0108630Y0059167D01*
X0108617Y0059136D01*
X0108608Y0059104D01*
X0108602Y0059071D01*
X0108600Y0059037D01*
X0108602Y0059003D01*
X0108608Y0058970D01*
X0108617Y0058938D01*
X0108630Y0058907D01*
X0108646Y0058877D01*
X0108665Y0058850D01*
X0108688Y0058825D01*
X0108713Y0058802D01*
X0108740Y0058783D01*
X0108770Y0058767D01*
X0108801Y0058754D01*
X0108833Y0058745D01*
X0108866Y0058739D01*
X0108900Y0058737D01*
X0108934Y0058739D01*
X0108967Y0058745D01*
X0108999Y0058754D01*
X0109030Y0058767D01*
X0109060Y0058783D01*
X0109087Y0058802D01*
X0109112Y0058825D01*
X0109135Y0058850D01*
X0109154Y0058877D01*
X0109170Y0058907D01*
X0109183Y0058938D01*
X0109192Y0058970D01*
X0109198Y0059003D01*
X0109200Y0059037D01*
D14*
X0108254Y0059039D02*
X0111390Y0059039D01*
X0110606Y0056687D02*
X0110606Y0061391D01*
X0108254Y0059039D01*
X0106786Y0056687D02*
X0103650Y0056687D01*
X0103650Y0061391D01*
X0086454Y0049401D02*
X0086454Y0047833D01*
X0085670Y0047049D01*
X0082534Y0047049D01*
X0081750Y0047833D01*
X0081750Y0049401D01*
X0082534Y0050185D01*
X0084102Y0049401D02*
X0084102Y0047049D01*
X0084102Y0049401D02*
X0084886Y0050185D01*
X0085670Y0050185D01*
X0086454Y0049401D01*
X0084886Y0051669D02*
X0084886Y0052453D01*
X0083318Y0054021D01*
X0081750Y0054021D02*
X0084886Y0054021D01*
X0084102Y0055489D02*
X0084886Y0056273D01*
X0084886Y0057841D01*
X0084102Y0058625D01*
X0082534Y0058625D01*
X0081750Y0057841D01*
X0081750Y0056273D01*
X0082534Y0055489D01*
X0084102Y0055489D01*
X0084886Y0060127D02*
X0084886Y0061695D01*
X0085670Y0060911D02*
X0082534Y0060911D01*
X0081750Y0060127D01*
X0081750Y0063163D02*
X0081750Y0065515D01*
X0082534Y0066299D01*
X0083318Y0065515D01*
X0083318Y0063163D01*
X0084102Y0063163D02*
X0081750Y0063163D01*
X0084102Y0063163D02*
X0084886Y0063947D01*
X0084886Y0065515D01*
X0084102Y0067766D02*
X0081750Y0067766D01*
X0084102Y0067766D02*
X0084886Y0068551D01*
X0084886Y0070903D01*
X0081750Y0070903D01*
X0081750Y0072370D02*
X0081750Y0074722D01*
X0082534Y0075506D01*
X0084102Y0075506D01*
X0084886Y0074722D01*
X0084886Y0072370D01*
X0080966Y0072370D01*
X0080182Y0073154D01*
X0080182Y0073938D01*
X0081750Y0077008D02*
X0081750Y0078576D01*
X0081750Y0077792D02*
X0084886Y0077792D01*
X0084886Y0078576D01*
X0084886Y0080044D02*
X0084886Y0082396D01*
X0084102Y0083180D01*
X0083318Y0082396D01*
X0083318Y0080828D01*
X0082534Y0080044D01*
X0081750Y0080828D01*
X0081750Y0083180D01*
X0083318Y0084648D02*
X0083318Y0087784D01*
X0084102Y0087784D02*
X0084886Y0087000D01*
X0084886Y0085432D01*
X0084102Y0084648D01*
X0083318Y0084648D01*
X0081750Y0085432D02*
X0081750Y0087000D01*
X0082534Y0087784D01*
X0084102Y0087784D01*
X0082534Y0089251D02*
X0081750Y0090035D01*
X0081750Y0092387D01*
X0086454Y0092387D01*
X0086454Y0090035D01*
X0085670Y0089251D01*
X0082534Y0089251D01*
X0086454Y0077792D02*
X0087238Y0077792D01*
X0103218Y0105187D02*
X0103218Y0107539D01*
X0104786Y0109107D01*
X0104786Y0109891D01*
X0106254Y0109107D02*
X0107038Y0109891D01*
X0108606Y0109891D01*
X0109390Y0109107D01*
X0109390Y0108323D01*
X0106254Y0105187D01*
X0109390Y0105187D01*
X0103218Y0107539D02*
X0101650Y0109107D01*
X0101650Y0109891D01*
M02*
