G75*
%MOIN*%
%OFA0B0*%
%FSLAX25Y25*%
%IPPOS*%
%LPD*%
%AMOC8*
5,1,8,0,0,1.08239X$1,22.5*
%
%ADD10R,0.04500X0.10500*%
%ADD11R,0.03256X0.04043*%
%ADD12R,0.04043X0.03256*%
%ADD13R,0.09250X0.03400*%
%ADD14C,0.06100*%
%ADD15R,0.03846X0.04043*%
%ADD16R,0.04043X0.03846*%
%ADD17R,0.03700X0.04200*%
%ADD18R,0.04831X0.04437*%
%ADD19C,0.01287*%
%ADD20R,0.11524X0.11524*%
%ADD21C,0.02469*%
%ADD22R,0.07587X0.04437*%
%ADD23R,0.05200X0.06000*%
%ADD24C,0.02878*%
D10*
X0016400Y0155537D03*
X0042400Y0155537D03*
D11*
X0070341Y0120537D03*
X0075459Y0120537D03*
X0074341Y0102037D03*
X0079459Y0102037D03*
X0088341Y0102037D03*
X0088341Y0097037D03*
X0093459Y0097037D03*
X0093459Y0102037D03*
X0093459Y0083537D03*
X0088341Y0083537D03*
X0088341Y0078037D03*
X0093459Y0078037D03*
X0084459Y0068037D03*
X0079341Y0068037D03*
X0068959Y0061537D03*
X0068959Y0056537D03*
X0063841Y0056537D03*
X0063841Y0061537D03*
X0054959Y0085037D03*
X0054959Y0089537D03*
X0049841Y0089537D03*
X0049841Y0085037D03*
X0111841Y0096037D03*
X0116959Y0096037D03*
X0116959Y0119037D03*
X0111841Y0119037D03*
D12*
X0075400Y0127978D03*
X0075400Y0133097D03*
X0047900Y0115597D03*
X0047900Y0110478D03*
X0047900Y0102597D03*
X0047900Y0097478D03*
X0056400Y0063097D03*
X0056400Y0057978D03*
X0106400Y0061478D03*
X0106400Y0066597D03*
D13*
X0134525Y0066537D03*
X0134525Y0061537D03*
X0134525Y0056537D03*
X0134525Y0051537D03*
X0145275Y0051537D03*
X0145275Y0056537D03*
X0145275Y0061537D03*
X0145275Y0066537D03*
X0145275Y0071537D03*
X0145275Y0076537D03*
X0145275Y0081537D03*
X0145275Y0086537D03*
X0145275Y0091537D03*
X0145275Y0096537D03*
X0134525Y0096537D03*
X0134525Y0091537D03*
X0134525Y0086537D03*
X0134525Y0081537D03*
X0134525Y0076537D03*
X0134525Y0071537D03*
X0028275Y0071537D03*
X0028275Y0066537D03*
X0028275Y0061537D03*
X0028275Y0056537D03*
X0028275Y0051537D03*
X0017525Y0051537D03*
X0017525Y0056537D03*
X0017525Y0061537D03*
X0017525Y0066537D03*
X0017525Y0071537D03*
X0017525Y0076537D03*
X0017525Y0081537D03*
X0017525Y0086537D03*
X0017525Y0091537D03*
X0017525Y0096537D03*
X0028275Y0096537D03*
X0028275Y0091537D03*
X0028275Y0086537D03*
X0028275Y0081537D03*
X0028275Y0076537D03*
D14*
X0022900Y0102787D03*
X0022900Y0045287D03*
X0139900Y0045287D03*
X0139900Y0102787D03*
D15*
X0063683Y0051037D03*
X0059117Y0051037D03*
D16*
X0067400Y0102254D03*
X0067400Y0106821D03*
X0075400Y0109254D03*
X0075400Y0113821D03*
D17*
X0113750Y0059037D03*
X0119050Y0059037D03*
D18*
X0085746Y0061537D03*
X0079054Y0061537D03*
X0067746Y0040037D03*
X0061054Y0040037D03*
X0061054Y0032537D03*
X0067746Y0032537D03*
X0051746Y0032537D03*
X0045054Y0032537D03*
X0045054Y0040037D03*
X0051746Y0040037D03*
D19*
X0065388Y0076163D02*
X0065388Y0076951D01*
X0065388Y0076163D02*
X0065388Y0076163D01*
X0065388Y0076951D01*
X0065388Y0076951D01*
X0066963Y0076951D02*
X0066963Y0076163D01*
X0066963Y0076163D01*
X0066963Y0076951D01*
X0066963Y0076951D01*
X0068538Y0076951D02*
X0068538Y0076163D01*
X0068538Y0076163D01*
X0068538Y0076951D01*
X0068538Y0076951D01*
X0070113Y0076951D02*
X0070113Y0076163D01*
X0070113Y0076163D01*
X0070113Y0076951D01*
X0070113Y0076951D01*
X0071687Y0076951D02*
X0071687Y0076163D01*
X0071687Y0076163D01*
X0071687Y0076951D01*
X0071687Y0076951D01*
X0073262Y0076951D02*
X0073262Y0076163D01*
X0073262Y0076163D01*
X0073262Y0076951D01*
X0073262Y0076951D01*
X0074837Y0076951D02*
X0074837Y0076163D01*
X0074837Y0076163D01*
X0074837Y0076951D01*
X0074837Y0076951D01*
X0076412Y0076951D02*
X0076412Y0076163D01*
X0076412Y0076163D01*
X0076412Y0076951D01*
X0076412Y0076951D01*
X0077986Y0078526D02*
X0078774Y0078526D01*
X0077986Y0078526D02*
X0077986Y0078526D01*
X0078774Y0078526D01*
X0078774Y0078526D01*
X0078774Y0080100D02*
X0077986Y0080100D01*
X0077986Y0080100D01*
X0078774Y0080100D01*
X0078774Y0080100D01*
X0078774Y0081675D02*
X0077986Y0081675D01*
X0077986Y0081675D01*
X0078774Y0081675D01*
X0078774Y0081675D01*
X0078774Y0083250D02*
X0077986Y0083250D01*
X0077986Y0083250D01*
X0078774Y0083250D01*
X0078774Y0083250D01*
X0078774Y0084825D02*
X0077986Y0084825D01*
X0077986Y0084825D01*
X0078774Y0084825D01*
X0078774Y0084825D01*
X0078774Y0086400D02*
X0077986Y0086400D01*
X0077986Y0086400D01*
X0078774Y0086400D01*
X0078774Y0086400D01*
X0078774Y0087974D02*
X0077986Y0087974D01*
X0077986Y0087974D01*
X0078774Y0087974D01*
X0078774Y0087974D01*
X0078774Y0089549D02*
X0077986Y0089549D01*
X0077986Y0089549D01*
X0078774Y0089549D01*
X0078774Y0089549D01*
X0076412Y0091124D02*
X0076412Y0091912D01*
X0076412Y0091124D02*
X0076412Y0091124D01*
X0076412Y0091912D01*
X0076412Y0091912D01*
X0074837Y0091912D02*
X0074837Y0091124D01*
X0074837Y0091124D01*
X0074837Y0091912D01*
X0074837Y0091912D01*
X0073262Y0091912D02*
X0073262Y0091124D01*
X0073262Y0091124D01*
X0073262Y0091912D01*
X0073262Y0091912D01*
X0071687Y0091912D02*
X0071687Y0091124D01*
X0071687Y0091124D01*
X0071687Y0091912D01*
X0071687Y0091912D01*
X0070113Y0091912D02*
X0070113Y0091124D01*
X0070113Y0091124D01*
X0070113Y0091912D01*
X0070113Y0091912D01*
X0068538Y0091912D02*
X0068538Y0091124D01*
X0068538Y0091124D01*
X0068538Y0091912D01*
X0068538Y0091912D01*
X0066963Y0091912D02*
X0066963Y0091124D01*
X0066963Y0091124D01*
X0066963Y0091912D01*
X0066963Y0091912D01*
X0065388Y0091912D02*
X0065388Y0091124D01*
X0065388Y0091124D01*
X0065388Y0091912D01*
X0065388Y0091912D01*
X0063814Y0089549D02*
X0063026Y0089549D01*
X0063026Y0089549D01*
X0063814Y0089549D01*
X0063814Y0089549D01*
X0063814Y0087974D02*
X0063026Y0087974D01*
X0063026Y0087974D01*
X0063814Y0087974D01*
X0063814Y0087974D01*
X0063814Y0086400D02*
X0063026Y0086400D01*
X0063026Y0086400D01*
X0063814Y0086400D01*
X0063814Y0086400D01*
X0063814Y0084825D02*
X0063026Y0084825D01*
X0063026Y0084825D01*
X0063814Y0084825D01*
X0063814Y0084825D01*
X0063814Y0083250D02*
X0063026Y0083250D01*
X0063026Y0083250D01*
X0063814Y0083250D01*
X0063814Y0083250D01*
X0063814Y0081675D02*
X0063026Y0081675D01*
X0063026Y0081675D01*
X0063814Y0081675D01*
X0063814Y0081675D01*
X0063814Y0080100D02*
X0063026Y0080100D01*
X0063026Y0080100D01*
X0063814Y0080100D01*
X0063814Y0080100D01*
X0063814Y0078526D02*
X0063026Y0078526D01*
X0063026Y0078526D01*
X0063814Y0078526D01*
X0063814Y0078526D01*
D20*
X0070900Y0084037D03*
D21*
X0066372Y0084037D03*
D22*
X0054900Y0101116D03*
X0054900Y0110959D03*
D23*
X0111050Y0111887D03*
X0117750Y0111887D03*
X0117750Y0103187D03*
X0111050Y0103187D03*
D24*
X0039989Y0036317D03*
X0036400Y0049037D03*
X0036400Y0054037D03*
X0051400Y0059037D03*
X0046400Y0069037D03*
X0046400Y0074037D03*
X0041400Y0079037D03*
X0041400Y0084037D03*
X0041400Y0089037D03*
X0044978Y0089037D03*
X0041400Y0094037D03*
X0036400Y0099037D03*
X0046400Y0081215D03*
X0036400Y0074037D03*
X0059013Y0074878D03*
X0062685Y0069509D03*
X0068484Y0065866D03*
X0070873Y0069037D03*
X0077226Y0071898D03*
X0081900Y0071582D03*
X0086757Y0088681D03*
X0091400Y0088929D03*
X0101400Y0084037D03*
X0101400Y0079037D03*
X0101400Y0074037D03*
X0109900Y0074037D03*
X0111400Y0064037D03*
X0101400Y0064037D03*
X0086400Y0054037D03*
X0086400Y0049037D03*
X0077226Y0054037D03*
X0071400Y0049037D03*
X0069731Y0052206D03*
X0066955Y0046426D03*
X0071400Y0044037D03*
X0106400Y0088929D03*
X0112913Y0088929D03*
X0101400Y0094907D03*
X0101400Y0109037D03*
X0126400Y0104037D03*
X0126400Y0124037D03*
X0059343Y0092002D03*
X0007189Y0079037D03*
X0007189Y0074037D03*
X0116400Y0049037D03*
X0116400Y0044037D03*
M02*
