G75*
%MOIN*%
%OFA0B0*%
%FSLAX25Y25*%
%IPPOS*%
%LPD*%
%AMOC8*
5,1,8,0,0,1.08239X$1,22.5*
%
%ADD10R,0.04000X0.10000*%
%ADD11R,0.02756X0.03543*%
%ADD12R,0.03543X0.02756*%
%ADD13R,0.08750X0.02900*%
%ADD14R,0.03346X0.03543*%
%ADD15R,0.03543X0.03346*%
%ADD16R,0.03200X0.03700*%
%ADD17R,0.04331X0.03937*%
%ADD18C,0.00787*%
%ADD19C,0.01969*%
%ADD20C,0.00100*%
%ADD21R,0.07087X0.03937*%
%ADD22R,0.04700X0.05500*%
D10*
X0016400Y0155537D03*
X0042400Y0155537D03*
D11*
X0070341Y0120537D03*
X0075459Y0120537D03*
X0074341Y0102037D03*
X0079459Y0102037D03*
X0088341Y0102037D03*
X0088341Y0097037D03*
X0093459Y0097037D03*
X0093459Y0102037D03*
X0093459Y0083537D03*
X0088341Y0083537D03*
X0088341Y0078037D03*
X0093459Y0078037D03*
X0084459Y0068037D03*
X0079341Y0068037D03*
X0068959Y0061537D03*
X0068959Y0056537D03*
X0063841Y0056537D03*
X0063841Y0061537D03*
X0054959Y0085037D03*
X0054959Y0089537D03*
X0049841Y0089537D03*
X0049841Y0085037D03*
X0111841Y0096037D03*
X0116959Y0096037D03*
X0116959Y0119037D03*
X0111841Y0119037D03*
D12*
X0075400Y0127978D03*
X0075400Y0133097D03*
X0047900Y0115597D03*
X0047900Y0110478D03*
X0047900Y0102597D03*
X0047900Y0097478D03*
X0056400Y0063097D03*
X0056400Y0057978D03*
X0106400Y0061478D03*
X0106400Y0066597D03*
D13*
X0134525Y0066537D03*
X0134525Y0061537D03*
X0134525Y0056537D03*
X0134525Y0051537D03*
X0145275Y0051537D03*
X0145275Y0056537D03*
X0145275Y0061537D03*
X0145275Y0066537D03*
X0145275Y0071537D03*
X0145275Y0076537D03*
X0145275Y0081537D03*
X0145275Y0086537D03*
X0145275Y0091537D03*
X0145275Y0096537D03*
X0134525Y0096537D03*
X0134525Y0091537D03*
X0134525Y0086537D03*
X0134525Y0081537D03*
X0134525Y0076537D03*
X0134525Y0071537D03*
X0028275Y0071537D03*
X0028275Y0066537D03*
X0028275Y0061537D03*
X0028275Y0056537D03*
X0028275Y0051537D03*
X0017525Y0051537D03*
X0017525Y0056537D03*
X0017525Y0061537D03*
X0017525Y0066537D03*
X0017525Y0071537D03*
X0017525Y0076537D03*
X0017525Y0081537D03*
X0017525Y0086537D03*
X0017525Y0091537D03*
X0017525Y0096537D03*
X0028275Y0096537D03*
X0028275Y0091537D03*
X0028275Y0086537D03*
X0028275Y0081537D03*
X0028275Y0076537D03*
D14*
X0059117Y0051037D03*
X0063683Y0051037D03*
D15*
X0067400Y0102254D03*
X0067400Y0106821D03*
X0075400Y0109254D03*
X0075400Y0113821D03*
D16*
X0113750Y0059037D03*
X0119050Y0059037D03*
D17*
X0045054Y0032537D03*
X0051746Y0032537D03*
X0051746Y0040037D03*
X0045054Y0040037D03*
X0061054Y0040037D03*
X0067746Y0040037D03*
X0067746Y0032537D03*
X0061054Y0032537D03*
X0079054Y0061537D03*
X0085746Y0061537D03*
D18*
X0076412Y0076163D02*
X0076412Y0076951D01*
X0076412Y0076163D02*
X0076412Y0076163D01*
X0076412Y0076951D01*
X0076412Y0076951D01*
X0076412Y0076949D02*
X0076412Y0076949D01*
X0074837Y0076951D02*
X0074837Y0076163D01*
X0074837Y0076163D01*
X0074837Y0076951D01*
X0074837Y0076951D01*
X0074837Y0076949D02*
X0074837Y0076949D01*
X0073262Y0076951D02*
X0073262Y0076163D01*
X0073262Y0076163D01*
X0073262Y0076951D01*
X0073262Y0076951D01*
X0073262Y0076949D02*
X0073262Y0076949D01*
X0071687Y0076951D02*
X0071687Y0076163D01*
X0071687Y0076163D01*
X0071687Y0076951D01*
X0071687Y0076951D01*
X0071687Y0076949D02*
X0071687Y0076949D01*
X0070113Y0076951D02*
X0070113Y0076163D01*
X0070113Y0076163D01*
X0070113Y0076951D01*
X0070113Y0076951D01*
X0070113Y0076949D02*
X0070113Y0076949D01*
X0068538Y0076951D02*
X0068538Y0076163D01*
X0068538Y0076163D01*
X0068538Y0076951D01*
X0068538Y0076951D01*
X0068538Y0076949D02*
X0068538Y0076949D01*
X0066963Y0076951D02*
X0066963Y0076163D01*
X0066963Y0076163D01*
X0066963Y0076951D01*
X0066963Y0076951D01*
X0066963Y0076949D02*
X0066963Y0076949D01*
X0065388Y0076951D02*
X0065388Y0076163D01*
X0065388Y0076163D01*
X0065388Y0076951D01*
X0065388Y0076951D01*
X0065388Y0076949D02*
X0065388Y0076949D01*
X0063814Y0078526D02*
X0063026Y0078526D01*
X0063026Y0078526D01*
X0063814Y0078526D01*
X0063814Y0078526D01*
X0063814Y0080100D02*
X0063026Y0080100D01*
X0063026Y0080100D01*
X0063814Y0080100D01*
X0063814Y0080100D01*
X0063814Y0081675D02*
X0063026Y0081675D01*
X0063026Y0081675D01*
X0063814Y0081675D01*
X0063814Y0081675D01*
X0063814Y0083250D02*
X0063026Y0083250D01*
X0063026Y0083250D01*
X0063814Y0083250D01*
X0063814Y0083250D01*
X0063814Y0084825D02*
X0063026Y0084825D01*
X0063026Y0084825D01*
X0063814Y0084825D01*
X0063814Y0084825D01*
X0063814Y0086400D02*
X0063026Y0086400D01*
X0063026Y0086400D01*
X0063814Y0086400D01*
X0063814Y0086400D01*
X0063814Y0087974D02*
X0063026Y0087974D01*
X0063026Y0087974D01*
X0063814Y0087974D01*
X0063814Y0087974D01*
X0063814Y0089549D02*
X0063026Y0089549D01*
X0063026Y0089549D01*
X0063814Y0089549D01*
X0063814Y0089549D01*
X0065388Y0091124D02*
X0065388Y0091912D01*
X0065388Y0091124D02*
X0065388Y0091124D01*
X0065388Y0091912D01*
X0065388Y0091912D01*
X0065388Y0091910D02*
X0065388Y0091910D01*
X0066963Y0091912D02*
X0066963Y0091124D01*
X0066963Y0091124D01*
X0066963Y0091912D01*
X0066963Y0091912D01*
X0066963Y0091910D02*
X0066963Y0091910D01*
X0068538Y0091912D02*
X0068538Y0091124D01*
X0068538Y0091124D01*
X0068538Y0091912D01*
X0068538Y0091912D01*
X0068538Y0091910D02*
X0068538Y0091910D01*
X0070113Y0091912D02*
X0070113Y0091124D01*
X0070113Y0091124D01*
X0070113Y0091912D01*
X0070113Y0091912D01*
X0070113Y0091910D02*
X0070113Y0091910D01*
X0071687Y0091912D02*
X0071687Y0091124D01*
X0071687Y0091124D01*
X0071687Y0091912D01*
X0071687Y0091912D01*
X0071687Y0091910D02*
X0071687Y0091910D01*
X0073262Y0091912D02*
X0073262Y0091124D01*
X0073262Y0091124D01*
X0073262Y0091912D01*
X0073262Y0091912D01*
X0073262Y0091910D02*
X0073262Y0091910D01*
X0074837Y0091912D02*
X0074837Y0091124D01*
X0074837Y0091124D01*
X0074837Y0091912D01*
X0074837Y0091912D01*
X0074837Y0091910D02*
X0074837Y0091910D01*
X0076412Y0091912D02*
X0076412Y0091124D01*
X0076412Y0091124D01*
X0076412Y0091912D01*
X0076412Y0091912D01*
X0076412Y0091910D02*
X0076412Y0091910D01*
X0077986Y0089549D02*
X0078774Y0089549D01*
X0077986Y0089549D02*
X0077986Y0089549D01*
X0078774Y0089549D01*
X0078774Y0089549D01*
X0078774Y0087974D02*
X0077986Y0087974D01*
X0077986Y0087974D01*
X0078774Y0087974D01*
X0078774Y0087974D01*
X0078774Y0086400D02*
X0077986Y0086400D01*
X0077986Y0086400D01*
X0078774Y0086400D01*
X0078774Y0086400D01*
X0078774Y0084825D02*
X0077986Y0084825D01*
X0077986Y0084825D01*
X0078774Y0084825D01*
X0078774Y0084825D01*
X0078774Y0083250D02*
X0077986Y0083250D01*
X0077986Y0083250D01*
X0078774Y0083250D01*
X0078774Y0083250D01*
X0078774Y0081675D02*
X0077986Y0081675D01*
X0077986Y0081675D01*
X0078774Y0081675D01*
X0078774Y0081675D01*
X0078774Y0080100D02*
X0077986Y0080100D01*
X0077986Y0080100D01*
X0078774Y0080100D01*
X0078774Y0080100D01*
X0078774Y0078526D02*
X0077986Y0078526D01*
X0077986Y0078526D01*
X0078774Y0078526D01*
X0078774Y0078526D01*
D19*
X0066372Y0084037D03*
D20*
X0065668Y0083644D02*
X0065668Y0078805D01*
X0070506Y0078805D01*
X0070506Y0083644D01*
X0065668Y0083644D01*
X0065668Y0083562D02*
X0070506Y0083562D01*
X0070506Y0083464D02*
X0065668Y0083464D01*
X0065668Y0083365D02*
X0070506Y0083365D01*
X0070506Y0083267D02*
X0065668Y0083267D01*
X0065668Y0083168D02*
X0070506Y0083168D01*
X0070506Y0083070D02*
X0065668Y0083070D01*
X0065668Y0082971D02*
X0070506Y0082971D01*
X0070506Y0082873D02*
X0065668Y0082873D01*
X0065668Y0082774D02*
X0070506Y0082774D01*
X0070506Y0082676D02*
X0065668Y0082676D01*
X0065668Y0082577D02*
X0070506Y0082577D01*
X0070506Y0082479D02*
X0065668Y0082479D01*
X0065668Y0082380D02*
X0070506Y0082380D01*
X0070506Y0082282D02*
X0065668Y0082282D01*
X0065668Y0082183D02*
X0070506Y0082183D01*
X0070506Y0082085D02*
X0065668Y0082085D01*
X0065668Y0081986D02*
X0070506Y0081986D01*
X0070506Y0081888D02*
X0065668Y0081888D01*
X0065668Y0081789D02*
X0070506Y0081789D01*
X0070506Y0081691D02*
X0065668Y0081691D01*
X0065668Y0081592D02*
X0070506Y0081592D01*
X0070506Y0081494D02*
X0065668Y0081494D01*
X0065668Y0081395D02*
X0070506Y0081395D01*
X0070506Y0081297D02*
X0065668Y0081297D01*
X0065668Y0081198D02*
X0070506Y0081198D01*
X0070506Y0081100D02*
X0065668Y0081100D01*
X0065668Y0081001D02*
X0070506Y0081001D01*
X0070506Y0080903D02*
X0065668Y0080903D01*
X0065668Y0080804D02*
X0070506Y0080804D01*
X0070506Y0080706D02*
X0065668Y0080706D01*
X0065668Y0080607D02*
X0070506Y0080607D01*
X0070506Y0080509D02*
X0065668Y0080509D01*
X0065668Y0080410D02*
X0070506Y0080410D01*
X0070506Y0080312D02*
X0065668Y0080312D01*
X0065668Y0080213D02*
X0070506Y0080213D01*
X0070506Y0080115D02*
X0065668Y0080115D01*
X0065668Y0080016D02*
X0070506Y0080016D01*
X0070506Y0079917D02*
X0065668Y0079917D01*
X0065668Y0079819D02*
X0070506Y0079819D01*
X0070506Y0079720D02*
X0065668Y0079720D01*
X0065668Y0079622D02*
X0070506Y0079622D01*
X0070506Y0079523D02*
X0065668Y0079523D01*
X0065668Y0079425D02*
X0070506Y0079425D01*
X0070506Y0079326D02*
X0065668Y0079326D01*
X0065668Y0079228D02*
X0070506Y0079228D01*
X0070506Y0079129D02*
X0065668Y0079129D01*
X0065668Y0079031D02*
X0070506Y0079031D01*
X0070506Y0078932D02*
X0065668Y0078932D01*
X0065668Y0078834D02*
X0070506Y0078834D01*
X0071294Y0078834D02*
X0076132Y0078834D01*
X0076132Y0078805D02*
X0076132Y0083644D01*
X0071294Y0083644D01*
X0071294Y0078805D01*
X0076132Y0078805D01*
X0076132Y0078932D02*
X0071294Y0078932D01*
X0071294Y0079031D02*
X0076132Y0079031D01*
X0076132Y0079129D02*
X0071294Y0079129D01*
X0071294Y0079228D02*
X0076132Y0079228D01*
X0076132Y0079326D02*
X0071294Y0079326D01*
X0071294Y0079425D02*
X0076132Y0079425D01*
X0076132Y0079523D02*
X0071294Y0079523D01*
X0071294Y0079622D02*
X0076132Y0079622D01*
X0076132Y0079720D02*
X0071294Y0079720D01*
X0071294Y0079819D02*
X0076132Y0079819D01*
X0076132Y0079917D02*
X0071294Y0079917D01*
X0071294Y0080016D02*
X0076132Y0080016D01*
X0076132Y0080115D02*
X0071294Y0080115D01*
X0071294Y0080213D02*
X0076132Y0080213D01*
X0076132Y0080312D02*
X0071294Y0080312D01*
X0071294Y0080410D02*
X0076132Y0080410D01*
X0076132Y0080509D02*
X0071294Y0080509D01*
X0071294Y0080607D02*
X0076132Y0080607D01*
X0076132Y0080706D02*
X0071294Y0080706D01*
X0071294Y0080804D02*
X0076132Y0080804D01*
X0076132Y0080903D02*
X0071294Y0080903D01*
X0071294Y0081001D02*
X0076132Y0081001D01*
X0076132Y0081100D02*
X0071294Y0081100D01*
X0071294Y0081198D02*
X0076132Y0081198D01*
X0076132Y0081297D02*
X0071294Y0081297D01*
X0071294Y0081395D02*
X0076132Y0081395D01*
X0076132Y0081494D02*
X0071294Y0081494D01*
X0071294Y0081592D02*
X0076132Y0081592D01*
X0076132Y0081691D02*
X0071294Y0081691D01*
X0071294Y0081789D02*
X0076132Y0081789D01*
X0076132Y0081888D02*
X0071294Y0081888D01*
X0071294Y0081986D02*
X0076132Y0081986D01*
X0076132Y0082085D02*
X0071294Y0082085D01*
X0071294Y0082183D02*
X0076132Y0082183D01*
X0076132Y0082282D02*
X0071294Y0082282D01*
X0071294Y0082380D02*
X0076132Y0082380D01*
X0076132Y0082479D02*
X0071294Y0082479D01*
X0071294Y0082577D02*
X0076132Y0082577D01*
X0076132Y0082676D02*
X0071294Y0082676D01*
X0071294Y0082774D02*
X0076132Y0082774D01*
X0076132Y0082873D02*
X0071294Y0082873D01*
X0071294Y0082971D02*
X0076132Y0082971D01*
X0076132Y0083070D02*
X0071294Y0083070D01*
X0071294Y0083168D02*
X0076132Y0083168D01*
X0076132Y0083267D02*
X0071294Y0083267D01*
X0071294Y0083365D02*
X0076132Y0083365D01*
X0076132Y0083464D02*
X0071294Y0083464D01*
X0071294Y0083562D02*
X0076132Y0083562D01*
X0076132Y0084431D02*
X0076132Y0089270D01*
X0071294Y0089270D01*
X0071294Y0084431D01*
X0076132Y0084431D01*
X0076132Y0084449D02*
X0071294Y0084449D01*
X0071294Y0084548D02*
X0076132Y0084548D01*
X0076132Y0084646D02*
X0071294Y0084646D01*
X0071294Y0084745D02*
X0076132Y0084745D01*
X0076132Y0084843D02*
X0071294Y0084843D01*
X0071294Y0084942D02*
X0076132Y0084942D01*
X0076132Y0085040D02*
X0071294Y0085040D01*
X0071294Y0085139D02*
X0076132Y0085139D01*
X0076132Y0085237D02*
X0071294Y0085237D01*
X0071294Y0085336D02*
X0076132Y0085336D01*
X0076132Y0085434D02*
X0071294Y0085434D01*
X0071294Y0085533D02*
X0076132Y0085533D01*
X0076132Y0085631D02*
X0071294Y0085631D01*
X0071294Y0085730D02*
X0076132Y0085730D01*
X0076132Y0085828D02*
X0071294Y0085828D01*
X0071294Y0085927D02*
X0076132Y0085927D01*
X0076132Y0086025D02*
X0071294Y0086025D01*
X0071294Y0086124D02*
X0076132Y0086124D01*
X0076132Y0086222D02*
X0071294Y0086222D01*
X0071294Y0086321D02*
X0076132Y0086321D01*
X0076132Y0086419D02*
X0071294Y0086419D01*
X0071294Y0086518D02*
X0076132Y0086518D01*
X0076132Y0086616D02*
X0071294Y0086616D01*
X0071294Y0086715D02*
X0076132Y0086715D01*
X0076132Y0086813D02*
X0071294Y0086813D01*
X0071294Y0086912D02*
X0076132Y0086912D01*
X0076132Y0087010D02*
X0071294Y0087010D01*
X0071294Y0087109D02*
X0076132Y0087109D01*
X0076132Y0087207D02*
X0071294Y0087207D01*
X0071294Y0087306D02*
X0076132Y0087306D01*
X0076132Y0087404D02*
X0071294Y0087404D01*
X0071294Y0087503D02*
X0076132Y0087503D01*
X0076132Y0087601D02*
X0071294Y0087601D01*
X0071294Y0087700D02*
X0076132Y0087700D01*
X0076132Y0087798D02*
X0071294Y0087798D01*
X0071294Y0087897D02*
X0076132Y0087897D01*
X0076132Y0087995D02*
X0071294Y0087995D01*
X0071294Y0088094D02*
X0076132Y0088094D01*
X0076132Y0088192D02*
X0071294Y0088192D01*
X0071294Y0088291D02*
X0076132Y0088291D01*
X0076132Y0088389D02*
X0071294Y0088389D01*
X0071294Y0088488D02*
X0076132Y0088488D01*
X0076132Y0088586D02*
X0071294Y0088586D01*
X0071294Y0088685D02*
X0076132Y0088685D01*
X0076132Y0088784D02*
X0071294Y0088784D01*
X0071294Y0088882D02*
X0076132Y0088882D01*
X0076132Y0088981D02*
X0071294Y0088981D01*
X0071294Y0089079D02*
X0076132Y0089079D01*
X0076132Y0089178D02*
X0071294Y0089178D01*
X0070506Y0089178D02*
X0065668Y0089178D01*
X0065668Y0089270D02*
X0065668Y0084431D01*
X0070506Y0084431D01*
X0070506Y0089270D01*
X0065668Y0089270D01*
X0065668Y0089079D02*
X0070506Y0089079D01*
X0070506Y0088981D02*
X0065668Y0088981D01*
X0065668Y0088882D02*
X0070506Y0088882D01*
X0070506Y0088784D02*
X0065668Y0088784D01*
X0065668Y0088685D02*
X0070506Y0088685D01*
X0070506Y0088586D02*
X0065668Y0088586D01*
X0065668Y0088488D02*
X0070506Y0088488D01*
X0070506Y0088389D02*
X0065668Y0088389D01*
X0065668Y0088291D02*
X0070506Y0088291D01*
X0070506Y0088192D02*
X0065668Y0088192D01*
X0065668Y0088094D02*
X0070506Y0088094D01*
X0070506Y0087995D02*
X0065668Y0087995D01*
X0065668Y0087897D02*
X0070506Y0087897D01*
X0070506Y0087798D02*
X0065668Y0087798D01*
X0065668Y0087700D02*
X0070506Y0087700D01*
X0070506Y0087601D02*
X0065668Y0087601D01*
X0065668Y0087503D02*
X0070506Y0087503D01*
X0070506Y0087404D02*
X0065668Y0087404D01*
X0065668Y0087306D02*
X0070506Y0087306D01*
X0070506Y0087207D02*
X0065668Y0087207D01*
X0065668Y0087109D02*
X0070506Y0087109D01*
X0070506Y0087010D02*
X0065668Y0087010D01*
X0065668Y0086912D02*
X0070506Y0086912D01*
X0070506Y0086813D02*
X0065668Y0086813D01*
X0065668Y0086715D02*
X0070506Y0086715D01*
X0070506Y0086616D02*
X0065668Y0086616D01*
X0065668Y0086518D02*
X0070506Y0086518D01*
X0070506Y0086419D02*
X0065668Y0086419D01*
X0065668Y0086321D02*
X0070506Y0086321D01*
X0070506Y0086222D02*
X0065668Y0086222D01*
X0065668Y0086124D02*
X0070506Y0086124D01*
X0070506Y0086025D02*
X0065668Y0086025D01*
X0065668Y0085927D02*
X0070506Y0085927D01*
X0070506Y0085828D02*
X0065668Y0085828D01*
X0065668Y0085730D02*
X0070506Y0085730D01*
X0070506Y0085631D02*
X0065668Y0085631D01*
X0065668Y0085533D02*
X0070506Y0085533D01*
X0070506Y0085434D02*
X0065668Y0085434D01*
X0065668Y0085336D02*
X0070506Y0085336D01*
X0070506Y0085237D02*
X0065668Y0085237D01*
X0065668Y0085139D02*
X0070506Y0085139D01*
X0070506Y0085040D02*
X0065668Y0085040D01*
X0065668Y0084942D02*
X0070506Y0084942D01*
X0070506Y0084843D02*
X0065668Y0084843D01*
X0065668Y0084745D02*
X0070506Y0084745D01*
X0070506Y0084646D02*
X0065668Y0084646D01*
X0065668Y0084548D02*
X0070506Y0084548D01*
X0070506Y0084449D02*
X0065668Y0084449D01*
D21*
X0054900Y0101116D03*
X0054900Y0110959D03*
D22*
X0111050Y0111887D03*
X0117750Y0111887D03*
X0117750Y0103187D03*
X0111050Y0103187D03*
M02*
