G75*
%MOIN*%
%OFA0B0*%
%FSLAX25Y25*%
%IPPOS*%
%LPD*%
%AMOC8*
5,1,8,0,0,1.08239X$1,22.5*
%
%ADD10C,0.00600*%
%ADD11C,0.00000*%
D10*
X0001400Y0019037D02*
X0161400Y0019037D01*
X0161400Y0164037D01*
X0001400Y0164037D01*
X0001400Y0019037D01*
D11*
X0020100Y0045287D02*
X0020102Y0045392D01*
X0020108Y0045497D01*
X0020118Y0045602D01*
X0020132Y0045707D01*
X0020149Y0045811D01*
X0020171Y0045914D01*
X0020197Y0046016D01*
X0020226Y0046117D01*
X0020259Y0046217D01*
X0020296Y0046316D01*
X0020336Y0046413D01*
X0020381Y0046509D01*
X0020428Y0046603D01*
X0020480Y0046695D01*
X0020534Y0046785D01*
X0020592Y0046873D01*
X0020653Y0046958D01*
X0020718Y0047042D01*
X0020785Y0047122D01*
X0020856Y0047201D01*
X0020929Y0047276D01*
X0021006Y0047349D01*
X0021085Y0047419D01*
X0021166Y0047485D01*
X0021250Y0047549D01*
X0021336Y0047610D01*
X0021425Y0047667D01*
X0021515Y0047721D01*
X0021608Y0047771D01*
X0021702Y0047818D01*
X0021798Y0047861D01*
X0021896Y0047901D01*
X0021995Y0047937D01*
X0022095Y0047969D01*
X0022197Y0047997D01*
X0022299Y0048022D01*
X0022402Y0048042D01*
X0022506Y0048059D01*
X0022611Y0048072D01*
X0022716Y0048081D01*
X0022821Y0048086D01*
X0022926Y0048087D01*
X0023032Y0048084D01*
X0023137Y0048077D01*
X0023242Y0048066D01*
X0023346Y0048051D01*
X0023449Y0048033D01*
X0023552Y0048010D01*
X0023654Y0047983D01*
X0023755Y0047953D01*
X0023855Y0047919D01*
X0023953Y0047881D01*
X0024050Y0047840D01*
X0024145Y0047795D01*
X0024239Y0047746D01*
X0024330Y0047694D01*
X0024420Y0047639D01*
X0024507Y0047580D01*
X0024592Y0047518D01*
X0024675Y0047452D01*
X0024755Y0047384D01*
X0024833Y0047313D01*
X0024908Y0047239D01*
X0024980Y0047162D01*
X0025049Y0047082D01*
X0025115Y0047000D01*
X0025178Y0046916D01*
X0025237Y0046829D01*
X0025294Y0046740D01*
X0025347Y0046649D01*
X0025396Y0046556D01*
X0025442Y0046461D01*
X0025484Y0046365D01*
X0025523Y0046267D01*
X0025558Y0046167D01*
X0025589Y0046067D01*
X0025617Y0045965D01*
X0025640Y0045862D01*
X0025660Y0045759D01*
X0025676Y0045655D01*
X0025688Y0045550D01*
X0025696Y0045445D01*
X0025700Y0045340D01*
X0025700Y0045234D01*
X0025696Y0045129D01*
X0025688Y0045024D01*
X0025676Y0044919D01*
X0025660Y0044815D01*
X0025640Y0044712D01*
X0025617Y0044609D01*
X0025589Y0044507D01*
X0025558Y0044407D01*
X0025523Y0044307D01*
X0025484Y0044209D01*
X0025442Y0044113D01*
X0025396Y0044018D01*
X0025347Y0043925D01*
X0025294Y0043834D01*
X0025237Y0043745D01*
X0025178Y0043658D01*
X0025115Y0043574D01*
X0025049Y0043492D01*
X0024980Y0043412D01*
X0024908Y0043335D01*
X0024833Y0043261D01*
X0024755Y0043190D01*
X0024675Y0043122D01*
X0024592Y0043056D01*
X0024507Y0042994D01*
X0024420Y0042935D01*
X0024330Y0042880D01*
X0024239Y0042828D01*
X0024145Y0042779D01*
X0024050Y0042734D01*
X0023953Y0042693D01*
X0023855Y0042655D01*
X0023755Y0042621D01*
X0023654Y0042591D01*
X0023552Y0042564D01*
X0023449Y0042541D01*
X0023346Y0042523D01*
X0023242Y0042508D01*
X0023137Y0042497D01*
X0023032Y0042490D01*
X0022926Y0042487D01*
X0022821Y0042488D01*
X0022716Y0042493D01*
X0022611Y0042502D01*
X0022506Y0042515D01*
X0022402Y0042532D01*
X0022299Y0042552D01*
X0022197Y0042577D01*
X0022095Y0042605D01*
X0021995Y0042637D01*
X0021896Y0042673D01*
X0021798Y0042713D01*
X0021702Y0042756D01*
X0021608Y0042803D01*
X0021515Y0042853D01*
X0021425Y0042907D01*
X0021336Y0042964D01*
X0021250Y0043025D01*
X0021166Y0043089D01*
X0021085Y0043155D01*
X0021006Y0043225D01*
X0020929Y0043298D01*
X0020856Y0043373D01*
X0020785Y0043452D01*
X0020718Y0043532D01*
X0020653Y0043616D01*
X0020592Y0043701D01*
X0020534Y0043789D01*
X0020480Y0043879D01*
X0020428Y0043971D01*
X0020381Y0044065D01*
X0020336Y0044161D01*
X0020296Y0044258D01*
X0020259Y0044357D01*
X0020226Y0044457D01*
X0020197Y0044558D01*
X0020171Y0044660D01*
X0020149Y0044763D01*
X0020132Y0044867D01*
X0020118Y0044972D01*
X0020108Y0045077D01*
X0020102Y0045182D01*
X0020100Y0045287D01*
X0020100Y0102787D02*
X0020102Y0102892D01*
X0020108Y0102997D01*
X0020118Y0103102D01*
X0020132Y0103207D01*
X0020149Y0103311D01*
X0020171Y0103414D01*
X0020197Y0103516D01*
X0020226Y0103617D01*
X0020259Y0103717D01*
X0020296Y0103816D01*
X0020336Y0103913D01*
X0020381Y0104009D01*
X0020428Y0104103D01*
X0020480Y0104195D01*
X0020534Y0104285D01*
X0020592Y0104373D01*
X0020653Y0104458D01*
X0020718Y0104542D01*
X0020785Y0104622D01*
X0020856Y0104701D01*
X0020929Y0104776D01*
X0021006Y0104849D01*
X0021085Y0104919D01*
X0021166Y0104985D01*
X0021250Y0105049D01*
X0021336Y0105110D01*
X0021425Y0105167D01*
X0021515Y0105221D01*
X0021608Y0105271D01*
X0021702Y0105318D01*
X0021798Y0105361D01*
X0021896Y0105401D01*
X0021995Y0105437D01*
X0022095Y0105469D01*
X0022197Y0105497D01*
X0022299Y0105522D01*
X0022402Y0105542D01*
X0022506Y0105559D01*
X0022611Y0105572D01*
X0022716Y0105581D01*
X0022821Y0105586D01*
X0022926Y0105587D01*
X0023032Y0105584D01*
X0023137Y0105577D01*
X0023242Y0105566D01*
X0023346Y0105551D01*
X0023449Y0105533D01*
X0023552Y0105510D01*
X0023654Y0105483D01*
X0023755Y0105453D01*
X0023855Y0105419D01*
X0023953Y0105381D01*
X0024050Y0105340D01*
X0024145Y0105295D01*
X0024239Y0105246D01*
X0024330Y0105194D01*
X0024420Y0105139D01*
X0024507Y0105080D01*
X0024592Y0105018D01*
X0024675Y0104952D01*
X0024755Y0104884D01*
X0024833Y0104813D01*
X0024908Y0104739D01*
X0024980Y0104662D01*
X0025049Y0104582D01*
X0025115Y0104500D01*
X0025178Y0104416D01*
X0025237Y0104329D01*
X0025294Y0104240D01*
X0025347Y0104149D01*
X0025396Y0104056D01*
X0025442Y0103961D01*
X0025484Y0103865D01*
X0025523Y0103767D01*
X0025558Y0103667D01*
X0025589Y0103567D01*
X0025617Y0103465D01*
X0025640Y0103362D01*
X0025660Y0103259D01*
X0025676Y0103155D01*
X0025688Y0103050D01*
X0025696Y0102945D01*
X0025700Y0102840D01*
X0025700Y0102734D01*
X0025696Y0102629D01*
X0025688Y0102524D01*
X0025676Y0102419D01*
X0025660Y0102315D01*
X0025640Y0102212D01*
X0025617Y0102109D01*
X0025589Y0102007D01*
X0025558Y0101907D01*
X0025523Y0101807D01*
X0025484Y0101709D01*
X0025442Y0101613D01*
X0025396Y0101518D01*
X0025347Y0101425D01*
X0025294Y0101334D01*
X0025237Y0101245D01*
X0025178Y0101158D01*
X0025115Y0101074D01*
X0025049Y0100992D01*
X0024980Y0100912D01*
X0024908Y0100835D01*
X0024833Y0100761D01*
X0024755Y0100690D01*
X0024675Y0100622D01*
X0024592Y0100556D01*
X0024507Y0100494D01*
X0024420Y0100435D01*
X0024330Y0100380D01*
X0024239Y0100328D01*
X0024145Y0100279D01*
X0024050Y0100234D01*
X0023953Y0100193D01*
X0023855Y0100155D01*
X0023755Y0100121D01*
X0023654Y0100091D01*
X0023552Y0100064D01*
X0023449Y0100041D01*
X0023346Y0100023D01*
X0023242Y0100008D01*
X0023137Y0099997D01*
X0023032Y0099990D01*
X0022926Y0099987D01*
X0022821Y0099988D01*
X0022716Y0099993D01*
X0022611Y0100002D01*
X0022506Y0100015D01*
X0022402Y0100032D01*
X0022299Y0100052D01*
X0022197Y0100077D01*
X0022095Y0100105D01*
X0021995Y0100137D01*
X0021896Y0100173D01*
X0021798Y0100213D01*
X0021702Y0100256D01*
X0021608Y0100303D01*
X0021515Y0100353D01*
X0021425Y0100407D01*
X0021336Y0100464D01*
X0021250Y0100525D01*
X0021166Y0100589D01*
X0021085Y0100655D01*
X0021006Y0100725D01*
X0020929Y0100798D01*
X0020856Y0100873D01*
X0020785Y0100952D01*
X0020718Y0101032D01*
X0020653Y0101116D01*
X0020592Y0101201D01*
X0020534Y0101289D01*
X0020480Y0101379D01*
X0020428Y0101471D01*
X0020381Y0101565D01*
X0020336Y0101661D01*
X0020296Y0101758D01*
X0020259Y0101857D01*
X0020226Y0101957D01*
X0020197Y0102058D01*
X0020171Y0102160D01*
X0020149Y0102263D01*
X0020132Y0102367D01*
X0020118Y0102472D01*
X0020108Y0102577D01*
X0020102Y0102682D01*
X0020100Y0102787D01*
X0137100Y0102787D02*
X0137102Y0102892D01*
X0137108Y0102997D01*
X0137118Y0103102D01*
X0137132Y0103207D01*
X0137149Y0103311D01*
X0137171Y0103414D01*
X0137197Y0103516D01*
X0137226Y0103617D01*
X0137259Y0103717D01*
X0137296Y0103816D01*
X0137336Y0103913D01*
X0137381Y0104009D01*
X0137428Y0104103D01*
X0137480Y0104195D01*
X0137534Y0104285D01*
X0137592Y0104373D01*
X0137653Y0104458D01*
X0137718Y0104542D01*
X0137785Y0104622D01*
X0137856Y0104701D01*
X0137929Y0104776D01*
X0138006Y0104849D01*
X0138085Y0104919D01*
X0138166Y0104985D01*
X0138250Y0105049D01*
X0138336Y0105110D01*
X0138425Y0105167D01*
X0138515Y0105221D01*
X0138608Y0105271D01*
X0138702Y0105318D01*
X0138798Y0105361D01*
X0138896Y0105401D01*
X0138995Y0105437D01*
X0139095Y0105469D01*
X0139197Y0105497D01*
X0139299Y0105522D01*
X0139402Y0105542D01*
X0139506Y0105559D01*
X0139611Y0105572D01*
X0139716Y0105581D01*
X0139821Y0105586D01*
X0139926Y0105587D01*
X0140032Y0105584D01*
X0140137Y0105577D01*
X0140242Y0105566D01*
X0140346Y0105551D01*
X0140449Y0105533D01*
X0140552Y0105510D01*
X0140654Y0105483D01*
X0140755Y0105453D01*
X0140855Y0105419D01*
X0140953Y0105381D01*
X0141050Y0105340D01*
X0141145Y0105295D01*
X0141239Y0105246D01*
X0141330Y0105194D01*
X0141420Y0105139D01*
X0141507Y0105080D01*
X0141592Y0105018D01*
X0141675Y0104952D01*
X0141755Y0104884D01*
X0141833Y0104813D01*
X0141908Y0104739D01*
X0141980Y0104662D01*
X0142049Y0104582D01*
X0142115Y0104500D01*
X0142178Y0104416D01*
X0142237Y0104329D01*
X0142294Y0104240D01*
X0142347Y0104149D01*
X0142396Y0104056D01*
X0142442Y0103961D01*
X0142484Y0103865D01*
X0142523Y0103767D01*
X0142558Y0103667D01*
X0142589Y0103567D01*
X0142617Y0103465D01*
X0142640Y0103362D01*
X0142660Y0103259D01*
X0142676Y0103155D01*
X0142688Y0103050D01*
X0142696Y0102945D01*
X0142700Y0102840D01*
X0142700Y0102734D01*
X0142696Y0102629D01*
X0142688Y0102524D01*
X0142676Y0102419D01*
X0142660Y0102315D01*
X0142640Y0102212D01*
X0142617Y0102109D01*
X0142589Y0102007D01*
X0142558Y0101907D01*
X0142523Y0101807D01*
X0142484Y0101709D01*
X0142442Y0101613D01*
X0142396Y0101518D01*
X0142347Y0101425D01*
X0142294Y0101334D01*
X0142237Y0101245D01*
X0142178Y0101158D01*
X0142115Y0101074D01*
X0142049Y0100992D01*
X0141980Y0100912D01*
X0141908Y0100835D01*
X0141833Y0100761D01*
X0141755Y0100690D01*
X0141675Y0100622D01*
X0141592Y0100556D01*
X0141507Y0100494D01*
X0141420Y0100435D01*
X0141330Y0100380D01*
X0141239Y0100328D01*
X0141145Y0100279D01*
X0141050Y0100234D01*
X0140953Y0100193D01*
X0140855Y0100155D01*
X0140755Y0100121D01*
X0140654Y0100091D01*
X0140552Y0100064D01*
X0140449Y0100041D01*
X0140346Y0100023D01*
X0140242Y0100008D01*
X0140137Y0099997D01*
X0140032Y0099990D01*
X0139926Y0099987D01*
X0139821Y0099988D01*
X0139716Y0099993D01*
X0139611Y0100002D01*
X0139506Y0100015D01*
X0139402Y0100032D01*
X0139299Y0100052D01*
X0139197Y0100077D01*
X0139095Y0100105D01*
X0138995Y0100137D01*
X0138896Y0100173D01*
X0138798Y0100213D01*
X0138702Y0100256D01*
X0138608Y0100303D01*
X0138515Y0100353D01*
X0138425Y0100407D01*
X0138336Y0100464D01*
X0138250Y0100525D01*
X0138166Y0100589D01*
X0138085Y0100655D01*
X0138006Y0100725D01*
X0137929Y0100798D01*
X0137856Y0100873D01*
X0137785Y0100952D01*
X0137718Y0101032D01*
X0137653Y0101116D01*
X0137592Y0101201D01*
X0137534Y0101289D01*
X0137480Y0101379D01*
X0137428Y0101471D01*
X0137381Y0101565D01*
X0137336Y0101661D01*
X0137296Y0101758D01*
X0137259Y0101857D01*
X0137226Y0101957D01*
X0137197Y0102058D01*
X0137171Y0102160D01*
X0137149Y0102263D01*
X0137132Y0102367D01*
X0137118Y0102472D01*
X0137108Y0102577D01*
X0137102Y0102682D01*
X0137100Y0102787D01*
X0137100Y0045287D02*
X0137102Y0045392D01*
X0137108Y0045497D01*
X0137118Y0045602D01*
X0137132Y0045707D01*
X0137149Y0045811D01*
X0137171Y0045914D01*
X0137197Y0046016D01*
X0137226Y0046117D01*
X0137259Y0046217D01*
X0137296Y0046316D01*
X0137336Y0046413D01*
X0137381Y0046509D01*
X0137428Y0046603D01*
X0137480Y0046695D01*
X0137534Y0046785D01*
X0137592Y0046873D01*
X0137653Y0046958D01*
X0137718Y0047042D01*
X0137785Y0047122D01*
X0137856Y0047201D01*
X0137929Y0047276D01*
X0138006Y0047349D01*
X0138085Y0047419D01*
X0138166Y0047485D01*
X0138250Y0047549D01*
X0138336Y0047610D01*
X0138425Y0047667D01*
X0138515Y0047721D01*
X0138608Y0047771D01*
X0138702Y0047818D01*
X0138798Y0047861D01*
X0138896Y0047901D01*
X0138995Y0047937D01*
X0139095Y0047969D01*
X0139197Y0047997D01*
X0139299Y0048022D01*
X0139402Y0048042D01*
X0139506Y0048059D01*
X0139611Y0048072D01*
X0139716Y0048081D01*
X0139821Y0048086D01*
X0139926Y0048087D01*
X0140032Y0048084D01*
X0140137Y0048077D01*
X0140242Y0048066D01*
X0140346Y0048051D01*
X0140449Y0048033D01*
X0140552Y0048010D01*
X0140654Y0047983D01*
X0140755Y0047953D01*
X0140855Y0047919D01*
X0140953Y0047881D01*
X0141050Y0047840D01*
X0141145Y0047795D01*
X0141239Y0047746D01*
X0141330Y0047694D01*
X0141420Y0047639D01*
X0141507Y0047580D01*
X0141592Y0047518D01*
X0141675Y0047452D01*
X0141755Y0047384D01*
X0141833Y0047313D01*
X0141908Y0047239D01*
X0141980Y0047162D01*
X0142049Y0047082D01*
X0142115Y0047000D01*
X0142178Y0046916D01*
X0142237Y0046829D01*
X0142294Y0046740D01*
X0142347Y0046649D01*
X0142396Y0046556D01*
X0142442Y0046461D01*
X0142484Y0046365D01*
X0142523Y0046267D01*
X0142558Y0046167D01*
X0142589Y0046067D01*
X0142617Y0045965D01*
X0142640Y0045862D01*
X0142660Y0045759D01*
X0142676Y0045655D01*
X0142688Y0045550D01*
X0142696Y0045445D01*
X0142700Y0045340D01*
X0142700Y0045234D01*
X0142696Y0045129D01*
X0142688Y0045024D01*
X0142676Y0044919D01*
X0142660Y0044815D01*
X0142640Y0044712D01*
X0142617Y0044609D01*
X0142589Y0044507D01*
X0142558Y0044407D01*
X0142523Y0044307D01*
X0142484Y0044209D01*
X0142442Y0044113D01*
X0142396Y0044018D01*
X0142347Y0043925D01*
X0142294Y0043834D01*
X0142237Y0043745D01*
X0142178Y0043658D01*
X0142115Y0043574D01*
X0142049Y0043492D01*
X0141980Y0043412D01*
X0141908Y0043335D01*
X0141833Y0043261D01*
X0141755Y0043190D01*
X0141675Y0043122D01*
X0141592Y0043056D01*
X0141507Y0042994D01*
X0141420Y0042935D01*
X0141330Y0042880D01*
X0141239Y0042828D01*
X0141145Y0042779D01*
X0141050Y0042734D01*
X0140953Y0042693D01*
X0140855Y0042655D01*
X0140755Y0042621D01*
X0140654Y0042591D01*
X0140552Y0042564D01*
X0140449Y0042541D01*
X0140346Y0042523D01*
X0140242Y0042508D01*
X0140137Y0042497D01*
X0140032Y0042490D01*
X0139926Y0042487D01*
X0139821Y0042488D01*
X0139716Y0042493D01*
X0139611Y0042502D01*
X0139506Y0042515D01*
X0139402Y0042532D01*
X0139299Y0042552D01*
X0139197Y0042577D01*
X0139095Y0042605D01*
X0138995Y0042637D01*
X0138896Y0042673D01*
X0138798Y0042713D01*
X0138702Y0042756D01*
X0138608Y0042803D01*
X0138515Y0042853D01*
X0138425Y0042907D01*
X0138336Y0042964D01*
X0138250Y0043025D01*
X0138166Y0043089D01*
X0138085Y0043155D01*
X0138006Y0043225D01*
X0137929Y0043298D01*
X0137856Y0043373D01*
X0137785Y0043452D01*
X0137718Y0043532D01*
X0137653Y0043616D01*
X0137592Y0043701D01*
X0137534Y0043789D01*
X0137480Y0043879D01*
X0137428Y0043971D01*
X0137381Y0044065D01*
X0137336Y0044161D01*
X0137296Y0044258D01*
X0137259Y0044357D01*
X0137226Y0044457D01*
X0137197Y0044558D01*
X0137171Y0044660D01*
X0137149Y0044763D01*
X0137132Y0044867D01*
X0137118Y0044972D01*
X0137108Y0045077D01*
X0137102Y0045182D01*
X0137100Y0045287D01*
M02*
