%
M48
M72
T01C0.01378
T02C0.05600
%
T01
X39989Y36317
X36400Y49037
X36400Y54037
X51400Y59037
X46400Y69037
X46400Y74037
X41400Y79037
X41400Y84037
X41400Y89037
X44978Y89037
X41400Y94037
X36400Y99037
X46400Y81215
X36400Y74037
X59013Y74878
X62685Y69509
X68484Y65866
X70873Y69037
X77226Y71898
X81900Y71582
X86757Y88681
X91400Y88929
X101400Y84037
X101400Y79037
X101400Y74037
X109900Y74037
X111400Y64037
X101400Y64037
X86400Y54037
X86400Y49037
X77226Y54037
X71400Y49037
X69731Y52206
X66955Y46426
X71400Y44037
X106400Y88929
X112913Y88929
X101400Y94907
X101400Y109037
X126400Y104037
X126400Y124037
X59343Y92002
X7189Y79037
X7189Y74037
X116400Y49037
X116400Y44037
T02
X139900Y45287
X139900Y102787
X22900Y102787
X22900Y45287
M30
